NotoSerifDisplay-CondensedBoldItalic.ufo
<glyph name="numbersign" format="2">
  <advance width="456"/>
  <unicode hex="0023"/>
  <outline>
    <contour>
      <point x="65" y="0" type="line"/>
      <point x="74" y="0" type="line"/>
      <point x="137" y="228" type="line"/>
      <point x="285" y="228" type="line"/>
      <point x="222" y="0" type="line"/>
      <point x="231" y="0" type="line"/>
      <point x="294" y="228" type="line"/>
      <point x="392" y="228" type="line"/>
      <point x="394" y="238" type="line"/>
      <point x="297" y="238" type="line"/>
      <point x="366" y="490" type="line"/>
      <point x="463" y="490" type="line"/>
      <point x="465" y="500" type="line"/>
      <point x="369" y="500" type="line"/>
      <point x="428" y="714" type="line"/>
      <point x="418" y="714" type="line"/>
      <point x="359" y="500" type="line"/>
      <point x="212" y="500" type="line"/>
      <point x="271" y="714" type="line"/>
      <point x="261" y="714" type="line"/>
      <point x="202" y="500" type="line"/>
      <point x="105" y="500" type="line"/>
      <point x="103" y="490" type="line"/>
      <point x="200" y="490" type="line"/>
      <point x="130" y="238" type="line"/>
      <point x="33" y="238" type="line"/>
      <point x="31" y="228" type="line"/>
      <point x="128" y="228" type="line"/>
    </contour>
    <contour>
      <point x="140" y="238" type="line"/>
      <point x="209" y="490" type="line"/>
      <point x="357" y="490" type="line"/>
      <point x="287" y="238" type="line"/>
    </contour>
  </outline>
</glyph>
<glyph name="dollar" format="2">
  <advance width="505"/>
  <unicode hex="0024"/>
  <outline>
    <contour>
      <point x="199" y="33" type="curve"/>
      <point x="175" y="-79" type="line"/>
      <point x="185" y="-79" type="line"/>
      <point x="209" y="33" type="line"/>
      <point x="372" y="33"/>
      <point x="466" y="112"/>
      <point x="466" y="252" type="curve" smooth="yes"/>
      <point x="466" y="315"/>
      <point x="431" y="367"/>
      <point x="332" y="431" type="curve" smooth="yes"/>
      <point x="298" y="453" type="line"/>
      <point x="344" y="672" type="line"/>
      <point x="384" y="667"/>
      <point x="399" y="624"/>
      <point x="399" y="504" type="curve"/>
      <point x="494" y="504"/>
      <point x="533" y="538"/>
      <point x="533" y="584" type="curve" smooth="yes"/>
      <point x="533" y="642"/>
      <point x="469" y="680"/>
      <point x="346" y="682" type="curve"/>
      <point x="363" y="760" type="line"/>
      <point x="353" y="760" type="line"/>
      <point x="336" y="682" type="line"/>
      <point x="184" y="680"/>
      <point x="98" y="601"/>
      <point x="98" y="482" type="curve" smooth="yes"/>
      <point x="98" y="380"/>
      <point x="161" y="339"/>
      <point x="230" y="296" type="curve" smooth="yes"/>
      <point x="252" y="282" type="line"/>
      <point x="201" y="42" type="line"/>
      <point x="149" y="47"/>
      <point x="139" y="96"/>
      <point x="139" y="241" type="curve"/>
      <point x="54" y="241"/>
      <point x="6" y="210"/>
      <point x="6" y="150" type="curve" smooth="yes"/>
      <point x="6" y="80"/>
      <point x="78" y="37"/>
    </contour>
    <contour>
      <point x="211" y="42" type="curve"/>
      <point x="260" y="276" type="line"/>
      <point x="302" y="246"/>
      <point x="323" y="216"/>
      <point x="323" y="157" type="curve" smooth="yes"/>
      <point x="323" y="102"/>
      <point x="306" y="43"/>
    </contour>
    <contour>
      <point x="335" y="673" type="curve"/>
      <point x="289" y="459" type="line"/>
      <point x="262" y="481"/>
      <point x="244" y="508"/>
      <point x="244" y="560" type="curve" smooth="yes"/>
      <point x="244" y="625"/>
      <point x="270" y="672"/>
    </contour>
  </outline>
</glyph>
<glyph name="parenright" format="2">
  <advance width="367"/>
  <unicode hex="0029"/>
  <outline>
    <contour>
      <point x="-31" y="-130" type="curve"/>
      <point x="-32" y="-140" type="line"/>
      <point x="241" y="-85"/>
      <point x="358" y="148"/>
      <point x="358" y="408" type="curve" smooth="yes"/>
      <point x="358" y="599"/>
      <point x="281" y="734"/>
      <point x="131" y="788" type="curve"/>
      <point x="130" y="778" type="line"/>
      <point x="167" y="736"/>
      <point x="199" y="651"/>
      <point x="199" y="433" type="curve" smooth="yes"/>
      <point x="199" y="320"/>
      <point x="149" y="-17"/>
    </contour>
  </outline>
</glyph>
<glyph name="asterisk" format="2">
  <advance width="523"/>
  <unicode hex="002A"/>
  <outline>
    <contour>
      <point x="336" y="356" type="line"/>
      <point x="328" y="546" type="line"/>
      <point x="434" y="395" type="line"/>
      <point x="498" y="486" type="line"/>
      <point x="339" y="559" type="line"/>
      <point x="514" y="559" type="line"/>
      <point x="492" y="670" type="line"/>
      <point x="334" y="575" type="line"/>
      <point x="419" y="744" type="line"/>
      <point x="312" y="767" type="line"/>
      <point x="319" y="578" type="line"/>
      <point x="214" y="732" type="line"/>
      <point x="150" y="638" type="line"/>
      <point x="309" y="565" type="line"/>
      <point x="134" y="563" type="line"/>
      <point x="155" y="453" type="line"/>
      <point x="313" y="549" type="line"/>
      <point x="231" y="378" type="line"/>
    </contour>
  </outline>
</glyph>
<glyph name="comma" format="2">
  <advance width="270"/>
  <unicode hex="002C"/>
  <outline>
    <contour>
      <point x="-30" y="-155" type="line"/>
      <point x="118" y="-120"/>
      <point x="188" y="-36"/>
      <point x="188" y="74" type="curve" smooth="yes"/>
      <point x="188" y="130"/>
      <point x="159" y="161"/>
      <point x="107" y="161" type="curve" smooth="yes"/>
      <point x="68" y="161"/>
      <point x="42" y="135"/>
      <point x="42" y="95" type="curve" smooth="yes"/>
      <point x="42" y="26"/>
      <point x="94" y="29"/>
      <point x="94" y="-36" type="curve" smooth="yes"/>
      <point x="94" y="-100"/>
      <point x="32" y="-127"/>
      <point x="-27" y="-144" type="curve"/>
    </contour>
  </outline>
</glyph>
<glyph name="period" format="2">
  <advance width="269"/>
  <unicode hex="002E"/>
  <outline>
    <contour>
      <point x="98" y="-8" type="curve" smooth="yes"/>
      <point x="140" y="-8"/>
      <point x="188" y="17"/>
      <point x="188" y="90" type="curve" smooth="yes"/>
      <point x="188" y="139"/>
      <point x="156" y="163"/>
      <point x="110" y="163" type="curve" smooth="yes"/>
      <point x="56" y="163"/>
      <point x="20" y="123"/>
      <point x="20" y="64" type="curve" smooth="yes"/>
      <point x="20" y="15"/>
      <point x="52" y="-8"/>
    </contour>
  </outline>
</glyph>
<glyph name="one" format="2">
  <advance width="515"/>
  <unicode hex="0031"/>
  <outline>
    <contour>
      <point x="44" y="0" type="line"/>
      <point x="411" y="0" type="line"/>
      <point x="413" y="10" type="line"/>
      <point x="389" y="10" type="line" smooth="yes"/>
      <point x="333" y="10"/>
      <point x="317" y="13"/>
      <point x="317" y="38" type="curve" smooth="yes"/>
      <point x="317" y="55"/>
      <point x="321" y="76"/>
      <point x="323" y="84" type="curve" smooth="yes"/>
      <point x="456" y="718" type="line"/>
      <point x="398" y="718" type="line"/>
      <point x="317" y="666" type="line" smooth="yes"/>
      <point x="252" y="617"/>
      <point x="212" y="589"/>
      <point x="117" y="589" type="curve"/>
      <point x="117" y="530"/>
      <point x="136" y="507"/>
      <point x="165" y="507" type="curve" smooth="yes"/>
      <point x="204" y="507"/>
      <point x="229" y="530"/>
      <point x="286" y="629" type="curve"/>
      <point x="288" y="629" type="line"/>
      <point x="276" y="588"/>
      <point x="254" y="502"/>
      <point x="246" y="461" type="curve" smooth="yes"/>
      <point x="166" y="70" type="line" smooth="yes"/>
      <point x="157" y="25"/>
      <point x="130" y="10"/>
      <point x="85" y="10" type="curve" smooth="yes"/>
      <point x="46" y="10" type="line"/>
    </contour>
  </outline>
</glyph>
<glyph name="two" format="2">
  <advance width="515"/>
  <unicode hex="0032"/>
  <outline>
    <contour>
      <point x="-8" y="0" type="line"/>
      <point x="414" y="0" type="line"/>
      <point x="462" y="239" type="line"/>
      <point x="454" y="239" type="line"/>
      <point x="439" y="183" type="line" smooth="yes"/>
      <point x="427" y="139"/>
      <point x="412" y="132"/>
      <point x="373" y="132" type="curve" smooth="yes"/>
      <point x="49" y="132" type="line"/>
      <point x="365" y="356" type="line" smooth="yes"/>
      <point x="472" y="432"/>
      <point x="520" y="488"/>
      <point x="520" y="579" type="curve" smooth="yes"/>
      <point x="520" y="662"/>
      <point x="447" y="724"/>
      <point x="322" y="724" type="curve" smooth="yes"/>
      <point x="194" y="724"/>
      <point x="125" y="659"/>
      <point x="125" y="573" type="curve" smooth="yes"/>
      <point x="125" y="504"/>
      <point x="176" y="471"/>
      <point x="242" y="471" type="curve"/>
      <point x="258" y="677"/>
      <point x="284" y="714"/>
      <point x="316" y="714" type="curve" smooth="yes"/>
      <point x="346" y="714"/>
      <point x="359" y="700"/>
      <point x="359" y="642" type="curve" smooth="yes"/>
      <point x="359" y="498"/>
      <point x="317" y="369"/>
      <point x="141" y="221" type="curve" smooth="yes"/>
      <point x="9" y="110" type="line"/>
    </contour>
  </outline>
</glyph>
<glyph name="three" format="2">
  <advance width="515"/>
  <unicode hex="0033"/>
  <outline>
    <contour>
      <point x="197" y="-10" type="curve" smooth="yes"/>
      <point x="358" y="-10"/>
      <point x="460" y="76"/>
      <point x="460" y="215" type="curve" smooth="yes"/>
      <point x="460" y="317"/>
      <point x="380" y="366"/>
      <point x="252" y="372" type="curve"/>
      <point x="376" y="386"/>
      <point x="513" y="431"/>
      <point x="513" y="571" type="curve" smooth="yes"/>
      <point x="513" y="675"/>
      <point x="438" y="724"/>
      <point x="332" y="724" type="curve" smooth="yes"/>
      <point x="174" y="724"/>
      <point x="112" y="644"/>
      <point x="112" y="575" type="curve" smooth="yes"/>
      <point x="112" y="523"/>
      <point x="159" y="508"/>
      <point x="234" y="508" type="curve"/>
      <point x="252" y="681"/>
      <point x="273" y="714"/>
      <point x="312" y="714" type="curve" smooth="yes"/>
      <point x="346" y="714"/>
      <point x="356" y="684"/>
      <point x="356" y="643" type="curve" smooth="yes"/>
      <point x="356" y="512"/>
      <point x="320" y="376"/>
      <point x="202" y="376" type="curve" smooth="yes"/>
      <point x="153" y="376" type="line"/>
      <point x="152" y="366" type="line"/>
      <point x="222" y="366" type="line" smooth="yes"/>
      <point x="276" y="366"/>
      <point x="300" y="328"/>
      <point x="300" y="249" type="curve" smooth="yes"/>
      <point x="300" y="147"/>
      <point x="265" y="0"/>
      <point x="200" y="0" type="curve" smooth="yes"/>
      <point x="140" y="0"/>
      <point x="124" y="56"/>
      <point x="124" y="208" type="curve"/>
      <point x="48" y="208"/>
      <point x="9" y="173"/>
      <point x="9" y="123" type="curve" smooth="yes"/>
      <point x="9" y="66"/>
      <point x="61" y="-10"/>
    </contour>
  </outline>
</glyph>
<glyph name="four" format="2">
  <advance width="515"/>
  <unicode hex="0034"/>
  <outline>
    <contour>
      <point x="121" y="0" type="line"/>
      <point x="425" y="0" type="line"/>
      <point x="427" y="10" type="line"/>
      <point x="419" y="10" type="line" smooth="yes"/>
      <point x="387" y="10"/>
      <point x="371" y="16"/>
      <point x="371" y="50" type="curve" smooth="yes"/>
      <point x="371" y="56"/>
      <point x="373" y="77"/>
      <point x="375" y="85" type="curve" smooth="yes"/>
      <point x="506" y="714" type="line"/>
      <point x="352" y="714" type="line"/>
      <point x="47" y="256" type="line"/>
      <point x="32" y="179" type="line"/>
      <point x="465" y="179" type="line"/>
      <point x="478" y="252" type="line"/>
      <point x="51" y="252" type="line"/>
      <point x="53" y="245" type="line"/>
      <point x="262" y="560" type="line" smooth="yes"/>
      <point x="291" y="604"/>
      <point x="325" y="651"/>
      <point x="354" y="700" type="curve"/>
      <point x="339" y="638"/>
      <point x="326" y="597"/>
      <point x="315" y="548" type="curve" smooth="yes"/>
      <point x="215" y="82" type="line" smooth="yes"/>
      <point x="203" y="27"/>
      <point x="185" y="10"/>
      <point x="144" y="10" type="curve" smooth="yes"/>
      <point x="123" y="10" type="line"/>
    </contour>
  </outline>
</glyph>
<glyph name="five" format="2">
  <advance width="515"/>
  <unicode hex="0035"/>
  <outline>
    <contour>
      <point x="185" y="-10" type="curve" smooth="yes"/>
      <point x="391" y="-10"/>
      <point x="464" y="127"/>
      <point x="464" y="254" type="curve" smooth="yes"/>
      <point x="464" y="376"/>
      <point x="389" y="439"/>
      <point x="266" y="439" type="curve" smooth="yes"/>
      <point x="210" y="439"/>
      <point x="137" y="422"/>
      <point x="105" y="375" type="curve"/>
      <point x="162" y="584" type="line"/>
      <point x="465" y="584" type="line" smooth="yes"/>
      <point x="483" y="584"/>
      <point x="487" y="574"/>
      <point x="487" y="558" type="curve" smooth="yes"/>
      <point x="487" y="550"/>
      <point x="485" y="526"/>
      <point x="484" y="509" type="curve"/>
      <point x="493" y="509" type="line"/>
      <point x="529" y="714" type="line"/>
      <point x="185" y="714" type="line"/>
      <point x="90" y="358" type="line"/>
      <point x="98" y="354" type="line"/>
      <point x="131" y="395"/>
      <point x="182" y="423"/>
      <point x="224" y="423" type="curve" smooth="yes"/>
      <point x="277" y="423"/>
      <point x="303" y="388"/>
      <point x="303" y="278" type="curve" smooth="yes"/>
      <point x="303" y="137"/>
      <point x="260" y="0"/>
      <point x="182" y="0" type="curve" smooth="yes"/>
      <point x="128" y="0"/>
      <point x="114" y="77"/>
      <point x="114" y="213" type="curve"/>
      <point x="50" y="213"/>
      <point x="21" y="169"/>
      <point x="21" y="120" type="curve" smooth="yes"/>
      <point x="21" y="49"/>
      <point x="68" y="-10"/>
    </contour>
  </outline>
</glyph>
<glyph name="six" format="2">
  <advance width="515"/>
  <unicode hex="0036"/>
  <outline>
    <contour>
      <point x="256" y="-10" type="curve" smooth="yes"/>
      <point x="420" y="-10"/>
      <point x="485" y="138"/>
      <point x="485" y="276" type="curve" smooth="yes"/>
      <point x="485" y="375"/>
      <point x="444" y="441"/>
      <point x="342" y="441" type="curve" smooth="yes"/>
      <point x="282" y="441"/>
      <point x="246" y="417"/>
      <point x="222" y="392" type="curve"/>
      <point x="255" y="610"/>
      <point x="314" y="714"/>
      <point x="365" y="714" type="curve" smooth="yes"/>
      <point x="410" y="714"/>
      <point x="413" y="648"/>
      <point x="413" y="525" type="curve"/>
      <point x="494" y="525"/>
      <point x="546" y="558"/>
      <point x="546" y="610" type="curve" smooth="yes"/>
      <point x="546" y="672"/>
      <point x="497" y="724"/>
      <point x="389" y="724" type="curve" smooth="yes"/>
      <point x="135" y="724"/>
      <point x="57" y="437"/>
      <point x="57" y="247" type="curve" smooth="yes"/>
      <point x="57" y="58"/>
      <point x="146" y="-10"/>
    </contour>
    <contour>
      <point x="251" y="0" type="curve" smooth="yes"/>
      <point x="224" y="0"/>
      <point x="203" y="34"/>
      <point x="203" y="149" type="curve" smooth="yes"/>
      <point x="203" y="247"/>
      <point x="212" y="329"/>
      <point x="221" y="380" type="curve"/>
      <point x="238" y="400"/>
      <point x="265" y="419"/>
      <point x="292" y="419" type="curve" smooth="yes"/>
      <point x="324" y="419"/>
      <point x="342" y="387"/>
      <point x="342" y="310" type="curve" smooth="yes"/>
      <point x="342" y="143"/>
      <point x="310" y="0"/>
    </contour>
  </outline>
</glyph>
<glyph name="seven" format="2">
  <advance width="515"/>
  <unicode hex="0037"/>
  <outline>
    <contour>
      <point x="78" y="0" type="line"/>
      <point x="211" y="0" type="line"/>
      <point x="534" y="649" type="line"/>
      <point x="545" y="714" type="line"/>
      <point x="140" y="714" type="line"/>
      <point x="88" y="483" type="line"/>
      <point x="98" y="483" type="line"/>
      <point x="112" y="533" type="line" smooth="yes"/>
      <point x="124" y="576"/>
      <point x="148" y="594"/>
      <point x="184" y="594" type="curve" smooth="yes"/>
      <point x="486" y="594" type="line"/>
    </contour>
  </outline>
</glyph>
<glyph name="eight" format="2">
  <advance width="515"/>
  <unicode hex="0038"/>
  <outline>
    <contour>
      <point x="243" y="-10" type="curve" smooth="yes"/>
      <point x="393" y="-10"/>
      <point x="477" y="79"/>
      <point x="477" y="205" type="curve" smooth="yes"/>
      <point x="477" y="312"/>
      <point x="405" y="364"/>
      <point x="347" y="404" type="curve"/>
      <point x="452" y="430"/>
      <point x="516" y="480"/>
      <point x="516" y="581" type="curve" smooth="yes"/>
      <point x="516" y="665"/>
      <point x="457" y="724"/>
      <point x="336" y="724" type="curve" smooth="yes"/>
      <point x="174" y="724"/>
      <point x="116" y="631"/>
      <point x="116" y="537" type="curve" smooth="yes"/>
      <point x="116" y="460"/>
      <point x="148" y="401"/>
      <point x="216" y="347" type="curve"/>
      <point x="89" y="318"/>
      <point x="34" y="259"/>
      <point x="34" y="159" type="curve" smooth="yes"/>
      <point x="34" y="59"/>
      <point x="108" y="-10"/>
    </contour>
    <contour>
      <point x="245" y="0" type="curve" smooth="yes"/>
      <point x="200" y="0"/>
      <point x="163" y="31"/>
      <point x="163" y="131" type="curve" smooth="yes"/>
      <point x="163" y="221"/>
      <point x="192" y="296"/>
      <point x="224" y="339" type="curve"/>
      <point x="287" y="292"/>
      <point x="343" y="246"/>
      <point x="343" y="162" type="curve" smooth="yes"/>
      <point x="343" y="73"/>
      <point x="307" y="0"/>
    </contour>
    <contour>
      <point x="340" y="412" type="curve"/>
      <point x="301" y="443"/>
      <point x="253" y="476"/>
      <point x="253" y="568" type="curve" smooth="yes"/>
      <point x="253" y="647"/>
      <point x="278" y="714"/>
      <point x="329" y="714" type="curve" smooth="yes"/>
      <point x="364" y="714"/>
      <point x="391" y="688"/>
      <point x="391" y="596" type="curve" smooth="yes"/>
      <point x="391" y="506"/>
      <point x="370" y="440"/>
    </contour>
  </outline>
</glyph>
<glyph name="nine" format="2">
  <advance width="515"/>
  <unicode hex="0039"/>
  <outline>
    <contour>
      <point x="175" y="-10" type="curve" smooth="yes"/>
      <point x="431" y="-10"/>
      <point x="508" y="296"/>
      <point x="508" y="486" type="curve" smooth="yes"/>
      <point x="508" y="643"/>
      <point x="432" y="724"/>
      <point x="316" y="724" type="curve" smooth="yes"/>
      <point x="150" y="724"/>
      <point x="82" y="583"/>
      <point x="82" y="444" type="curve" smooth="yes"/>
      <point x="82" y="347"/>
      <point x="128" y="275"/>
      <point x="218" y="275" type="curve" smooth="yes"/>
      <point x="275" y="275"/>
      <point x="319" y="304"/>
      <point x="343" y="337" type="curve"/>
      <point x="304" y="112"/>
      <point x="249" y="0"/>
      <point x="177" y="0" type="curve" smooth="yes"/>
      <point x="115" y="0"/>
      <point x="100" y="42"/>
      <point x="100" y="180" type="curve"/>
      <point x="51" y="180"/>
      <point x="22" y="152"/>
      <point x="22" y="103" type="curve" smooth="yes"/>
      <point x="22" y="38"/>
      <point x="69" y="-10"/>
    </contour>
    <contour>
      <point x="271" y="302" type="curve" smooth="yes"/>
      <point x="238" y="302"/>
      <point x="223" y="332"/>
      <point x="223" y="410" type="curve" smooth="yes"/>
      <point x="223" y="528"/>
      <point x="246" y="714"/>
      <point x="316" y="714" type="curve" smooth="yes"/>
      <point x="353" y="714"/>
      <point x="363" y="666"/>
      <point x="363" y="558" type="curve" smooth="yes"/>
      <point x="363" y="493"/>
      <point x="354" y="392"/>
      <point x="348" y="365" type="curve"/>
      <point x="330" y="336"/>
      <point x="305" y="302"/>
    </contour>
  </outline>
</glyph>
<glyph name="colon" format="2">
  <advance width="347"/>
  <unicode hex="003A"/>
  <outline>
    <contour>
      <point x="127" y="-8" type="curve" smooth="yes"/>
      <point x="169" y="-8"/>
      <point x="217" y="17"/>
      <point x="217" y="90" type="curve" smooth="yes"/>
      <point x="217" y="139"/>
      <point x="185" y="163"/>
      <point x="139" y="163" type="curve" smooth="yes"/>
      <point x="85" y="163"/>
      <point x="49" y="123"/>
      <point x="49" y="64" type="curve" smooth="yes"/>
      <point x="49" y="15"/>
      <point x="81" y="-8"/>
    </contour>
    <contour>
      <point x="210" y="371" type="curve" smooth="yes"/>
      <point x="252" y="371"/>
      <point x="300" y="396"/>
      <point x="300" y="469" type="curve" smooth="yes"/>
      <point x="300" y="518"/>
      <point x="268" y="542"/>
      <point x="222" y="542" type="curve" smooth="yes"/>
      <point x="168" y="542"/>
      <point x="132" y="502"/>
      <point x="132" y="443" type="curve" smooth="yes"/>
      <point x="132" y="394"/>
      <point x="164" y="371"/>
    </contour>
  </outline>
</glyph>
<glyph name="semicolon" format="2">
  <advance width="346"/>
  <unicode hex="003B"/>
  <outline>
    <contour>
      <point x="-16" y="-144" type="curve"/>
      <point x="-19" y="-155" type="line"/>
      <point x="129" y="-120"/>
      <point x="199" y="-36"/>
      <point x="199" y="74" type="curve" smooth="yes"/>
      <point x="199" y="130"/>
      <point x="170" y="161"/>
      <point x="118" y="161" type="curve" smooth="yes"/>
      <point x="79" y="161"/>
      <point x="53" y="135"/>
      <point x="53" y="95" type="curve" smooth="yes"/>
      <point x="53" y="26"/>
      <point x="105" y="29"/>
      <point x="105" y="-36" type="curve" smooth="yes"/>
      <point x="105" y="-100"/>
      <point x="43" y="-127"/>
    </contour>
    <contour>
      <point x="210" y="370" type="curve" smooth="yes"/>
      <point x="252" y="370"/>
      <point x="300" y="395"/>
      <point x="300" y="468" type="curve" smooth="yes"/>
      <point x="300" y="517"/>
      <point x="268" y="541"/>
      <point x="222" y="541" type="curve" smooth="yes"/>
      <point x="168" y="541"/>
      <point x="132" y="501"/>
      <point x="132" y="442" type="curve" smooth="yes"/>
      <point x="132" y="393"/>
      <point x="164" y="370"/>
    </contour>
  </outline>
</glyph>
<glyph name="question" format="2">
  <advance width="463"/>
  <unicode hex="003F"/>
  <outline>
    <contour>
      <point x="201" y="238" type="line"/>
      <point x="211" y="238" type="line"/>
      <point x="270" y="354" type="line"/>
      <point x="389" y="385"/>
      <point x="488" y="447"/>
      <point x="488" y="572" type="curve" smooth="yes"/>
      <point x="488" y="678"/>
      <point x="413" y="724"/>
      <point x="292" y="724" type="curve" smooth="yes"/>
      <point x="165" y="724"/>
      <point x="83" y="669"/>
      <point x="83" y="595" type="curve" smooth="yes"/>
      <point x="83" y="535"/>
      <point x="127" y="506"/>
      <point x="217" y="506" type="curve"/>
      <point x="217" y="673"/>
      <point x="239" y="714"/>
      <point x="279" y="714" type="curve" smooth="yes"/>
      <point x="306" y="714"/>
      <point x="329" y="704"/>
      <point x="329" y="606" type="curve" smooth="yes"/>
      <point x="329" y="486"/>
      <point x="314" y="384"/>
      <point x="166" y="354" type="curve"/>
    </contour>
    <contour>
      <point x="176" y="-8" type="curve" smooth="yes"/>
      <point x="218" y="-8"/>
      <point x="266" y="17"/>
      <point x="266" y="90" type="curve" smooth="yes"/>
      <point x="266" y="139"/>
      <point x="234" y="163"/>
      <point x="188" y="163" type="curve" smooth="yes"/>
      <point x="134" y="163"/>
      <point x="98" y="123"/>
      <point x="98" y="64" type="curve" smooth="yes"/>
      <point x="98" y="15"/>
      <point x="130" y="-8"/>
    </contour>
  </outline>
</glyph>
<glyph name="B" format="2">
  <advance width="585"/>
  <unicode hex="0042"/>
  <anchor x="207" y="0" name="bottom"/>
  <anchor x="359" y="714" name="top"/>
  <anchor x="626" y="714" name="topright"/>
  <outline>
    <contour>
      <point x="-45" y="0" type="line"/>
      <point x="239" y="0" type="line" smooth="yes"/>
      <point x="478" y="0"/>
      <point x="555" y="110"/>
      <point x="555" y="224" type="curve" smooth="yes"/>
      <point x="555" y="318"/>
      <point x="493" y="374"/>
      <point x="390" y="378" type="curve"/>
      <point x="391" y="382" type="line"/>
      <point x="522" y="395"/>
      <point x="601" y="458"/>
      <point x="601" y="571" type="curve" smooth="yes"/>
      <point x="601" y="664"/>
      <point x="538" y="714"/>
      <point x="406" y="714" type="curve" smooth="yes"/>
      <point x="105" y="714" type="line"/>
      <point x="103" y="704" type="line"/>
      <point x="113" y="704" type="line" smooth="yes"/>
      <point x="150" y="704"/>
      <point x="170" y="699"/>
      <point x="170" y="678" type="curve" smooth="yes"/>
      <point x="170" y="665"/>
      <point x="163" y="642"/>
      <point x="160" y="627" type="curve" smooth="yes"/>
      <point x="42" y="65" type="line" smooth="yes"/>
      <point x="32" y="17"/>
      <point x="1" y="10"/>
      <point x="-32" y="10" type="curve" smooth="yes"/>
      <point x="-42" y="10" type="line"/>
    </contour>
    <contour>
      <point x="202" y="10" type="line"/>
      <point x="279" y="375" type="line"/>
      <point x="296" y="375" type="line" smooth="yes"/>
      <point x="353" y="375"/>
      <point x="382" y="344"/>
      <point x="382" y="261" type="curve" smooth="yes"/>
      <point x="382" y="163"/>
      <point x="344" y="10"/>
      <point x="234" y="10" type="curve" smooth="yes"/>
    </contour>
    <contour>
      <point x="282" y="385" type="line"/>
      <point x="345" y="704" type="line"/>
      <point x="366" y="704" type="line" smooth="yes"/>
      <point x="399" y="704"/>
      <point x="430" y="684"/>
      <point x="430" y="615" type="curve" smooth="yes"/>
      <point x="430" y="511"/>
      <point x="390" y="385"/>
      <point x="305" y="385" type="curve" smooth="yes"/>
    </contour>
  </outline>
</glyph>
<glyph name="C" format="2">
  <advance width="580"/>
  <unicode hex="0043"/>
  <anchor x="286" y="0" name="bottom"/>
  <anchor x="438" y="714" name="top"/>
  <anchor x="635" y="714" name="topright"/>
  <outline>
    <contour>
      <point x="303" y="-10" type="curve" smooth="yes"/>
      <point x="452" y="-10"/>
      <point x="526" y="75"/>
      <point x="526" y="135" type="curve" smooth="yes"/>
      <point x="526" y="152"/>
      <point x="520" y="161"/>
      <point x="510" y="172" type="curve"/>
      <point x="481" y="88"/>
      <point x="439" y="5"/>
      <point x="360" y="5" type="curve" smooth="yes"/>
      <point x="277" y="5"/>
      <point x="233" y="87"/>
      <point x="233" y="244" type="curve" smooth="yes"/>
      <point x="233" y="442"/>
      <point x="305" y="717"/>
      <point x="413" y="717" type="curve" smooth="yes"/>
      <point x="463" y="717"/>
      <point x="472" y="647"/>
      <point x="472" y="513" type="curve"/>
      <point x="557" y="513"/>
      <point x="623" y="548"/>
      <point x="623" y="619" type="curve" smooth="yes"/>
      <point x="623" y="684"/>
      <point x="569" y="729"/>
      <point x="449" y="729" type="curve" smooth="yes"/>
      <point x="133" y="729"/>
      <point x="54" y="431"/>
      <point x="54" y="256" type="curve" smooth="yes"/>
      <point x="54" y="81"/>
      <point x="149" y="-10"/>
    </contour>
  </outline>
</glyph>
<glyph name="D" format="2">
  <advance width="665"/>
  <unicode hex="0044"/>
  <anchor x="249" y="0" name="bottom"/>
  <anchor x="344" y="357" name="center"/>
  <anchor x="401" y="714" name="top"/>
  <anchor x="710" y="714" name="topright"/>
  <outline>
    <contour>
      <point x="-45" y="0" type="line"/>
      <point x="269" y="0" type="line" smooth="yes"/>
      <point x="513" y="0"/>
      <point x="648" y="216"/>
      <point x="648" y="458" type="curve" smooth="yes"/>
      <point x="648" y="624"/>
      <point x="555" y="714"/>
      <point x="396" y="714" type="curve" smooth="yes"/>
      <point x="106" y="714" type="line"/>
      <point x="103" y="704" type="line"/>
      <point x="113" y="704" type="line" smooth="yes"/>
      <point x="150" y="704"/>
      <point x="170" y="699"/>
      <point x="170" y="679" type="curve" smooth="yes"/>
      <point x="170" y="668"/>
      <point x="165" y="650"/>
      <point x="161" y="631" type="curve" smooth="yes"/>
      <point x="43" y="65" type="line" smooth="yes"/>
      <point x="33" y="17"/>
      <point x="2" y="10"/>
      <point x="-30" y="10" type="curve" smooth="yes"/>
      <point x="-42" y="10" type="line"/>
    </contour>
    <contour>
      <point x="202" y="10" type="line"/>
      <point x="345" y="704" type="line"/>
      <point x="354" y="704" type="line" smooth="yes"/>
      <point x="443" y="704"/>
      <point x="467" y="622"/>
      <point x="467" y="498" type="curve" smooth="yes"/>
      <point x="467" y="239"/>
      <point x="363" y="10"/>
      <point x="209" y="10" type="curve" smooth="yes"/>
    </contour>
  </outline>
</glyph>
<glyph name="E" format="2">
  <advance width="519"/>
  <unicode hex="0045"/>
  <anchor x="190" y="0" name="bottom"/>
  <anchor x="377" y="714" name="top"/>
  <anchor x="593" y="714" name="topright"/>
  <outline>
    <contour>
      <point x="-45" y="0" type="line"/>
      <point x="452" y="0" type="line"/>
      <point x="487" y="143" type="line"/>
      <point x="477" y="143" type="line"/>
      <point x="461" y="92" type="line" smooth="yes"/>
      <point x="447" y="48"/>
      <point x="417" y="10"/>
      <point x="366" y="10" type="curve" smooth="yes"/>
      <point x="200" y="10" type="line"/>
      <point x="275" y="364" type="line"/>
      <point x="450" y="364" type="line"/>
      <point x="452" y="375" type="line"/>
      <point x="278" y="375" type="line"/>
      <point x="348" y="704" type="line"/>
      <point x="492" y="704" type="line" smooth="yes"/>
      <point x="532" y="704"/>
      <point x="546" y="685"/>
      <point x="546" y="645" type="curve" smooth="yes"/>
      <point x="546" y="626"/>
      <point x="540" y="580"/>
      <point x="539" y="571" type="curve"/>
      <point x="549" y="571" type="line"/>
      <point x="577" y="714" type="line"/>
      <point x="105" y="714" type="line"/>
      <point x="103" y="704" type="line"/>
      <point x="113" y="704" type="line" smooth="yes"/>
      <point x="148" y="704"/>
      <point x="171" y="698"/>
      <point x="171" y="673" type="curve" smooth="yes"/>
      <point x="171" y="664"/>
      <point x="168" y="649"/>
      <point x="165" y="637" type="curve" smooth="yes"/>
      <point x="41" y="67" type="line" smooth="yes"/>
      <point x="30" y="18"/>
      <point x="0" y="10"/>
      <point x="-33" y="10" type="curve" smooth="yes"/>
      <point x="-43" y="10" type="line"/>
    </contour>
  </outline>
</glyph>
<glyph name="F" format="2">
  <advance width="506"/>
  <unicode hex="0046"/>
  <anchor x="118" y="0" name="bottom"/>
  <anchor x="336" y="714" name="top"/>
  <anchor x="581" y="714" name="topright"/>
  <outline>
    <contour>
      <point x="-45" y="0" type="line"/>
      <point x="270" y="0" type="line"/>
      <point x="273" y="10" type="line"/>
      <point x="254" y="10" type="line" smooth="yes"/>
      <point x="227" y="10"/>
      <point x="208" y="14"/>
      <point x="208" y="38" type="curve" smooth="yes"/>
      <point x="208" y="47"/>
      <point x="209" y="54"/>
      <point x="213" y="72" type="curve" smooth="yes"/>
      <point x="273" y="348" type="line"/>
      <point x="464" y="348" type="line"/>
      <point x="466" y="358" type="line"/>
      <point x="276" y="358" type="line"/>
      <point x="347" y="704" type="line"/>
      <point x="499" y="704" type="line" smooth="yes"/>
      <point x="542" y="704"/>
      <point x="556" y="678"/>
      <point x="556" y="641" type="curve" smooth="yes"/>
      <point x="556" y="626"/>
      <point x="553" y="595"/>
      <point x="550" y="571" type="curve"/>
      <point x="560" y="571" type="line"/>
      <point x="588" y="714" type="line"/>
      <point x="105" y="714" type="line"/>
      <point x="103" y="704" type="line"/>
      <point x="113" y="704" type="line" smooth="yes"/>
      <point x="146" y="704"/>
      <point x="170" y="700"/>
      <point x="170" y="673" type="curve" smooth="yes"/>
      <point x="170" y="659"/>
      <point x="163" y="625"/>
      <point x="158" y="604" type="curve" smooth="yes"/>
      <point x="42" y="68" type="line" smooth="yes"/>
      <point x="31" y="19"/>
      <point x="1" y="10"/>
      <point x="-32" y="10" type="curve" smooth="yes"/>
      <point x="-42" y="10" type="line"/>
    </contour>
  </outline>
</glyph>
<glyph name="G" format="2">
  <advance width="691"/>
  <unicode hex="0047"/>
  <anchor x="302" y="0" name="bottom"/>
  <anchor x="454" y="714" name="top"/>
  <anchor x="766" y="714" name="topright"/>
  <outline>
    <contour>
      <point x="317" y="-10" type="curve" smooth="yes"/>
      <point x="384" y="-10"/>
      <point x="460" y="5"/>
      <point x="535" y="36" type="curve"/>
      <point x="586" y="278" type="line" smooth="yes"/>
      <point x="597" y="328"/>
      <point x="629" y="335"/>
      <point x="668" y="335" type="curve" smooth="yes"/>
      <point x="672" y="335" type="line"/>
      <point x="674" y="345" type="line"/>
      <point x="353" y="345" type="line"/>
      <point x="350" y="335" type="line"/>
      <point x="364" y="335" type="line" smooth="yes"/>
      <point x="400" y="335"/>
      <point x="421" y="330"/>
      <point x="421" y="308" type="curve" smooth="yes"/>
      <point x="421" y="299"/>
      <point x="418" y="286"/>
      <point x="414" y="267" type="curve" smooth="yes"/>
      <point x="357" y="5" type="line"/>
      <point x="342" y="1"/>
      <point x="332" y="0"/>
      <point x="320" y="0" type="curve" smooth="yes"/>
      <point x="247" y="0"/>
      <point x="231" y="87"/>
      <point x="231" y="217" type="curve" smooth="yes"/>
      <point x="231" y="357"/>
      <point x="286" y="714"/>
      <point x="445" y="714" type="curve" smooth="yes"/>
      <point x="502" y="714"/>
      <point x="518" y="622"/>
      <point x="518" y="503" type="curve"/>
      <point x="602" y="503"/>
      <point x="670" y="541"/>
      <point x="670" y="604" type="curve" smooth="yes"/>
      <point x="670" y="663"/>
      <point x="602" y="724"/>
      <point x="471" y="724" type="curve" smooth="yes"/>
      <point x="136" y="724"/>
      <point x="56" y="444"/>
      <point x="56" y="275" type="curve" smooth="yes"/>
      <point x="56" y="88"/>
      <point x="142" y="-10"/>
    </contour>
  </outline>
</glyph>
<glyph name="H" format="2">
  <advance width="689"/>
  <unicode hex="0048"/>
  <anchor x="260" y="0" name="bottom"/>
  <anchor x="336" y="357" name="center"/>
  <anchor x="412" y="714" name="top"/>
  <anchor x="736" y="714" name="topright"/>
  <outline>
    <contour>
      <point x="-45" y="0" type="line"/>
      <point x="267" y="0" type="line"/>
      <point x="270" y="10" type="line"/>
      <point x="259" y="10" type="line" smooth="yes"/>
      <point x="218" y="10"/>
      <point x="209" y="18"/>
      <point x="209" y="37" type="curve" smooth="yes"/>
      <point x="209" y="46"/>
      <point x="211" y="57"/>
      <point x="214" y="70" type="curve" smooth="yes"/>
      <point x="276" y="365" type="line"/>
      <point x="441" y="365" type="line"/>
      <point x="380" y="67" type="line" smooth="yes"/>
      <point x="370" y="17"/>
      <point x="341" y="10"/>
      <point x="312" y="10" type="curve" smooth="yes"/>
      <point x="301" y="10" type="line"/>
      <point x="298" y="0" type="line"/>
      <point x="611" y="0" type="line"/>
      <point x="614" y="10" type="line"/>
      <point x="603" y="10" type="line" smooth="yes"/>
      <point x="554" y="10"/>
      <point x="545" y="22"/>
      <point x="545" y="37" type="curve" smooth="yes"/>
      <point x="545" y="46"/>
      <point x="548" y="56"/>
      <point x="551" y="72" type="curve" smooth="yes"/>
      <point x="672" y="647" type="line" smooth="yes"/>
      <point x="683" y="697"/>
      <point x="716" y="704"/>
      <point x="750" y="704" type="curve" smooth="yes"/>
      <point x="760" y="704" type="line"/>
      <point x="762" y="714" type="line"/>
      <point x="449" y="714" type="line"/>
      <point x="447" y="704" type="line"/>
      <point x="458" y="704" type="line" smooth="yes"/>
      <point x="500" y="704"/>
      <point x="509" y="694"/>
      <point x="509" y="679" type="curve" smooth="yes"/>
      <point x="509" y="669"/>
      <point x="506" y="659"/>
      <point x="502" y="642" type="curve" smooth="yes"/>
      <point x="443" y="375" type="line"/>
      <point x="279" y="375" type="line"/>
      <point x="336" y="647" type="line" smooth="yes"/>
      <point x="347" y="697"/>
      <point x="375" y="704"/>
      <point x="406" y="704" type="curve" smooth="yes"/>
      <point x="416" y="704" type="line"/>
      <point x="418" y="714" type="line"/>
      <point x="105" y="714" type="line"/>
      <point x="104" y="704" type="line"/>
      <point x="114" y="704" type="line" smooth="yes"/>
      <point x="164" y="704"/>
      <point x="172" y="695"/>
      <point x="172" y="679" type="curve" smooth="yes"/>
      <point x="172" y="671"/>
      <point x="170" y="658"/>
      <point x="165" y="636" type="curve" smooth="yes"/>
      <point x="43" y="65" type="line" smooth="yes"/>
      <point x="33" y="17"/>
      <point x="2" y="10"/>
      <point x="-31" y="10" type="curve" smooth="yes"/>
      <point x="-42" y="10" type="line"/>
    </contour>
  </outline>
</glyph>
<glyph name="I" format="2">
  <advance width="353"/>
  <unicode hex="0049"/>
  <anchor x="96" y="0" name="bottom"/>
  <anchor x="248" y="714" name="top"/>
  <anchor x="404" y="714" name="topright"/>
  <outline>
    <contour>
      <point x="-45" y="0" type="line"/>
      <point x="276" y="0" type="line"/>
      <point x="278" y="10" type="line"/>
      <point x="267" y="10" type="line" smooth="yes"/>
      <point x="233" y="10"/>
      <point x="210" y="14"/>
      <point x="210" y="40" type="curve" smooth="yes"/>
      <point x="210" y="52"/>
      <point x="213" y="66"/>
      <point x="218" y="89" type="curve" smooth="yes"/>
      <point x="337" y="647" type="line" smooth="yes"/>
      <point x="348" y="697"/>
      <point x="378" y="704"/>
      <point x="414" y="704" type="curve" smooth="yes"/>
      <point x="425" y="704" type="line"/>
      <point x="427" y="714" type="line"/>
      <point x="105" y="714" type="line"/>
      <point x="103" y="704" type="line"/>
      <point x="113" y="704" type="line" smooth="yes"/>
      <point x="148" y="704"/>
      <point x="171" y="700"/>
      <point x="171" y="674" type="curve" smooth="yes"/>
      <point x="171" y="668"/>
      <point x="170" y="657"/>
      <point x="165" y="636" type="curve" smooth="yes"/>
      <point x="42" y="65" type="line" smooth="yes"/>
      <point x="32" y="17"/>
      <point x="1" y="10"/>
      <point x="-32" y="10" type="curve" smooth="yes"/>
      <point x="-42" y="10" type="line"/>
    </contour>
  </outline>
</glyph>
<glyph name="J" format="2">
  <advance width="364"/>
  <unicode hex="004A"/>
  <anchor x="-65" y="-240" name="bottom"/>
  <anchor x="275" y="714" name="top"/>
  <anchor x="435" y="714" name="topright"/>
  <outline>
    <contour>
      <point x="-65" y="-240" type="curve" smooth="yes"/>
      <point x="64" y="-240"/>
      <point x="188" y="-179"/>
      <point x="226" y="-1" type="curve" smooth="yes"/>
      <point x="363" y="647" type="line" smooth="yes"/>
      <point x="374" y="697"/>
      <point x="406" y="704"/>
      <point x="442" y="704" type="curve" smooth="yes"/>
      <point x="452" y="704" type="line"/>
      <point x="454" y="714" type="line"/>
      <point x="132" y="714" type="line"/>
      <point x="130" y="704" type="line"/>
      <point x="141" y="704" type="line" smooth="yes"/>
      <point x="174" y="704"/>
      <point x="198" y="700"/>
      <point x="198" y="677" type="curve" smooth="yes"/>
      <point x="198" y="668"/>
      <point x="195" y="658"/>
      <point x="194" y="651" type="curve" smooth="yes"/>
      <point x="57" y="-1" type="line" smooth="yes"/>
      <point x="27" y="-184"/>
      <point x="-17" y="-230"/>
      <point x="-70" y="-230" type="curve" smooth="yes"/>
      <point x="-90" y="-230"/>
      <point x="-116" y="-228"/>
      <point x="-137" y="-219" type="curve"/>
      <point x="-140" y="-229" type="line"/>
      <point x="-118" y="-236"/>
      <point x="-96" y="-240"/>
    </contour>
  </outline>
</glyph>
<glyph name="K" format="2">
  <advance width="620"/>
  <unicode hex="004B"/>
  <anchor x="237" y="0" name="bottom"/>
  <anchor x="389" y="714" name="top"/>
  <anchor x="686" y="714" name="topright"/>
  <outline>
    <contour>
      <point x="-45" y="0" type="line"/>
      <point x="276" y="0" type="line"/>
      <point x="279" y="10" type="line"/>
      <point x="268" y="10" type="line" smooth="yes"/>
      <point x="234" y="10"/>
      <point x="209" y="14"/>
      <point x="209" y="40" type="curve" smooth="yes"/>
      <point x="209" y="52"/>
      <point x="213" y="67"/>
      <point x="216" y="80" type="curve" smooth="yes"/>
      <point x="271" y="325" type="line"/>
      <point x="294" y="349" type="line"/>
      <point x="277" y="336" type="line"/>
      <point x="321" y="172" type="line" smooth="yes"/>
      <point x="364" y="11"/>
      <point x="388" y="0"/>
      <point x="503" y="0" type="curve" smooth="yes"/>
      <point x="573" y="0" type="line"/>
      <point x="575" y="10" type="line"/>
      <point x="572" y="10" type="line" smooth="yes"/>
      <point x="554" y="10"/>
      <point x="547" y="45"/>
      <point x="510" y="169" type="curve" smooth="yes"/>
      <point x="416" y="485" type="line"/>
      <point x="356" y="408" type="line"/>
      <point x="561" y="626" type="line" smooth="yes"/>
      <point x="614" y="682"/>
      <point x="652" y="704"/>
      <point x="700" y="704" type="curve"/>
      <point x="703" y="714" type="line"/>
      <point x="446" y="714" type="line"/>
      <point x="444" y="704" type="line"/>
      <point x="471" y="704"/>
      <point x="531" y="704"/>
      <point x="531" y="659" type="curve" smooth="yes"/>
      <point x="531" y="631"/>
      <point x="523" y="601"/>
      <point x="466" y="542" type="curve" smooth="yes"/>
      <point x="274" y="342" type="line"/>
      <point x="336" y="647" type="line" smooth="yes"/>
      <point x="346" y="697"/>
      <point x="375" y="704"/>
      <point x="406" y="704" type="curve" smooth="yes"/>
      <point x="416" y="704" type="line"/>
      <point x="418" y="714" type="line"/>
      <point x="105" y="714" type="line"/>
      <point x="104" y="704" type="line"/>
      <point x="114" y="704" type="line" smooth="yes"/>
      <point x="148" y="704"/>
      <point x="172" y="700"/>
      <point x="172" y="674" type="curve" smooth="yes"/>
      <point x="172" y="668"/>
      <point x="170" y="659"/>
      <point x="165" y="636" type="curve" smooth="yes"/>
      <point x="43" y="65" type="line" smooth="yes"/>
      <point x="33" y="17"/>
      <point x="1" y="10"/>
      <point x="-31" y="10" type="curve" smooth="yes"/>
      <point x="-41" y="10" type="line"/>
    </contour>
  </outline>
</glyph>
<glyph name="M" format="2">
  <advance width="790"/>
  <unicode hex="004D"/>
  <anchor x="313" y="0" name="bottom"/>
  <anchor x="475" y="714" name="top"/>
  <anchor x="838" y="714" name="topright"/>
  <outline>
    <contour>
      <point x="-44" y="0" type="line"/>
      <point x="163" y="0" type="line"/>
      <point x="165" y="10" type="line"/>
      <point x="127" y="10" type="line" smooth="yes"/>
      <point x="100" y="10"/>
      <point x="76" y="14"/>
      <point x="76" y="40" type="curve" smooth="yes"/>
      <point x="76" y="46"/>
      <point x="78" y="56"/>
      <point x="82" y="74" type="curve" smooth="yes"/>
      <point x="205" y="677" type="line"/>
      <point x="245" y="0" type="line"/>
      <point x="314" y="0" type="line"/>
      <point x="615" y="677" type="line"/>
      <point x="484" y="70" type="line" smooth="yes"/>
      <point x="473" y="19"/>
      <point x="433" y="10"/>
      <point x="398" y="10" type="curve" smooth="yes"/>
      <point x="381" y="10" type="line"/>
      <point x="379" y="0" type="line"/>
      <point x="712" y="0" type="line"/>
      <point x="715" y="10" type="line"/>
      <point x="704" y="10" type="line" smooth="yes"/>
      <point x="670" y="10"/>
      <point x="646" y="14"/>
      <point x="646" y="40" type="curve" smooth="yes"/>
      <point x="646" y="49"/>
      <point x="649" y="61"/>
      <point x="652" y="76" type="curve" smooth="yes"/>
      <point x="774" y="647" type="line" smooth="yes"/>
      <point x="785" y="697"/>
      <point x="817" y="704"/>
      <point x="851" y="704" type="curve" smooth="yes"/>
      <point x="861" y="704" type="line"/>
      <point x="863" y="714" type="line"/>
      <point x="620" y="714" type="line"/>
      <point x="397" y="214" type="line"/>
      <point x="372" y="714" type="line"/>
      <point x="106" y="714" type="line"/>
      <point x="103" y="704" type="line"/>
      <point x="136" y="704" type="line" smooth="yes"/>
      <point x="170" y="704"/>
      <point x="193" y="700"/>
      <point x="193" y="677" type="curve" smooth="yes"/>
      <point x="193" y="668"/>
      <point x="191" y="660"/>
      <point x="186" y="636" type="curve" smooth="yes"/>
      <point x="69" y="67" type="line" smooth="yes"/>
      <point x="59" y="18"/>
      <point x="27" y="10"/>
      <point x="-6" y="10" type="curve" smooth="yes"/>
      <point x="-43" y="10" type="line"/>
    </contour>
  </outline>
</glyph>
<glyph name="N" format="2">
  <advance width="659"/>
  <unicode hex="004E"/>
  <anchor x="250" y="0" name="bottom"/>
  <anchor x="436" y="714" name="top"/>
  <anchor x="712" y="714" name="topright"/>
  <outline>
    <contour>
      <point x="-44" y="0" type="line"/>
      <point x="164" y="0" type="line"/>
      <point x="166" y="10" type="line"/>
      <point x="160" y="10" type="line" smooth="yes"/>
      <point x="110" y="10"/>
      <point x="80" y="17"/>
      <point x="80" y="41" type="curve" smooth="yes"/>
      <point x="80" y="49"/>
      <point x="81" y="57"/>
      <point x="85" y="77" type="curve" smooth="yes"/>
      <point x="210" y="663" type="line"/>
      <point x="422" y="0" type="line"/>
      <point x="492" y="0" type="line"/>
      <point x="629" y="653" type="line" smooth="yes"/>
      <point x="639" y="699"/>
      <point x="677" y="704"/>
      <point x="717" y="704" type="curve" smooth="yes"/>
      <point x="742" y="704" type="line"/>
      <point x="744" y="714" type="line"/>
      <point x="536" y="714" type="line"/>
      <point x="534" y="704" type="line"/>
      <point x="555" y="704" type="line" smooth="yes"/>
      <point x="601" y="704"/>
      <point x="618" y="694"/>
      <point x="618" y="667" type="curve" smooth="yes"/>
      <point x="618" y="660"/>
      <point x="617" y="651"/>
      <point x="615" y="641" type="curve" smooth="yes"/>
      <point x="519" y="180" type="line"/>
      <point x="358" y="714" type="line"/>
      <point x="105" y="714" type="line"/>
      <point x="103" y="704" type="line"/>
      <point x="129" y="704" type="line" smooth="yes"/>
      <point x="171" y="704"/>
      <point x="201" y="700"/>
      <point x="201" y="674" type="curve" smooth="yes"/>
      <point x="201" y="667"/>
      <point x="198" y="656"/>
      <point x="194" y="636" type="curve" smooth="yes"/>
      <point x="71" y="61" type="line" smooth="yes"/>
      <point x="62" y="17"/>
      <point x="23" y="10"/>
      <point x="-18" y="10" type="curve" smooth="yes"/>
      <point x="-43" y="10" type="line"/>
    </contour>
  </outline>
</glyph>
<glyph name="O" format="2">
  <advance width="685"/>
  <unicode hex="004F"/>
  <anchor x="269" y="0" name="bottom"/>
  <anchor x="364" y="357" name="center"/>
  <anchor x="421" y="714" name="top"/>
  <anchor x="743" y="714" name="topright"/>
  <outline>
    <contour>
      <point x="290" y="-11" type="curve" smooth="yes"/>
      <point x="547" y="-11"/>
      <point x="670" y="238"/>
      <point x="670" y="466" type="curve" smooth="yes"/>
      <point x="670" y="650"/>
      <point x="567" y="725"/>
      <point x="432" y="725" type="curve" smooth="yes"/>
      <point x="185" y="725"/>
      <point x="53" y="499"/>
      <point x="53" y="250" type="curve" smooth="yes"/>
      <point x="53" y="80"/>
      <point x="148" y="-11"/>
    </contour>
    <contour>
      <point x="313" y="-1" type="curve" smooth="yes"/>
      <point x="264" y="-1"/>
      <point x="226" y="59"/>
      <point x="226" y="216" type="curve" smooth="yes"/>
      <point x="226" y="387"/>
      <point x="292" y="715"/>
      <point x="422" y="715" type="curve" smooth="yes"/>
      <point x="475" y="715"/>
      <point x="497" y="659"/>
      <point x="497" y="520" type="curve" smooth="yes"/>
      <point x="497" y="327"/>
      <point x="436" y="-1"/>
    </contour>
  </outline>
</glyph>
<glyph name="P" format="2">
  <advance width="558"/>
  <unicode hex="0050"/>
  <anchor x="118" y="0" name="bottom"/>
  <anchor x="358" y="714" name="top"/>
  <anchor x="624" y="714" name="topright"/>
  <outline>
    <contour>
      <point x="-45" y="0" type="line"/>
      <point x="291" y="0" type="line"/>
      <point x="294" y="10" type="line"/>
      <point x="267" y="10" type="line" smooth="yes"/>
      <point x="233" y="10"/>
      <point x="207" y="14"/>
      <point x="207" y="40" type="curve" smooth="yes"/>
      <point x="207" y="48"/>
      <point x="211" y="66"/>
      <point x="215" y="82" type="curve" smooth="yes"/>
      <point x="264" y="295" type="line"/>
      <point x="337" y="295" type="line" smooth="yes"/>
      <point x="503" y="295"/>
      <point x="592" y="389"/>
      <point x="592" y="533" type="curve" smooth="yes"/>
      <point x="592" y="656"/>
      <point x="510" y="714"/>
      <point x="371" y="714" type="curve" smooth="yes"/>
      <point x="105" y="714" type="line"/>
      <point x="103" y="704" type="line"/>
      <point x="114" y="704" type="line" smooth="yes"/>
      <point x="148" y="704"/>
      <point x="171" y="700"/>
      <point x="171" y="674" type="curve" smooth="yes"/>
      <point x="171" y="667"/>
      <point x="169" y="656"/>
      <point x="164" y="635" type="curve" smooth="yes"/>
      <point x="42" y="65" type="line" smooth="yes"/>
      <point x="32" y="17"/>
      <point x="0" y="10"/>
      <point x="-33" y="10" type="curve" smooth="yes"/>
      <point x="-43" y="10" type="line"/>
    </contour>
    <contour>
      <point x="292" y="305" type="curve" smooth="yes"/>
      <point x="267" y="305" type="line"/>
      <point x="351" y="704" type="line"/>
      <point x="360" y="704" type="line" smooth="yes"/>
      <point x="413" y="704"/>
      <point x="433" y="658"/>
      <point x="433" y="576" type="curve" smooth="yes"/>
      <point x="433" y="472"/>
      <point x="398" y="305"/>
    </contour>
  </outline>
</glyph>
<glyph name="Q" format="2">
  <advance width="672"/>
  <unicode hex="0051"/>
  <anchor x="215" y="-237" name="bottom"/>
  <anchor x="360" y="357" name="center"/>
  <anchor x="417" y="714" name="top"/>
  <anchor x="735" y="714" name="topright"/>
  <outline>
    <contour>
      <point x="391" y="-237" type="curve" smooth="yes"/>
      <point x="417" y="-237"/>
      <point x="438" y="-234"/>
      <point x="474" y="-219" type="curve"/>
      <point x="473" y="-210" type="line"/>
      <point x="468" y="-212"/>
      <point x="466" y="-212"/>
      <point x="461" y="-212" type="curve" smooth="yes"/>
      <point x="430" y="-212"/>
      <point x="394" y="-143"/>
      <point x="391" y="3" type="curve"/>
      <point x="579" y="59"/>
      <point x="670" y="270"/>
      <point x="670" y="466" type="curve" smooth="yes"/>
      <point x="670" y="650"/>
      <point x="567" y="725"/>
      <point x="432" y="725" type="curve" smooth="yes"/>
      <point x="185" y="725"/>
      <point x="53" y="499"/>
      <point x="53" y="250" type="curve" smooth="yes"/>
      <point x="53" y="115"/>
      <point x="113" y="30"/>
      <point x="209" y="0" type="curve"/>
      <point x="212" y="-179"/>
      <point x="301" y="-237"/>
    </contour>
    <contour>
      <point x="313" y="-1" type="curve" smooth="yes"/>
      <point x="264" y="-1"/>
      <point x="226" y="59"/>
      <point x="226" y="216" type="curve" smooth="yes"/>
      <point x="226" y="387"/>
      <point x="292" y="715"/>
      <point x="422" y="715" type="curve" smooth="yes"/>
      <point x="475" y="715"/>
      <point x="497" y="659"/>
      <point x="497" y="520" type="curve" smooth="yes"/>
      <point x="497" y="327"/>
      <point x="436" y="-1"/>
    </contour>
  </outline>
</glyph>
<glyph name="R" format="2">
  <advance width="622"/>
  <unicode hex="0052"/>
  <anchor x="225" y="0" name="bottom"/>
  <anchor x="367" y="714" name="top"/>
  <anchor x="661" y="714" name="topright"/>
  <outline>
    <contour>
      <point x="-44" y="0" type="line"/>
      <point x="292" y="0" type="line"/>
      <point x="295" y="10" type="line"/>
      <point x="269" y="10" type="line" smooth="yes"/>
      <point x="235" y="10"/>
      <point x="209" y="14"/>
      <point x="209" y="36" type="curve" smooth="yes"/>
      <point x="209" y="47"/>
      <point x="212" y="59"/>
      <point x="218" y="86" type="curve" smooth="yes"/>
      <point x="270" y="333" type="line"/>
      <point x="304" y="333" type="line"/>
      <point x="345" y="113" type="line" smooth="yes"/>
      <point x="363" y="17"/>
      <point x="435" y="0"/>
      <point x="560" y="0" type="curve" smooth="yes"/>
      <point x="575" y="0" type="line"/>
      <point x="577" y="10" type="line"/>
      <point x="570" y="10" type="line" smooth="yes"/>
      <point x="541" y="10"/>
      <point x="526" y="87"/>
      <point x="502" y="176" type="curve" smooth="yes"/>
      <point x="459" y="339" type="line"/>
      <point x="528" y="359"/>
      <point x="607" y="417"/>
      <point x="607" y="557" type="curve" smooth="yes"/>
      <point x="607" y="663"/>
      <point x="542" y="714"/>
      <point x="412" y="714" type="curve" smooth="yes"/>
      <point x="106" y="714" type="line"/>
      <point x="103" y="704" type="line"/>
      <point x="114" y="704" type="line" smooth="yes"/>
      <point x="148" y="704"/>
      <point x="171" y="700"/>
      <point x="171" y="674" type="curve" smooth="yes"/>
      <point x="171" y="668"/>
      <point x="169" y="659"/>
      <point x="164" y="636" type="curve" smooth="yes"/>
      <point x="44" y="67" type="line" smooth="yes"/>
      <point x="34" y="18"/>
      <point x="2" y="10"/>
      <point x="-31" y="10" type="curve" smooth="yes"/>
      <point x="-42" y="10" type="line"/>
    </contour>
    <contour>
      <point x="271" y="343" type="line"/>
      <point x="352" y="704" type="line"/>
      <point x="362" y="704" type="line" smooth="yes"/>
      <point x="425" y="704"/>
      <point x="431" y="625"/>
      <point x="431" y="573" type="curve" smooth="yes"/>
      <point x="431" y="421"/>
      <point x="374" y="343"/>
      <point x="294" y="343" type="curve" smooth="yes"/>
    </contour>
  </outline>
</glyph>
<glyph name="S" format="2">
  <advance width="509"/>
  <unicode hex="0053"/>
  <anchor x="198" y="0" name="bottom"/>
  <anchor x="350" y="714" name="top"/>
  <anchor x="584" y="714" name="topright"/>
  <outline>
    <contour>
      <point x="227" y="-10" type="curve" smooth="yes"/>
      <point x="384" y="-10"/>
      <point x="479" y="77"/>
      <point x="479" y="224" type="curve" smooth="yes"/>
      <point x="479" y="309"/>
      <point x="447" y="371"/>
      <point x="366" y="425" type="curve" smooth="yes"/>
      <point x="292" y="474"/>
      <point x="256" y="500"/>
      <point x="256" y="586" type="curve" smooth="yes"/>
      <point x="256" y="661"/>
      <point x="283" y="714"/>
      <point x="330" y="714" type="curve" smooth="yes"/>
      <point x="397" y="714"/>
      <point x="407" y="603"/>
      <point x="407" y="517" type="curve"/>
      <point x="502" y="517"/>
      <point x="541" y="555"/>
      <point x="541" y="608" type="curve" smooth="yes"/>
      <point x="541" y="674"/>
      <point x="481" y="724"/>
      <point x="353" y="724" type="curve" smooth="yes"/>
      <point x="198" y="724"/>
      <point x="109" y="634"/>
      <point x="109" y="498" type="curve" smooth="yes"/>
      <point x="109" y="382"/>
      <point x="173" y="336"/>
      <point x="242" y="287" type="curve" smooth="yes"/>
      <point x="306" y="242"/>
      <point x="335" y="213"/>
      <point x="335" y="130" type="curve" smooth="yes"/>
      <point x="335" y="67"/>
      <point x="320" y="0"/>
      <point x="248" y="0" type="curve" smooth="yes"/>
      <point x="176" y="0"/>
      <point x="162" y="66"/>
      <point x="162" y="237" type="curve"/>
      <point x="76" y="237"/>
      <point x="22" y="203"/>
      <point x="22" y="132" type="curve" smooth="yes"/>
      <point x="22" y="50"/>
      <point x="96" y="-10"/>
    </contour>
  </outline>
</glyph>
<glyph name="T" format="2">
  <advance width="562"/>
  <unicode hex="0054"/>
  <anchor x="207" y="0" name="bottom"/>
  <anchor x="302" y="357" name="center"/>
  <anchor x="359" y="714" name="top"/>
  <anchor x="620" y="714" name="topright"/>
  <outline>
    <contour>
      <point x="77" y="0" type="line"/>
      <point x="382" y="0" type="line"/>
      <point x="384" y="10" type="line"/>
      <point x="381" y="10" type="line" smooth="yes"/>
      <point x="347" y="10"/>
      <point x="322" y="14"/>
      <point x="322" y="40" type="curve" smooth="yes"/>
      <point x="322" y="47"/>
      <point x="325" y="59"/>
      <point x="329" y="80" type="curve" smooth="yes"/>
      <point x="461" y="704" type="line"/>
      <point x="503" y="704" type="line" smooth="yes"/>
      <point x="582" y="704"/>
      <point x="619" y="670"/>
      <point x="619" y="612" type="curve" smooth="yes"/>
      <point x="619" y="600"/>
      <point x="613" y="568"/>
      <point x="609" y="545" type="curve"/>
      <point x="619" y="545" type="line"/>
      <point x="652" y="714" type="line"/>
      <point x="101" y="714" type="line"/>
      <point x="61" y="545" type="line"/>
      <point x="71" y="545" type="line"/>
      <point x="81" y="584" type="line" smooth="yes"/>
      <point x="97" y="647"/>
      <point x="158" y="704"/>
      <point x="242" y="704" type="curve" smooth="yes"/>
      <point x="287" y="704" type="line"/>
      <point x="157" y="67" type="line" smooth="yes"/>
      <point x="147" y="18"/>
      <point x="115" y="10"/>
      <point x="83" y="10" type="curve" smooth="yes"/>
      <point x="79" y="10" type="line"/>
    </contour>
  </outline>
</glyph>
<glyph name="U" format="2">
  <advance width="633"/>
  <unicode hex="0055"/>
  <anchor x="245" y="0" name="bottom"/>
  <anchor x="437" y="714" name="top"/>
  <anchor x="768" y="714" name="topright"/>
  <outline>
    <contour>
      <point x="291" y="-10" type="curve" smooth="yes"/>
      <point x="435" y="-10"/>
      <point x="493" y="86"/>
      <point x="525" y="239" type="curve" smooth="yes"/>
      <point x="610" y="647" type="line" smooth="yes"/>
      <point x="620" y="697"/>
      <point x="670" y="704"/>
      <point x="715" y="704" type="curve" smooth="yes"/>
      <point x="726" y="704" type="line"/>
      <point x="728" y="714" type="line"/>
      <point x="506" y="714" type="line"/>
      <point x="504" y="704" type="line"/>
      <point x="514" y="704" type="line" smooth="yes"/>
      <point x="565" y="704"/>
      <point x="605" y="700"/>
      <point x="605" y="674" type="curve" smooth="yes"/>
      <point x="605" y="668"/>
      <point x="603" y="654"/>
      <point x="600" y="642" type="curve" smooth="yes"/>
      <point x="518" y="255" type="line" smooth="yes"/>
      <point x="483" y="89"/>
      <point x="424" y="4"/>
      <point x="318" y="4" type="curve" smooth="yes"/>
      <point x="282" y="4"/>
      <point x="252" y="25"/>
      <point x="252" y="100" type="curve" smooth="yes"/>
      <point x="252" y="144"/>
      <point x="267" y="230"/>
      <point x="272" y="251" type="curve" smooth="yes"/>
      <point x="357" y="649" type="line" smooth="yes"/>
      <point x="367" y="697"/>
      <point x="399" y="704"/>
      <point x="435" y="704" type="curve" smooth="yes"/>
      <point x="448" y="704" type="line"/>
      <point x="450" y="714" type="line"/>
      <point x="126" y="714" type="line"/>
      <point x="123" y="704" type="line"/>
      <point x="133" y="704" type="line" smooth="yes"/>
      <point x="167" y="704"/>
      <point x="191" y="700"/>
      <point x="191" y="678" type="curve" smooth="yes"/>
      <point x="191" y="668"/>
      <point x="188" y="659"/>
      <point x="183" y="636" type="curve" smooth="yes"/>
      <point x="101" y="252" type="line" smooth="yes"/>
      <point x="96" y="228"/>
      <point x="89" y="180"/>
      <point x="89" y="155" type="curve" smooth="yes"/>
      <point x="89" y="50"/>
      <point x="160" y="-10"/>
    </contour>
  </outline>
</glyph>
<glyph name="X" format="2">
  <advance width="651"/>
  <unicode hex="0058"/>
  <anchor x="269" y="0" name="bottom"/>
  <anchor x="421" y="714" name="top"/>
  <anchor x="776" y="714" name="topright"/>
  <outline>
    <contour>
      <point x="-29" y="0" type="line"/>
      <point x="187" y="0" type="line"/>
      <point x="189" y="10" type="line"/>
      <point x="182" y="10" type="line" smooth="yes"/>
      <point x="153" y="10"/>
      <point x="113" y="13"/>
      <point x="113" y="38" type="curve" smooth="yes"/>
      <point x="113" y="58"/>
      <point x="128" y="82"/>
      <point x="148" y="107" type="curve" smooth="yes"/>
      <point x="355" y="356" type="line"/>
      <point x="305" y="300" type="line"/>
      <point x="365" y="111" type="line" smooth="yes"/>
      <point x="372" y="88"/>
      <point x="376" y="72"/>
      <point x="376" y="55" type="curve" smooth="yes"/>
      <point x="376" y="18"/>
      <point x="341" y="10"/>
      <point x="308" y="10" type="curve" smooth="yes"/>
      <point x="292" y="10" type="line"/>
      <point x="290" y="0" type="line"/>
      <point x="603" y="0" type="line"/>
      <point x="605" y="10" type="line"/>
      <point x="597" y="10" type="line" smooth="yes"/>
      <point x="582" y="10"/>
      <point x="581" y="21"/>
      <point x="567" y="63" type="curve" smooth="yes"/>
      <point x="448" y="427" type="line"/>
      <point x="400" y="363" type="line"/>
      <point x="620" y="635" type="line" smooth="yes"/>
      <point x="663" y="689"/>
      <point x="694" y="704"/>
      <point x="725" y="704" type="curve" smooth="yes"/>
      <point x="733" y="704" type="line"/>
      <point x="735" y="714" type="line"/>
      <point x="534" y="714" type="line"/>
      <point x="532" y="704" type="line"/>
      <point x="550" y="704" type="line" smooth="yes"/>
      <point x="575" y="704"/>
      <point x="621" y="704"/>
      <point x="621" y="677" type="curve" smooth="yes"/>
      <point x="621" y="651"/>
      <point x="606" y="635"/>
      <point x="593" y="619" type="curve" smooth="yes"/>
      <point x="403" y="382" type="line"/>
      <point x="447" y="431" type="line"/>
      <point x="389" y="616" type="line" smooth="yes"/>
      <point x="381" y="643"/>
      <point x="379" y="661"/>
      <point x="379" y="667" type="curve" smooth="yes"/>
      <point x="379" y="699"/>
      <point x="412" y="704"/>
      <point x="440" y="704" type="curve" smooth="yes"/>
      <point x="459" y="704" type="line"/>
      <point x="461" y="714" type="line"/>
      <point x="146" y="714" type="line"/>
      <point x="143" y="704" type="line"/>
      <point x="148" y="704" type="line" smooth="yes"/>
      <point x="170" y="704"/>
      <point x="178" y="684"/>
      <point x="188" y="653" type="curve" smooth="yes"/>
      <point x="304" y="304" type="line"/>
      <point x="355" y="372" type="line"/>
      <point x="113" y="82" type="line" smooth="yes"/>
      <point x="67" y="27"/>
      <point x="31" y="10"/>
      <point x="-13" y="10" type="curve" smooth="yes"/>
      <point x="-27" y="10" type="line"/>
    </contour>
  </outline>
</glyph>
<glyph name="Y" format="2">
  <advance width="615"/>
  <unicode hex="0059"/>
  <anchor x="236" y="0" name="bottom"/>
  <anchor x="408" y="714" name="top"/>
  <anchor x="745" y="714" name="topright"/>
  <outline>
    <contour>
      <point x="80" y="0" type="line"/>
      <point x="423" y="0" type="line"/>
      <point x="425" y="10" type="line"/>
      <point x="405" y="10" type="line" smooth="yes"/>
      <point x="371" y="10"/>
      <point x="349" y="13"/>
      <point x="349" y="39" type="curve" smooth="yes"/>
      <point x="349" y="49"/>
      <point x="351" y="57"/>
      <point x="354" y="73" type="curve" smooth="yes"/>
      <point x="386" y="254" type="line"/>
      <point x="590" y="617" type="line" smooth="yes"/>
      <point x="633" y="694"/>
      <point x="659" y="704"/>
      <point x="690" y="704" type="curve" smooth="yes"/>
      <point x="705" y="704" type="line"/>
      <point x="707" y="714" type="line"/>
      <point x="482" y="714" type="line"/>
      <point x="479" y="704" type="line"/>
      <point x="484" y="704" type="line" smooth="yes"/>
      <point x="542" y="704"/>
      <point x="579" y="691"/>
      <point x="579" y="651" type="curve" smooth="yes"/>
      <point x="579" y="641"/>
      <point x="578" y="620"/>
      <point x="565" y="597" type="curve" smooth="yes"/>
      <point x="452" y="393" type="line" smooth="yes"/>
      <point x="425" y="344"/>
      <point x="400" y="300"/>
      <point x="376" y="258" type="curve"/>
      <point x="363" y="350"/>
      <point x="351" y="408"/>
      <point x="343" y="463" type="curve" smooth="yes"/>
      <point x="333" y="532" type="line" smooth="yes"/>
      <point x="321" y="615"/>
      <point x="318" y="637"/>
      <point x="318" y="668" type="curve" smooth="yes"/>
      <point x="318" y="694"/>
      <point x="342" y="704"/>
      <point x="370" y="704" type="curve" smooth="yes"/>
      <point x="403" y="704" type="line"/>
      <point x="405" y="714" type="line"/>
      <point x="98" y="714" type="line"/>
      <point x="97" y="704" type="line"/>
      <point x="108" y="704" type="line" smooth="yes"/>
      <point x="139" y="704"/>
      <point x="148" y="691"/>
      <point x="154" y="651" type="curve" smooth="yes"/>
      <point x="216" y="269" type="line"/>
      <point x="180" y="70" type="line" smooth="yes"/>
      <point x="171" y="21"/>
      <point x="139" y="10"/>
      <point x="106" y="10" type="curve" smooth="yes"/>
      <point x="82" y="10" type="line"/>
    </contour>
  </outline>
</glyph>
<glyph name="Z" format="2">
  <advance width="589"/>
  <unicode hex="005A"/>
  <anchor x="210" y="0" name="bottom"/>
  <anchor x="373" y="714" name="top"/>
  <anchor x="636" y="714" name="topright"/>
  <outline>
    <contour>
      <point x="-18" y="0" type="line"/>
      <point x="486" y="0" type="line"/>
      <point x="538" y="217" type="line"/>
      <point x="528" y="217" type="line"/>
      <point x="520" y="183" type="line" smooth="yes"/>
      <point x="499" y="93"/>
      <point x="435" y="10"/>
      <point x="330" y="10" type="curve" smooth="yes"/>
      <point x="200" y="10" type="line"/>
      <point x="629" y="704" type="line"/>
      <point x="630" y="714" type="line"/>
      <point x="150" y="714" type="line"/>
      <point x="96" y="497" type="line"/>
      <point x="106" y="497" type="line"/>
      <point x="124" y="560" type="line" smooth="yes"/>
      <point x="154" y="664"/>
      <point x="246" y="704"/>
      <point x="333" y="704" type="curve" smooth="yes"/>
      <point x="448" y="704" type="line"/>
      <point x="-16" y="10" type="line"/>
    </contour>
  </outline>
</glyph>
<glyph name="bracketleft" format="2">
  <advance width="361"/>
  <unicode hex="005B"/>
  <outline>
    <contour>
      <point x="-24" y="-128" type="line"/>
      <point x="245" y="-128" type="line"/>
      <point x="247" y="-118" type="line"/>
      <point x="219" y="-118" type="line" smooth="yes"/>
      <point x="184" y="-118"/>
      <point x="159" y="-114"/>
      <point x="159" y="-77" type="curve" smooth="yes"/>
      <point x="159" y="-69"/>
      <point x="161" y="-48"/>
      <point x="165" y="-27" type="curve" smooth="yes"/>
      <point x="313" y="678" type="line" smooth="yes"/>
      <point x="326" y="741"/>
      <point x="353" y="750"/>
      <point x="411" y="750" type="curve" smooth="yes"/>
      <point x="433" y="750" type="line"/>
      <point x="435" y="760" type="line"/>
      <point x="165" y="760" type="line"/>
    </contour>
  </outline>
</glyph>
<glyph name="bracketright" format="2">
  <advance width="360"/>
  <unicode hex="005D"/>
  <outline>
    <contour>
      <point x="-54" y="-128" type="line"/>
      <point x="216" y="-128" type="line"/>
      <point x="405" y="760" type="line"/>
      <point x="136" y="760" type="line"/>
      <point x="134" y="750" type="line"/>
      <point x="162" y="750" type="line" smooth="yes"/>
      <point x="197" y="750"/>
      <point x="222" y="746"/>
      <point x="222" y="709" type="curve" smooth="yes"/>
      <point x="222" y="701"/>
      <point x="220" y="680"/>
      <point x="216" y="659" type="curve" smooth="yes"/>
      <point x="68" y="-46" type="line" smooth="yes"/>
      <point x="55" y="-109"/>
      <point x="28" y="-118"/>
      <point x="-30" y="-118" type="curve" smooth="yes"/>
      <point x="-52" y="-118" type="line"/>
    </contour>
  </outline>
</glyph>
<glyph name="underscore" format="2">
  <advance width="374"/>
  <unicode hex="005F"/>
  <outline>
    <contour>
      <point x="-85" y="-109" type="line"/>
      <point x="298" y="-109" type="line"/>
      <point x="302" y="-89" type="line"/>
      <point x="-81" y="-89" type="line"/>
    </contour>
  </outline>
</glyph>
<glyph name="grave" format="2">
  <advance width="295"/>
  <unicode hex="0060"/>
  <outline>
    <contour>
      <point x="317" y="606" type="curve"/>
      <point x="327" y="606" type="line"/>
      <point x="329" y="615" type="line"/>
      <point x="316" y="643"/>
      <point x="291" y="716"/>
      <point x="282" y="766" type="curve"/>
      <point x="147" y="766" type="line"/>
      <point x="144" y="756" type="line"/>
      <point x="167" y="719"/>
      <point x="253" y="638"/>
    </contour>
  </outline>
</glyph>
<glyph name="a" format="2">
  <advance width="563"/>
  <unicode hex="0061"/>
  <anchor x="230" y="0" name="bottom"/>
  <anchor x="324" y="536" name="top"/>
  <anchor x="627" y="536" name="topright"/>
  <outline>
    <contour>
      <point x="157" y="-10" type="curve" smooth="yes"/>
      <point x="235" y="-10"/>
      <point x="274" y="50"/>
      <point x="315" y="182" type="curve"/>
      <point x="319" y="182" type="line"/>
      <point x="313" y="144"/>
      <point x="307" y="118"/>
      <point x="307" y="86" type="curve" smooth="yes"/>
      <point x="307" y="18"/>
      <point x="342" y="-10"/>
      <point x="403" y="-10" type="curve" smooth="yes"/>
      <point x="475" y="-10"/>
      <point x="517" y="27"/>
      <point x="542" y="50" type="curve"/>
      <point x="537" y="62" type="line"/>
      <point x="520" y="46"/>
      <point x="503" y="35"/>
      <point x="485" y="35" type="curve" smooth="yes"/>
      <point x="464" y="35"/>
      <point x="452" y="50"/>
      <point x="452" y="77" type="curve" smooth="yes"/>
      <point x="452" y="107"/>
      <point x="466" y="163"/>
      <point x="471" y="186" type="curve" smooth="yes"/>
      <point x="545" y="535" type="line"/>
      <point x="535" y="535" type="line"/>
      <point x="434" y="512" type="line"/>
      <point x="408" y="527"/>
      <point x="364" y="546"/>
      <point x="313" y="546" type="curve" smooth="yes"/>
      <point x="99" y="546"/>
      <point x="20" y="317"/>
      <point x="20" y="170" type="curve" smooth="yes"/>
      <point x="20" y="64"/>
      <point x="59" y="-10"/>
    </contour>
    <contour>
      <point x="211" y="20" type="curve" smooth="yes"/>
      <point x="182" y="20"/>
      <point x="172" y="54"/>
      <point x="172" y="140" type="curve" smooth="yes"/>
      <point x="172" y="283"/>
      <point x="229" y="535"/>
      <point x="329" y="535" type="curve" smooth="yes"/>
      <point x="345" y="535"/>
      <point x="361" y="533"/>
      <point x="377" y="520" type="curve"/>
      <point x="330" y="288" type="line" smooth="yes"/>
      <point x="301" y="144"/>
      <point x="248" y="20"/>
    </contour>
  </outline>
</glyph>
<glyph name="c" format="2">
  <advance width="469"/>
  <unicode hex="0063"/>
  <anchor x="201" y="0" name="bottom"/>
  <anchor x="315" y="536" name="top"/>
  <anchor x="496" y="536" name="topright"/>
  <outline>
    <contour>
      <point x="243" y="-9" type="curve" smooth="yes"/>
      <point x="340" y="-9"/>
      <point x="411" y="45"/>
      <point x="411" y="101" type="curve" smooth="yes"/>
      <point x="411" y="136"/>
      <point x="400" y="152"/>
      <point x="389" y="160" type="curve"/>
      <point x="350" y="60"/>
      <point x="319" y="4"/>
      <point x="258" y="4" type="curve" smooth="yes"/>
      <point x="208" y="4"/>
      <point x="181" y="55"/>
      <point x="181" y="178" type="curve" smooth="yes"/>
      <point x="181" y="353"/>
      <point x="243" y="530"/>
      <point x="319" y="530" type="curve" smooth="yes"/>
      <point x="345" y="530"/>
      <point x="360" y="515"/>
      <point x="360" y="461" type="curve" smooth="yes"/>
      <point x="360" y="412"/>
      <point x="355" y="370"/>
      <point x="348" y="334" type="curve"/>
      <point x="452" y="334"/>
      <point x="484" y="393"/>
      <point x="484" y="445" type="curve" smooth="yes"/>
      <point x="484" y="498"/>
      <point x="449" y="541"/>
      <point x="333" y="541" type="curve" smooth="yes"/>
      <point x="95" y="541"/>
      <point x="27" y="342"/>
      <point x="27" y="211" type="curve" smooth="yes"/>
      <point x="27" y="58"/>
      <point x="102" y="-9"/>
    </contour>
  </outline>
</glyph>
<glyph name="d" format="2">
  <advance width="568"/>
  <unicode hex="0064"/>
  <anchor x="229" y="0" name="bottom"/>
  <anchor x="343" y="268" name="center"/>
  <anchor x="391" y="760" name="top"/>
  <anchor x="645" y="760" name="topright"/>
  <outline>
    <contour>
      <point x="145" y="-10" type="curve" smooth="yes"/>
      <point x="210" y="-10"/>
      <point x="277" y="29"/>
      <point x="316" y="184" type="curve"/>
      <point x="321" y="184" type="line"/>
      <point x="316" y="152"/>
      <point x="313" y="128"/>
      <point x="313" y="84" type="curve" smooth="yes"/>
      <point x="313" y="21"/>
      <point x="349" y="-10"/>
      <point x="410" y="-10" type="curve" smooth="yes"/>
      <point x="476" y="-10"/>
      <point x="502" y="10"/>
      <point x="546" y="46" type="curve"/>
      <point x="540" y="56" type="line"/>
      <point x="526" y="44"/>
      <point x="502" y="23"/>
      <point x="481" y="23" type="curve" smooth="yes"/>
      <point x="459" y="23"/>
      <point x="450" y="36"/>
      <point x="450" y="66" type="curve" smooth="yes"/>
      <point x="450" y="94"/>
      <point x="466" y="159"/>
      <point x="474" y="195" type="curve" smooth="yes"/>
      <point x="595" y="760" type="line"/>
      <point x="355" y="760" type="line"/>
      <point x="353" y="750" type="line"/>
      <point x="363" y="750" type="line" smooth="yes"/>
      <point x="403" y="750"/>
      <point x="412" y="737"/>
      <point x="412" y="720" type="curve" smooth="yes"/>
      <point x="412" y="705"/>
      <point x="410" y="689"/>
      <point x="406" y="670" type="curve" smooth="yes"/>
      <point x="389" y="585" type="line" smooth="yes"/>
      <point x="387" y="573"/>
      <point x="381" y="543"/>
      <point x="379" y="526" type="curve"/>
      <point x="356" y="541"/>
      <point x="335" y="546"/>
      <point x="292" y="546" type="curve" smooth="yes"/>
      <point x="105" y="546"/>
      <point x="21" y="329"/>
      <point x="21" y="173" type="curve" smooth="yes"/>
      <point x="21" y="78"/>
      <point x="52" y="-10"/>
    </contour>
    <contour>
      <point x="216" y="32" type="curve" smooth="yes"/>
      <point x="196" y="32"/>
      <point x="175" y="55"/>
      <point x="175" y="150" type="curve" smooth="yes"/>
      <point x="175" y="336"/>
      <point x="248" y="532"/>
      <point x="335" y="532" type="curve" smooth="yes"/>
      <point x="353" y="532"/>
      <point x="366" y="525"/>
      <point x="376" y="513" type="curve"/>
      <point x="307" y="191" type="line" smooth="yes"/>
      <point x="292" y="121"/>
      <point x="252" y="32"/>
    </contour>
  </outline>
</glyph>
<glyph name="e" format="2">
  <advance width="469"/>
  <unicode hex="0065"/>
  <anchor x="184" y="0" name="bottom"/>
  <anchor x="318" y="536" name="top"/>
  <anchor x="502" y="536" name="topright"/>
  <outline>
    <contour>
      <point x="238" y="-10" type="curve" smooth="yes"/>
      <point x="352" y="-10"/>
      <point x="405" y="58"/>
      <point x="405" y="115" type="curve" smooth="yes"/>
      <point x="405" y="147"/>
      <point x="396" y="159"/>
      <point x="385" y="163" type="curve"/>
      <point x="361" y="68"/>
      <point x="328" y="2"/>
      <point x="266" y="2" type="curve" smooth="yes"/>
      <point x="216" y="2"/>
      <point x="186" y="46"/>
      <point x="186" y="186" type="curve" smooth="yes"/>
      <point x="186" y="195"/>
      <point x="187" y="236"/>
      <point x="189" y="248" type="curve"/>
      <point x="222" y="248" type="line" smooth="yes"/>
      <point x="371" y="248"/>
      <point x="479" y="316"/>
      <point x="479" y="426" type="curve" smooth="yes"/>
      <point x="479" y="501"/>
      <point x="427" y="546"/>
      <point x="334" y="546" type="curve" smooth="yes"/>
      <point x="108" y="546"/>
      <point x="25" y="347"/>
      <point x="25" y="206" type="curve" smooth="yes"/>
      <point x="25" y="56"/>
      <point x="108" y="-10"/>
    </contour>
    <contour>
      <point x="189" y="258" type="line"/>
      <point x="209" y="436"/>
      <point x="255" y="532"/>
      <point x="296" y="532" type="curve" smooth="yes"/>
      <point x="324" y="532"/>
      <point x="332" y="515"/>
      <point x="332" y="467" type="curve" smooth="yes"/>
      <point x="332" y="374"/>
      <point x="290" y="258"/>
      <point x="202" y="258" type="curve" smooth="yes"/>
    </contour>
  </outline>
</glyph>
<glyph name="g" format="2">
  <advance width="492"/>
  <unicode hex="0067"/>
  <anchor x="133" y="-240" name="bottom"/>
  <anchor x="298" y="536" name="top"/>
  <anchor x="578" y="536" name="topright"/>
  <outline>
    <contour>
      <point x="141" y="-240" type="curve" smooth="yes"/>
      <point x="311" y="-240"/>
      <point x="413" y="-156"/>
      <point x="413" y="-34" type="curve" smooth="yes"/>
      <point x="413" y="61"/>
      <point x="348" y="93"/>
      <point x="260" y="104" type="curve" smooth="yes"/>
      <point x="185" y="113" type="line" smooth="yes"/>
      <point x="140" y="118"/>
      <point x="121" y="130"/>
      <point x="121" y="153" type="curve" smooth="yes"/>
      <point x="121" y="169"/>
      <point x="129" y="180"/>
      <point x="156" y="195" type="curve"/>
      <point x="167" y="193"/>
      <point x="195" y="189"/>
      <point x="233" y="189" type="curve" smooth="yes"/>
      <point x="378" y="189"/>
      <point x="447" y="287"/>
      <point x="447" y="380" type="curve" smooth="yes"/>
      <point x="447" y="452"/>
      <point x="420" y="479"/>
      <point x="406" y="495" type="curve"/>
      <point x="418" y="509"/>
      <point x="429" y="514"/>
      <point x="443" y="514" type="curve" smooth="yes"/>
      <point x="471" y="514"/>
      <point x="487" y="497"/>
      <point x="487" y="444" type="curve"/>
      <point x="531" y="444"/>
      <point x="543" y="486"/>
      <point x="543" y="522" type="curve" smooth="yes"/>
      <point x="543" y="553"/>
      <point x="525" y="580"/>
      <point x="487" y="580" type="curve" smooth="yes"/>
      <point x="444" y="580"/>
      <point x="415" y="533"/>
      <point x="398" y="502" type="curve"/>
      <point x="359" y="536"/>
      <point x="323" y="546"/>
      <point x="275" y="546" type="curve" smooth="yes"/>
      <point x="128" y="546"/>
      <point x="53" y="441"/>
      <point x="53" y="335" type="curve" smooth="yes"/>
      <point x="53" y="278"/>
      <point x="76" y="227"/>
      <point x="144" y="199" type="curve"/>
      <point x="51" y="174"/>
      <point x="19" y="132"/>
      <point x="19" y="81" type="curve" smooth="yes"/>
      <point x="19" y="38"/>
      <point x="39" y="8"/>
      <point x="87" y="-13" type="curve"/>
      <point x="-31" y="-13"/>
      <point x="-80" y="-55"/>
      <point x="-80" y="-121" type="curve" smooth="yes"/>
      <point x="-80" y="-193"/>
      <point x="-20" y="-240"/>
    </contour>
    <contour>
      <point x="152" y="-230" type="curve" smooth="yes"/>
      <point x="75" y="-230"/>
      <point x="47" y="-181"/>
      <point x="47" y="-124" type="curve" smooth="yes"/>
      <point x="47" y="-69"/>
      <point x="68" y="-36"/>
      <point x="98" y="-17" type="curve"/>
      <point x="181" y="-31" type="line" smooth="yes"/>
      <point x="241" y="-41"/>
      <point x="282" y="-63"/>
      <point x="282" y="-121" type="curve" smooth="yes"/>
      <point x="282" y="-184"/>
      <point x="236" y="-230"/>
    </contour>
    <contour>
      <point x="233" y="199" type="curve" smooth="yes"/>
      <point x="194" y="199"/>
      <point x="190" y="241"/>
      <point x="190" y="304" type="curve" smooth="yes"/>
      <point x="190" y="431"/>
      <point x="226" y="536"/>
      <point x="268" y="536" type="curve" smooth="yes"/>
      <point x="298" y="536"/>
      <point x="306" y="506"/>
      <point x="306" y="450" type="curve" smooth="yes"/>
      <point x="306" y="271"/>
      <point x="270" y="199"/>
    </contour>
  </outline>
</glyph>
<glyph name="i" format="2">
  <advance width="339"/>
  <unicode hex="0069"/>
  <anchor x="111" y="0" name="bottom"/>
  <anchor x="275" y="773" name="top"/>
  <anchor x="418" y="773" name="topright"/>
  <outline>
    <contour>
      <point x="179" y="-10" type="curve" smooth="yes"/>
      <point x="250" y="-10"/>
      <point x="286" y="23"/>
      <point x="320" y="63" type="curve"/>
      <point x="313" y="72" type="line"/>
      <point x="292" y="48"/>
      <point x="263" y="18"/>
      <point x="240" y="18" type="curve" smooth="yes"/>
      <point x="220" y="18"/>
      <point x="217" y="35"/>
      <point x="217" y="55" type="curve" smooth="yes"/>
      <point x="217" y="79"/>
      <point x="221" y="105"/>
      <point x="230" y="145" type="curve" smooth="yes"/>
      <point x="314" y="536" type="line"/>
      <point x="77" y="536" type="line"/>
      <point x="75" y="526" type="line"/>
      <point x="84" y="526" type="line" smooth="yes"/>
      <point x="122" y="526"/>
      <point x="130" y="517"/>
      <point x="130" y="493" type="curve" smooth="yes"/>
      <point x="130" y="473"/>
      <point x="126" y="451"/>
      <point x="121" y="428" type="curve" smooth="yes"/>
      <point x="77" y="210" type="line" smooth="yes"/>
      <point x="64" y="147"/>
      <point x="61" y="117"/>
      <point x="61" y="99" type="curve" smooth="yes"/>
      <point x="61" y="26"/>
      <point x="104" y="-10"/>
    </contour>
    <contour>
      <point x="228" y="623" type="curve" smooth="yes"/>
      <point x="282" y="623"/>
      <point x="335" y="652"/>
      <point x="335" y="711" type="curve" smooth="yes"/>
      <point x="335" y="756"/>
      <point x="296" y="773"/>
      <point x="254" y="773" type="curve" smooth="yes"/>
      <point x="202" y="773"/>
      <point x="150" y="750"/>
      <point x="150" y="685" type="curve" smooth="yes"/>
      <point x="150" y="642"/>
      <point x="185" y="623"/>
    </contour>
  </outline>
</glyph>
<glyph name="j" format="2">
  <advance width="311"/>
  <unicode hex="006A"/>
  <anchor x="-16" y="-239" name="bottom"/>
  <anchor x="263" y="773" name="top"/>
  <anchor x="398" y="773" name="topright"/>
  <outline>
    <contour>
      <point x="-28" y="-240" type="curve" smooth="yes"/>
      <point x="65" y="-240"/>
      <point x="158" y="-166"/>
      <point x="195" y="10" type="curve" smooth="yes"/>
      <point x="307" y="536" type="line"/>
      <point x="72" y="536" type="line"/>
      <point x="70" y="526" type="line"/>
      <point x="76" y="526" type="line" smooth="yes"/>
      <point x="115" y="526"/>
      <point x="125" y="515"/>
      <point x="125" y="488" type="curve" smooth="yes"/>
      <point x="125" y="472"/>
      <point x="120" y="452"/>
      <point x="115" y="428" type="curve" smooth="yes"/>
      <point x="13" y="-54" type="line" smooth="yes"/>
      <point x="-13" y="-178"/>
      <point x="-28" y="-222"/>
      <point x="-74" y="-222" type="curve" smooth="yes"/>
      <point x="-87" y="-222"/>
      <point x="-110" y="-218"/>
      <point x="-119" y="-215" type="curve"/>
      <point x="-122" y="-225" type="line"/>
      <point x="-86" y="-236"/>
      <point x="-65" y="-240"/>
    </contour>
    <contour>
      <point x="222" y="623" type="curve" smooth="yes"/>
      <point x="293" y="623"/>
      <point x="329" y="653"/>
      <point x="329" y="711" type="curve" smooth="yes"/>
      <point x="329" y="756"/>
      <point x="290" y="773"/>
      <point x="248" y="773" type="curve" smooth="yes"/>
      <point x="196" y="773"/>
      <point x="144" y="750"/>
      <point x="144" y="685" type="curve" smooth="yes"/>
      <point x="144" y="642"/>
      <point x="179" y="623"/>
    </contour>
  </outline>
</glyph>
<glyph name="k" format="2">
  <advance width="539"/>
  <unicode hex="006B"/>
  <anchor x="217" y="0" name="bottom"/>
  <anchor x="379" y="760" name="top"/>
  <anchor x="493" y="900" name="topright"/>
  <outline>
    <contour>
      <point x="441" y="-5" type="curve" smooth="yes"/>
      <point x="501" y="-5" type="line"/>
      <point x="503" y="5" type="line"/>
      <point x="492" y="5"/>
      <point x="490" y="13"/>
      <point x="480" y="42" type="curve" smooth="yes"/>
      <point x="368" y="364" type="line"/>
      <point x="332" y="327" type="line"/>
      <point x="455" y="447" type="line" smooth="yes"/>
      <point x="516" y="506"/>
      <point x="549" y="526"/>
      <point x="583" y="526" type="curve"/>
      <point x="585" y="536" type="line"/>
      <point x="356" y="536" type="line"/>
      <point x="354" y="526" type="line"/>
      <point x="413" y="526"/>
      <point x="454" y="520"/>
      <point x="454" y="487" type="curve" smooth="yes"/>
      <point x="454" y="461"/>
      <point x="424" y="430"/>
      <point x="390" y="398" type="curve" smooth="yes"/>
      <point x="237" y="253" type="line"/>
      <point x="257" y="320"/>
      <point x="273" y="389"/>
      <point x="285" y="442" type="curve" smooth="yes"/>
      <point x="355" y="760" type="line"/>
      <point x="115" y="760" type="line"/>
      <point x="113" y="750" type="line"/>
      <point x="131" y="750" type="line" smooth="yes"/>
      <point x="163" y="750"/>
      <point x="171" y="745"/>
      <point x="171" y="718" type="curve" smooth="yes"/>
      <point x="171" y="707"/>
      <point x="168" y="690"/>
      <point x="165" y="676" type="curve" smooth="yes"/>
      <point x="21" y="0" type="line"/>
      <point x="185" y="0" type="line"/>
      <point x="235" y="238" type="line"/>
      <point x="315" y="315" type="line"/>
      <point x="241" y="249" type="line"/>
      <point x="281" y="112" type="line" smooth="yes"/>
      <point x="308" y="21"/>
      <point x="350" y="-5"/>
    </contour>
  </outline>
</glyph>
<glyph name="m" format="2">
  <advance width="864"/>
  <unicode hex="006D"/>
  <anchor x="370" y="0" name="bottom"/>
  <anchor x="484" y="536" name="top"/>
  <anchor x="886" y="536" name="topright"/>
  <outline>
    <contour>
      <point x="709" y="-8" type="curve" smooth="yes"/>
      <point x="784" y="-8"/>
      <point x="818" y="21"/>
      <point x="844" y="58" type="curve"/>
      <point x="839" y="66" type="line"/>
      <point x="821" y="45"/>
      <point x="807" y="20"/>
      <point x="775" y="20" type="curve" smooth="yes"/>
      <point x="752" y="20"/>
      <point x="739" y="33"/>
      <point x="739" y="70" type="curve" smooth="yes"/>
      <point x="739" y="85"/>
      <point x="741" y="117"/>
      <point x="748" y="152" type="curve" smooth="yes"/>
      <point x="781" y="319" type="line" smooth="yes"/>
      <point x="788" y="357"/>
      <point x="800" y="394"/>
      <point x="800" y="440" type="curve" smooth="yes"/>
      <point x="800" y="530"/>
      <point x="753" y="546"/>
      <point x="694" y="546" type="curve" smooth="yes"/>
      <point x="617" y="546"/>
      <point x="580" y="518"/>
      <point x="541" y="414" type="curve"/>
      <point x="538" y="414" type="line"/>
      <point x="538" y="421"/>
      <point x="538" y="429"/>
      <point x="538" y="436" type="curve" smooth="yes"/>
      <point x="538" y="506"/>
      <point x="509" y="546"/>
      <point x="429" y="546" type="curve" smooth="yes"/>
      <point x="379" y="546"/>
      <point x="329" y="530"/>
      <point x="290" y="421" type="curve"/>
      <point x="287" y="421" type="line"/>
      <point x="305" y="536" type="line"/>
      <point x="77" y="536" type="line"/>
      <point x="76" y="526" type="line"/>
      <point x="89" y="526" type="line" smooth="yes"/>
      <point x="122" y="526"/>
      <point x="130" y="518"/>
      <point x="130" y="497" type="curve" smooth="yes"/>
      <point x="130" y="481"/>
      <point x="125" y="462"/>
      <point x="122" y="446" type="curve" smooth="yes"/>
      <point x="28" y="0" type="line"/>
      <point x="195" y="0" type="line"/>
      <point x="257" y="288" type="line" smooth="yes"/>
      <point x="275" y="370"/>
      <point x="323" y="507"/>
      <point x="363" y="507" type="curve" smooth="yes"/>
      <point x="381" y="507"/>
      <point x="382" y="480"/>
      <point x="382" y="468" type="curve" smooth="yes"/>
      <point x="382" y="440"/>
      <point x="377" y="410"/>
      <point x="364" y="348" type="curve" smooth="yes"/>
      <point x="337" y="222" type="line" smooth="yes"/>
      <point x="325" y="167"/>
      <point x="310" y="68"/>
      <point x="304" y="0" type="curve"/>
      <point x="477" y="0" type="line"/>
      <point x="481" y="65"/>
      <point x="488" y="145"/>
      <point x="497" y="190" type="curve" smooth="yes"/>
      <point x="520" y="303" type="line" smooth="yes"/>
      <point x="537" y="387"/>
      <point x="580" y="507"/>
      <point x="620" y="507" type="curve" smooth="yes"/>
      <point x="638" y="507"/>
      <point x="638" y="482"/>
      <point x="638" y="468" type="curve" smooth="yes"/>
      <point x="638" y="434"/>
      <point x="624" y="375"/>
      <point x="619" y="349" type="curve" smooth="yes"/>
      <point x="590" y="205" type="line" smooth="yes"/>
      <point x="581" y="161"/>
      <point x="575" y="132"/>
      <point x="575" y="105" type="curve" smooth="yes"/>
      <point x="575" y="29"/>
      <point x="625" y="-8"/>
    </contour>
  </outline>
</glyph>
<glyph name="n" format="2">
  <advance width="613"/>
  <unicode hex="006E"/>
  <anchor x="252" y="0" name="bottom"/>
  <anchor x="356" y="536" name="top"/>
  <anchor x="652" y="536" name="topright"/>
  <outline>
    <contour>
      <point x="455" y="-10" type="curve" smooth="yes"/>
      <point x="528" y="-10"/>
      <point x="567" y="24"/>
      <point x="594" y="63" type="curve"/>
      <point x="589" y="71" type="line"/>
      <point x="574" y="53"/>
      <point x="552" y="20"/>
      <point x="520" y="20" type="curve" smooth="yes"/>
      <point x="502" y="20"/>
      <point x="490" y="34"/>
      <point x="490" y="61" type="curve" smooth="yes"/>
      <point x="490" y="88"/>
      <point x="496" y="116"/>
      <point x="503" y="152" type="curve" smooth="yes"/>
      <point x="535" y="314" type="line" smooth="yes"/>
      <point x="542" y="349"/>
      <point x="550" y="394"/>
      <point x="550" y="429" type="curve" smooth="yes"/>
      <point x="550" y="491"/>
      <point x="521" y="546"/>
      <point x="439" y="546" type="curve" smooth="yes"/>
      <point x="358" y="546"/>
      <point x="314" y="518"/>
      <point x="277" y="417" type="curve"/>
      <point x="275" y="417" type="line"/>
      <point x="290" y="536" type="line"/>
      <point x="77" y="536" type="line"/>
      <point x="76" y="526" type="line"/>
      <point x="93" y="526" type="line" smooth="yes"/>
      <point x="125" y="526"/>
      <point x="127" y="514"/>
      <point x="127" y="497" type="curve" smooth="yes"/>
      <point x="127" y="483"/>
      <point x="124" y="462"/>
      <point x="121" y="446" type="curve" smooth="yes"/>
      <point x="28" y="0" type="line"/>
      <point x="193" y="0" type="line"/>
      <point x="262" y="332" type="line" smooth="yes"/>
      <point x="279" y="414"/>
      <point x="314" y="508"/>
      <point x="362" y="508" type="curve" smooth="yes"/>
      <point x="387" y="508"/>
      <point x="388" y="476"/>
      <point x="388" y="452" type="curve" smooth="yes"/>
      <point x="388" y="420"/>
      <point x="379" y="370"/>
      <point x="374" y="345" type="curve" smooth="yes"/>
      <point x="344" y="202" type="line" smooth="yes"/>
      <point x="335" y="159"/>
      <point x="332" y="126"/>
      <point x="332" y="101" type="curve" smooth="yes"/>
      <point x="332" y="33"/>
      <point x="380" y="-10"/>
    </contour>
  </outline>
</glyph>
<glyph name="o" format="2">
  <advance width="530"/>
  <unicode hex="006F"/>
  <anchor x="199" y="0" name="bottom"/>
  <anchor x="313" y="268" name="center"/>
  <anchor x="313" y="536" name="top"/>
  <anchor x="561" y="536" name="topright"/>
  <outline>
    <contour>
      <point x="222" y="-10" type="curve" smooth="yes"/>
      <point x="424" y="-10"/>
      <point x="505" y="188"/>
      <point x="505" y="334" type="curve" smooth="yes"/>
      <point x="505" y="484"/>
      <point x="420" y="546"/>
      <point x="319" y="546" type="curve" smooth="yes"/>
      <point x="107" y="546"/>
      <point x="26" y="354"/>
      <point x="26" y="202" type="curve" smooth="yes"/>
      <point x="26" y="60"/>
      <point x="104" y="-10"/>
    </contour>
    <contour>
      <point x="230" y="0" type="curve" smooth="yes"/>
      <point x="195" y="0"/>
      <point x="178" y="32"/>
      <point x="178" y="123" type="curve" smooth="yes"/>
      <point x="178" y="320"/>
      <point x="239" y="536"/>
      <point x="309" y="536" type="curve" smooth="yes"/>
      <point x="344" y="536"/>
      <point x="354" y="494"/>
      <point x="354" y="408" type="curve" smooth="yes"/>
      <point x="354" y="222"/>
      <point x="308" y="0"/>
    </contour>
  </outline>
</glyph>
<glyph name="p" format="2">
  <advance width="587"/>
  <unicode hex="0070"/>
  <anchor x="94" y="-240" name="bottom"/>
  <anchor x="369" y="536" name="top"/>
  <anchor x="620" y="536" name="topright"/>
  <outline>
    <contour>
      <point x="137" y="452" type="curve" smooth="yes"/>
      <point x="-12" y="-240" type="line"/>
      <point x="244" y="-240" type="line"/>
      <point x="245" y="-230" type="line"/>
      <point x="216" y="-230" type="line" smooth="yes"/>
      <point x="178" y="-230"/>
      <point x="166" y="-224"/>
      <point x="166" y="-198" type="curve" smooth="yes"/>
      <point x="166" y="-188"/>
      <point x="167" y="-179"/>
      <point x="171" y="-157" type="curve" smooth="yes"/>
      <point x="196" y="-35" type="line" smooth="yes"/>
      <point x="200" y="-13"/>
      <point x="203" y="3"/>
      <point x="205" y="18" type="curve"/>
      <point x="226" y="0"/>
      <point x="249" y="-10"/>
      <point x="289" y="-10" type="curve" smooth="yes"/>
      <point x="488" y="-10"/>
      <point x="567" y="213"/>
      <point x="567" y="365" type="curve" smooth="yes"/>
      <point x="567" y="495"/>
      <point x="518" y="546"/>
      <point x="446" y="546" type="curve" smooth="yes"/>
      <point x="352" y="546"/>
      <point x="311" y="482"/>
      <point x="279" y="383" type="curve"/>
      <point x="274" y="383" type="line"/>
      <point x="302" y="536" type="line"/>
      <point x="77" y="536" type="line"/>
      <point x="75" y="526" type="line"/>
      <point x="102" y="526" type="line" smooth="yes"/>
      <point x="140" y="526"/>
      <point x="142" y="515"/>
      <point x="142" y="492" type="curve" smooth="yes"/>
      <point x="142" y="483"/>
      <point x="140" y="468"/>
    </contour>
    <contour>
      <point x="261" y="4" type="curve" smooth="yes"/>
      <point x="239" y="4"/>
      <point x="219" y="14"/>
      <point x="207" y="29" type="curve"/>
      <point x="277" y="345" type="line" smooth="yes"/>
      <point x="293" y="419"/>
      <point x="335" y="504"/>
      <point x="370" y="504" type="curve" smooth="yes"/>
      <point x="393" y="504"/>
      <point x="412" y="482"/>
      <point x="412" y="411" type="curve" smooth="yes"/>
      <point x="412" y="256"/>
      <point x="359" y="4"/>
    </contour>
  </outline>
</glyph>
<glyph name="q" format="2">
  <advance width="552"/>
  <unicode hex="0071"/>
  <anchor x="159" y="-240" name="bottom"/>
  <anchor x="324" y="536" name="top"/>
  <anchor x="587" y="536" name="topright"/>
  <outline>
    <contour>
      <point x="271" y="-40" type="curve" smooth="yes"/>
      <point x="232" y="-240" type="line"/>
      <point x="464" y="-240" type="line"/>
      <point x="466" y="-229" type="line"/>
      <point x="437" y="-229" type="line" smooth="yes"/>
      <point x="407" y="-229"/>
      <point x="394" y="-217"/>
      <point x="394" y="-197" type="curve" smooth="yes"/>
      <point x="394" y="-186"/>
      <point x="396" y="-167"/>
      <point x="400" y="-149" type="curve" smooth="yes"/>
      <point x="546" y="546" type="line"/>
      <point x="536" y="546" type="line"/>
      <point x="397" y="518" type="line"/>
      <point x="376" y="533"/>
      <point x="354" y="546"/>
      <point x="300" y="546" type="curve" smooth="yes"/>
      <point x="114" y="546"/>
      <point x="20" y="339"/>
      <point x="20" y="170" type="curve" smooth="yes"/>
      <point x="20" y="75"/>
      <point x="59" y="-10"/>
      <point x="153" y="-10" type="curve" smooth="yes"/>
      <point x="225" y="-10"/>
      <point x="277" y="35"/>
      <point x="313" y="168" type="curve"/>
      <point x="319" y="168" type="line"/>
      <point x="304" y="112"/>
      <point x="283" y="19"/>
    </contour>
    <contour>
      <point x="224" y="32" type="curve" smooth="yes"/>
      <point x="200" y="32"/>
      <point x="175" y="53"/>
      <point x="175" y="153" type="curve" smooth="yes"/>
      <point x="175" y="364"/>
      <point x="253" y="531"/>
      <point x="336" y="531" type="curve" smooth="yes"/>
      <point x="355" y="531"/>
      <point x="366" y="523"/>
      <point x="373" y="512" type="curve"/>
      <point x="316" y="217" type="line" smooth="yes"/>
      <point x="301" y="141"/>
      <point x="263" y="32"/>
    </contour>
  </outline>
</glyph>
<glyph name="r" format="2">
  <advance width="505"/>
  <unicode hex="0072"/>
  <anchor x="104" y="0" name="bottom"/>
  <anchor x="328" y="536" name="top"/>
  <anchor x="543" y="536" name="topright"/>
  <outline>
    <contour>
      <point x="115" y="444" type="curve" smooth="yes"/>
      <point x="21" y="0" type="line"/>
      <point x="186" y="0" type="line"/>
      <point x="251" y="288" type="line" smooth="yes"/>
      <point x="286" y="443"/>
      <point x="334" y="508"/>
      <point x="366" y="508" type="curve" smooth="yes"/>
      <point x="386" y="508"/>
      <point x="402" y="498"/>
      <point x="402" y="435" type="curve" smooth="yes"/>
      <point x="402" y="411"/>
      <point x="400" y="380"/>
      <point x="396" y="338" type="curve"/>
      <point x="466" y="338"/>
      <point x="532" y="372"/>
      <point x="532" y="456" type="curve" smooth="yes"/>
      <point x="532" y="514"/>
      <point x="498" y="546"/>
      <point x="438" y="546" type="curve" smooth="yes"/>
      <point x="355" y="546"/>
      <point x="305" y="508"/>
      <point x="265" y="368" type="curve"/>
      <point x="262" y="368" type="line"/>
      <point x="287" y="536" type="line"/>
      <point x="77" y="536" type="line"/>
      <point x="75" y="526" type="line"/>
      <point x="90" y="526" type="line" smooth="yes"/>
      <point x="118" y="526"/>
      <point x="123" y="514"/>
      <point x="123" y="500" type="curve" smooth="yes"/>
      <point x="123" y="480"/>
      <point x="119" y="464"/>
    </contour>
  </outline>
</glyph>
<glyph name="s" format="2">
  <advance width="457"/>
  <unicode hex="0073"/>
  <anchor x="172" y="0" name="bottom"/>
  <anchor x="286" y="536" name="top"/>
  <anchor x="494" y="536" name="topright"/>
  <outline>
    <contour>
      <point x="189" y="-10" type="curve" smooth="yes"/>
      <point x="342" y="-10"/>
      <point x="415" y="70"/>
      <point x="415" y="173" type="curve" smooth="yes"/>
      <point x="415" y="253"/>
      <point x="378" y="289"/>
      <point x="294" y="339" type="curve" smooth="yes"/>
      <point x="224" y="381"/>
      <point x="200" y="403"/>
      <point x="200" y="447" type="curve" smooth="yes"/>
      <point x="200" y="502"/>
      <point x="231" y="536"/>
      <point x="268" y="536" type="curve" smooth="yes"/>
      <point x="313" y="536"/>
      <point x="330" y="501"/>
      <point x="331" y="426" type="curve" smooth="yes"/>
      <point x="331" y="409"/>
      <point x="330" y="389"/>
      <point x="328" y="367" type="curve"/>
      <point x="405" y="367"/>
      <point x="453" y="389"/>
      <point x="453" y="450" type="curve" smooth="yes"/>
      <point x="453" y="501"/>
      <point x="418" y="546"/>
      <point x="283" y="546" type="curve" smooth="yes"/>
      <point x="144" y="546"/>
      <point x="71" y="477"/>
      <point x="71" y="379" type="curve" smooth="yes"/>
      <point x="71" y="303"/>
      <point x="114" y="256"/>
      <point x="190" y="211" type="curve" smooth="yes"/>
      <point x="265" y="167"/>
      <point x="293" y="141"/>
      <point x="293" y="87" type="curve" smooth="yes"/>
      <point x="293" y="35"/>
      <point x="264" y="0"/>
      <point x="220" y="0" type="curve" smooth="yes"/>
      <point x="169" y="0"/>
      <point x="130" y="36"/>
      <point x="130" y="155" type="curve" smooth="yes"/>
      <point x="130" y="168"/>
      <point x="130" y="182"/>
      <point x="131" y="197" type="curve"/>
      <point x="61" y="197"/>
      <point x="11" y="165"/>
      <point x="11" y="102" type="curve" smooth="yes"/>
      <point x="11" y="30"/>
      <point x="81" y="-10"/>
    </contour>
  </outline>
</glyph>
<glyph name="t" format="2">
  <advance width="380"/>
  <unicode hex="0074"/>
  <anchor x="132" y="0" name="bottom"/>
  <anchor x="188" y="268" name="center"/>
  <anchor x="272" y="659" name="top"/>
  <anchor x="357" y="1000" name="topright"/>
  <outline>
    <contour>
      <point x="174" y="-10" type="curve" smooth="yes"/>
      <point x="257" y="-10"/>
      <point x="307" y="26"/>
      <point x="347" y="66" type="curve"/>
      <point x="342" y="75" type="line"/>
      <point x="315" y="46"/>
      <point x="276" y="22"/>
      <point x="250" y="22" type="curve" smooth="yes"/>
      <point x="220" y="22"/>
      <point x="209" y="38"/>
      <point x="209" y="66" type="curve" smooth="yes"/>
      <point x="209" y="89"/>
      <point x="213" y="109"/>
      <point x="219" y="134" type="curve" smooth="yes"/>
      <point x="307" y="526" type="line"/>
      <point x="408" y="526" type="line"/>
      <point x="410" y="536" type="line"/>
      <point x="310" y="536" type="line"/>
      <point x="337" y="659" type="line"/>
      <point x="327" y="659" type="line"/>
      <point x="266" y="587"/>
      <point x="121" y="532"/>
      <point x="61" y="532" type="curve"/>
      <point x="60" y="526" type="line"/>
      <point x="138" y="526" type="line"/>
      <point x="65" y="191" type="line" smooth="yes"/>
      <point x="60" y="166"/>
      <point x="55" y="133"/>
      <point x="55" y="109" type="curve" smooth="yes"/>
      <point x="55" y="30"/>
      <point x="110" y="-10"/>
    </contour>
  </outline>
</glyph>
<glyph name="v" format="2">
  <advance width="500"/>
  <unicode hex="0076"/>
  <anchor x="200" y="0" name="bottom"/>
  <anchor x="314" y="536" name="top"/>
  <anchor x="551" y="536" name="topright"/>
  <outline>
    <contour>
      <point x="147" y="-9" type="line"/>
      <point x="252" y="0" type="line"/>
      <point x="353" y="122"/>
      <point x="493" y="298"/>
      <point x="493" y="455" type="curve" smooth="yes"/>
      <point x="493" y="518"/>
      <point x="461" y="546"/>
      <point x="422" y="546" type="curve" smooth="yes"/>
      <point x="378" y="546"/>
      <point x="352" y="506"/>
      <point x="352" y="463" type="curve"/>
      <point x="416" y="463"/>
      <point x="441" y="424"/>
      <point x="441" y="363" type="curve" smooth="yes"/>
      <point x="441" y="260"/>
      <point x="371" y="163"/>
      <point x="289" y="62" type="curve"/>
      <point x="286" y="62" type="line"/>
      <point x="283" y="102"/>
      <point x="279" y="128"/>
      <point x="275" y="170" type="curve" smooth="yes"/>
      <point x="237" y="536" type="line"/>
      <point x="45" y="536" type="line"/>
      <point x="43" y="526" type="line"/>
      <point x="47" y="526" type="line" smooth="yes"/>
      <point x="74" y="526"/>
      <point x="82" y="517"/>
      <point x="87" y="475" type="curve" smooth="yes"/>
    </contour>
  </outline>
</glyph>
<glyph name="y" format="2">
  <advance width="521"/>
  <unicode hex="0079"/>
  <anchor x="45" y="-240" name="bottom"/>
  <anchor x="290" y="536" name="top"/>
  <anchor x="551" y="536" name="topright"/>
  <outline>
    <contour>
      <point x="-57" y="-240" type="curve" smooth="yes"/>
      <point x="130" y="-240"/>
      <point x="199" y="-126"/>
      <point x="342" y="74" type="curve" smooth="yes"/>
      <point x="453" y="229"/>
      <point x="514" y="344"/>
      <point x="514" y="458" type="curve" smooth="yes"/>
      <point x="514" y="508"/>
      <point x="489" y="546"/>
      <point x="439" y="546" type="curve" smooth="yes"/>
      <point x="402" y="546"/>
      <point x="370" y="517"/>
      <point x="370" y="463" type="curve"/>
      <point x="406" y="463"/>
      <point x="460" y="450"/>
      <point x="460" y="369" type="curve" smooth="yes"/>
      <point x="460" y="260"/>
      <point x="405" y="178"/>
      <point x="295" y="25" type="curve"/>
      <point x="292" y="25" type="line"/>
      <point x="288" y="58"/>
      <point x="280" y="158"/>
      <point x="273" y="210" type="curve" smooth="yes"/>
      <point x="231" y="536" type="line"/>
      <point x="33" y="536" type="line"/>
      <point x="30" y="526" type="line"/>
      <point x="37" y="526" type="line" smooth="yes"/>
      <point x="58" y="526"/>
      <point x="65" y="513"/>
      <point x="72" y="473" type="curve" smooth="yes"/>
      <point x="175" y="-124" type="line"/>
      <point x="113" y="-194"/>
      <point x="42" y="-230"/>
      <point x="-57" y="-230" type="curve" smooth="yes"/>
      <point x="-99" y="-230"/>
      <point x="-125" y="-220"/>
      <point x="-146" y="-211" type="curve"/>
      <point x="-149" y="-222" type="line"/>
      <point x="-125" y="-233"/>
      <point x="-93" y="-240"/>
    </contour>
  </outline>
</glyph>
<glyph name="braceleft" format="2">
  <advance width="382"/>
  <unicode hex="007B"/>
  <outline>
    <contour>
      <point x="203" y="-123" type="curve" smooth="yes"/>
      <point x="293" y="-123" type="line"/>
      <point x="296" y="-113" type="line"/>
      <point x="270" y="-113" type="line" smooth="yes"/>
      <point x="232" y="-113"/>
      <point x="218" y="-94"/>
      <point x="218" y="-69" type="curve" smooth="yes"/>
      <point x="218" y="-51"/>
      <point x="221" y="-38"/>
      <point x="225" y="-21" type="curve" smooth="yes"/>
      <point x="266" y="166" type="line" smooth="yes"/>
      <point x="268" y="175"/>
      <point x="272" y="192"/>
      <point x="272" y="208" type="curve" smooth="yes"/>
      <point x="272" y="242"/>
      <point x="247" y="309"/>
      <point x="119" y="315" type="curve"/>
      <point x="121" y="320" type="line"/>
      <point x="269" y="329"/>
      <point x="311" y="384"/>
      <point x="328" y="460" type="curve" smooth="yes"/>
      <point x="377" y="676" type="line" smooth="yes"/>
      <point x="389" y="729"/>
      <point x="399" y="750"/>
      <point x="454" y="750" type="curve" smooth="yes"/>
      <point x="478" y="750" type="line"/>
      <point x="481" y="760" type="line"/>
      <point x="383" y="760" type="line" smooth="yes"/>
      <point x="270" y="760"/>
      <point x="213" y="720"/>
      <point x="190" y="613" type="curve" smooth="yes"/>
      <point x="147" y="411" type="line" smooth="yes"/>
      <point x="132" y="342"/>
      <point x="102" y="327"/>
      <point x="38" y="327" type="curve"/>
      <point x="36" y="317" type="line"/>
      <point x="78" y="315"/>
      <point x="111" y="307"/>
      <point x="111" y="259" type="curve" smooth="yes"/>
      <point x="111" y="247"/>
      <point x="110" y="238"/>
      <point x="107" y="223" type="curve" smooth="yes"/>
      <point x="76" y="83" type="line" smooth="yes"/>
      <point x="62" y="18"/>
      <point x="62" y="4"/>
      <point x="62" y="-8" type="curve" smooth="yes"/>
      <point x="62" y="-78"/>
      <point x="106" y="-123"/>
    </contour>
  </outline>
</glyph>
<glyph name="braceright" format="2">
  <advance width="381"/>
  <unicode hex="007D"/>
  <outline>
    <contour>
      <point x="-78" y="-123" type="line"/>
      <point x="20" y="-123" type="line" smooth="yes"/>
      <point x="133" y="-123"/>
      <point x="190" y="-83"/>
      <point x="213" y="24" type="curve" smooth="yes"/>
      <point x="256" y="226" type="line" smooth="yes"/>
      <point x="271" y="295"/>
      <point x="301" y="310"/>
      <point x="365" y="310" type="curve"/>
      <point x="367" y="320" type="line"/>
      <point x="325" y="322"/>
      <point x="292" y="330"/>
      <point x="292" y="378" type="curve" smooth="yes"/>
      <point x="292" y="390"/>
      <point x="293" y="399"/>
      <point x="296" y="414" type="curve" smooth="yes"/>
      <point x="327" y="554" type="line" smooth="yes"/>
      <point x="341" y="619"/>
      <point x="341" y="633"/>
      <point x="341" y="645" type="curve" smooth="yes"/>
      <point x="341" y="715"/>
      <point x="297" y="760"/>
      <point x="200" y="760" type="curve" smooth="yes"/>
      <point x="110" y="760" type="line"/>
      <point x="107" y="750" type="line"/>
      <point x="133" y="750" type="line" smooth="yes"/>
      <point x="171" y="750"/>
      <point x="185" y="731"/>
      <point x="185" y="706" type="curve" smooth="yes"/>
      <point x="185" y="688"/>
      <point x="182" y="675"/>
      <point x="178" y="658" type="curve" smooth="yes"/>
      <point x="137" y="471" type="line" smooth="yes"/>
      <point x="135" y="462"/>
      <point x="131" y="445"/>
      <point x="131" y="429" type="curve" smooth="yes"/>
      <point x="131" y="395"/>
      <point x="156" y="328"/>
      <point x="284" y="322" type="curve"/>
      <point x="282" y="317" type="line"/>
      <point x="134" y="308"/>
      <point x="92" y="253"/>
      <point x="75" y="177" type="curve" smooth="yes"/>
      <point x="26" y="-39" type="line" smooth="yes"/>
      <point x="14" y="-92"/>
      <point x="4" y="-113"/>
      <point x="-51" y="-113" type="curve" smooth="yes"/>
      <point x="-75" y="-113" type="line"/>
    </contour>
  </outline>
</glyph>
<glyph name="asciitilde" format="2">
  <advance width="425"/>
  <unicode hex="007E"/>
  <outline>
    <contour>
      <point x="66" y="277" type="curve"/>
      <point x="85" y="277" type="line"/>
      <point x="95" y="354"/>
      <point x="106" y="416"/>
      <point x="153" y="416" type="curve" smooth="yes"/>
      <point x="176" y="416"/>
      <point x="185" y="402"/>
      <point x="226" y="345" type="curve" smooth="yes"/>
      <point x="259" y="300"/>
      <point x="276" y="278"/>
      <point x="309" y="278" type="curve" smooth="yes"/>
      <point x="376" y="278"/>
      <point x="389" y="368"/>
      <point x="397" y="435" type="curve"/>
      <point x="378" y="435" type="line"/>
      <point x="368" y="355"/>
      <point x="357" y="298"/>
      <point x="310" y="298" type="curve" smooth="yes"/>
      <point x="285" y="298"/>
      <point x="272" y="315"/>
      <point x="235" y="367" type="curve" smooth="yes"/>
      <point x="197" y="420"/>
      <point x="182" y="436"/>
      <point x="154" y="436" type="curve" smooth="yes"/>
      <point x="87" y="436"/>
      <point x="74" y="346"/>
    </contour>
  </outline>
</glyph>
<glyph name="cent" format="2">
  <advance width="505"/>
  <unicode hex="00A2"/>
  <anchor x="230" y="93" name="bottom"/>
  <anchor x="344" y="629" name="top"/>
  <anchor x="525" y="629" name="topright"/>
  <outline>
    <contour>
      <point x="225" y="0" type="line"/>
      <point x="235" y="0" type="line"/>
      <point x="385" y="714" type="line"/>
      <point x="375" y="714" type="line"/>
    </contour>
    <component base="c" xOffset="29" yOffset="93"/>
  </outline>
</glyph>
<glyph name="sterling" format="2">
  <advance width="505"/>
  <unicode hex="00A3"/>
  <outline>
    <contour>
      <point x="358" y="-10" type="curve" smooth="yes"/>
      <point x="417" y="-10"/>
      <point x="466" y="42"/>
      <point x="502" y="85" type="curve"/>
      <point x="498" y="91" type="line"/>
      <point x="472" y="64"/>
      <point x="453" y="63"/>
      <point x="443" y="63" type="curve" smooth="yes"/>
      <point x="352" y="63"/>
      <point x="359" y="140"/>
      <point x="274" y="140" type="curve" smooth="yes"/>
      <point x="243" y="140"/>
      <point x="213" y="130"/>
      <point x="162" y="99" type="curve"/>
      <point x="161" y="103" type="line"/>
      <point x="270" y="180"/>
      <point x="299" y="233"/>
      <point x="299" y="309" type="curve" smooth="yes"/>
      <point x="299" y="324"/>
      <point x="298" y="354"/>
      <point x="296" y="389" type="curve"/>
      <point x="449" y="389" type="line"/>
      <point x="450" y="399" type="line"/>
      <point x="296" y="399" type="line"/>
      <point x="293" y="460"/>
      <point x="290" y="532"/>
      <point x="290" y="567" type="curve" smooth="yes"/>
      <point x="290" y="659"/>
      <point x="313" y="714"/>
      <point x="354" y="714" type="curve" smooth="yes"/>
      <point x="383" y="714"/>
      <point x="401" y="687"/>
      <point x="401" y="512" type="curve"/>
      <point x="486" y="512"/>
      <point x="533" y="546"/>
      <point x="533" y="606" type="curve" smooth="yes"/>
      <point x="533" y="672"/>
      <point x="475" y="724"/>
      <point x="366" y="724" type="curve" smooth="yes"/>
      <point x="236" y="724"/>
      <point x="149" y="649"/>
      <point x="149" y="508" type="curve" smooth="yes"/>
      <point x="149" y="478"/>
      <point x="153" y="440"/>
      <point x="157" y="399" type="curve"/>
      <point x="76" y="399" type="line"/>
      <point x="75" y="389" type="line"/>
      <point x="158" y="389" type="line"/>
      <point x="162" y="346"/>
      <point x="166" y="299"/>
      <point x="166" y="253" type="curve" smooth="yes"/>
      <point x="166" y="133"/>
      <point x="139" y="103"/>
      <point x="54" y="40" type="curve" smooth="yes"/>
      <point x="27" y="20" type="line"/>
      <point x="31" y="12" type="line"/>
      <point x="82" y="45" type="line" smooth="yes"/>
      <point x="124" y="72"/>
      <point x="159" y="78"/>
      <point x="178" y="78" type="curve" smooth="yes"/>
      <point x="253" y="78"/>
      <point x="281" y="-10"/>
    </contour>
  </outline>
</glyph>
<glyph name="currency" format="2">
  <advance width="559"/>
  <unicode hex="00A4"/>
  <outline>
    <contour>
      <point x="145" y="148" type="line"/>
      <point x="197" y="200" type="line"/>
      <point x="225" y="182"/>
      <point x="260" y="172"/>
      <point x="297" y="172" type="curve" smooth="yes"/>
      <point x="333" y="172"/>
      <point x="369" y="183"/>
      <point x="399" y="202" type="curve"/>
      <point x="452" y="148" type="line"/>
      <point x="508" y="204" type="line"/>
      <point x="454" y="258" type="line"/>
      <point x="471" y="286"/>
      <point x="481" y="318"/>
      <point x="481" y="355" type="curve" smooth="yes"/>
      <point x="481" y="391"/>
      <point x="470" y="425"/>
      <point x="451" y="453" type="curve"/>
      <point x="508" y="512" type="line"/>
      <point x="452" y="569" type="line"/>
      <point x="394" y="510" type="line"/>
      <point x="366" y="529"/>
      <point x="332" y="539"/>
      <point x="297" y="539" type="curve" smooth="yes"/>
      <point x="261" y="539"/>
      <point x="229" y="529"/>
      <point x="201" y="512" type="curve"/>
      <point x="145" y="568" type="line"/>
      <point x="89" y="512" type="line"/>
      <point x="144" y="456" type="line"/>
      <point x="124" y="428"/>
      <point x="114" y="391"/>
      <point x="114" y="355" type="curve" smooth="yes"/>
      <point x="114" y="318"/>
      <point x="122" y="286"/>
      <point x="140" y="258" type="curve"/>
      <point x="87" y="206" type="line"/>
    </contour>
    <contour>
      <point x="297" y="247" type="curve" smooth="yes"/>
      <point x="238" y="247"/>
      <point x="191" y="295"/>
      <point x="191" y="355" type="curve" smooth="yes"/>
      <point x="191" y="416"/>
      <point x="238" y="463"/>
      <point x="297" y="463" type="curve" smooth="yes"/>
      <point x="359" y="463"/>
      <point x="403" y="416"/>
      <point x="403" y="355" type="curve" smooth="yes"/>
      <point x="403" y="295"/>
      <point x="359" y="247"/>
    </contour>
  </outline>
</glyph>
<glyph name="yen" format="2">
  <advance width="505"/>
  <unicode hex="00A5"/>
  <outline>
    <contour>
      <point x="42" y="0" type="line"/>
      <point x="375" y="0" type="line"/>
      <point x="376" y="10" type="line"/>
      <point x="366" y="10" type="line" smooth="yes"/>
      <point x="331" y="10"/>
      <point x="312" y="14"/>
      <point x="312" y="40" type="curve" smooth="yes"/>
      <point x="312" y="52"/>
      <point x="315" y="66"/>
      <point x="319" y="86" type="curve" smooth="yes"/>
      <point x="337" y="187" type="line"/>
      <point x="441" y="187" type="line"/>
      <point x="443" y="197" type="line"/>
      <point x="339" y="197" type="line"/>
      <point x="359" y="307" type="line"/>
      <point x="467" y="307" type="line"/>
      <point x="469" y="316" type="line"/>
      <point x="363" y="316" type="line"/>
      <point x="509" y="626" type="line" smooth="yes"/>
      <point x="535" y="681"/>
      <point x="560" y="704"/>
      <point x="598" y="704" type="curve" smooth="yes"/>
      <point x="605" y="704" type="line"/>
      <point x="607" y="714" type="line"/>
      <point x="427" y="714" type="line"/>
      <point x="425" y="704" type="line"/>
      <point x="448" y="704" type="line" smooth="yes"/>
      <point x="493" y="704"/>
      <point x="505" y="694"/>
      <point x="505" y="666" type="curve" smooth="yes"/>
      <point x="505" y="650"/>
      <point x="497" y="628"/>
      <point x="485" y="603" type="curve" smooth="yes"/>
      <point x="386" y="391" type="line" smooth="yes"/>
      <point x="373" y="364"/>
      <point x="359" y="335"/>
      <point x="352" y="316" type="curve"/>
      <point x="348" y="346"/>
      <point x="337" y="409"/>
      <point x="330" y="451" type="curve" smooth="yes"/>
      <point x="307" y="595" type="line" smooth="yes"/>
      <point x="300" y="638"/>
      <point x="296" y="662"/>
      <point x="296" y="678" type="curve" smooth="yes"/>
      <point x="296" y="692"/>
      <point x="301" y="704"/>
      <point x="324" y="704" type="curve" smooth="yes"/>
      <point x="352" y="704" type="line"/>
      <point x="354" y="714" type="line"/>
      <point x="110" y="714" type="line"/>
      <point x="108" y="704" type="line"/>
      <point x="115" y="704" type="line" smooth="yes"/>
      <point x="138" y="704"/>
      <point x="142" y="691"/>
      <point x="148" y="650" type="curve" smooth="yes"/>
      <point x="199" y="316" type="line"/>
      <point x="80" y="316" type="line"/>
      <point x="78" y="307" type="line"/>
      <point x="198" y="307" type="line"/>
      <point x="178" y="197" type="line"/>
      <point x="55" y="197" type="line"/>
      <point x="53" y="187" type="line"/>
      <point x="176" y="187" type="line"/>
      <point x="154" y="68" type="line" smooth="yes"/>
      <point x="146" y="22"/>
      <point x="115" y="10"/>
      <point x="82" y="10" type="curve" smooth="yes"/>
      <point x="44" y="10" type="line"/>
    </contour>
  </outline>
</glyph>
<glyph name="section" format="2">
  <advance width="444"/>
  <unicode hex="00A7"/>
  <outline>
    <contour>
      <point x="182" y="-115" type="curve" smooth="yes"/>
      <point x="292" y="-115"/>
      <point x="364" y="-23"/>
      <point x="364" y="90" type="curve" smooth="yes"/>
      <point x="364" y="146"/>
      <point x="350" y="183"/>
      <point x="331" y="204" type="curve"/>
      <point x="378" y="223"/>
      <point x="430" y="262"/>
      <point x="430" y="324" type="curve" smooth="yes"/>
      <point x="430" y="385"/>
      <point x="400" y="425"/>
      <point x="310" y="480" type="curve" smooth="yes"/>
      <point x="240" y="523"/>
      <point x="209" y="545"/>
      <point x="209" y="635" type="curve" smooth="yes"/>
      <point x="209" y="715"/>
      <point x="249" y="750"/>
      <point x="285" y="750" type="curve" smooth="yes"/>
      <point x="336" y="750"/>
      <point x="356" y="704"/>
      <point x="356" y="567" type="curve"/>
      <point x="409" y="567"/>
      <point x="451" y="584"/>
      <point x="451" y="646" type="curve" smooth="yes"/>
      <point x="451" y="710"/>
      <point x="409" y="760"/>
      <point x="285" y="760" type="curve" smooth="yes"/>
      <point x="193" y="760"/>
      <point x="106" y="694"/>
      <point x="106" y="579" type="curve" smooth="yes"/>
      <point x="106" y="526"/>
      <point x="124" y="490"/>
      <point x="134" y="471" type="curve"/>
      <point x="84" y="452"/>
      <point x="43" y="418"/>
      <point x="43" y="346" type="curve" smooth="yes"/>
      <point x="43" y="289"/>
      <point x="65" y="237"/>
      <point x="164" y="178" type="curve" smooth="yes"/>
      <point x="241" y="132"/>
      <point x="274" y="107"/>
      <point x="274" y="23" type="curve" smooth="yes"/>
      <point x="274" y="-66"/>
      <point x="233" y="-105"/>
      <point x="182" y="-105" type="curve" smooth="yes"/>
      <point x="124" y="-105"/>
      <point x="99" y="-58"/>
      <point x="99" y="106" type="curve"/>
      <point x="59" y="106"/>
      <point x="0" y="88"/>
      <point x="0" y="10" type="curve" smooth="yes"/>
      <point x="0" y="-62"/>
      <point x="68" y="-115"/>
    </contour>
    <contour>
      <point x="326" y="212" type="curve"/>
      <point x="307" y="229"/>
      <point x="282" y="248"/>
      <point x="223" y="280" type="curve" smooth="yes"/>
      <point x="127" y="332"/>
      <point x="109" y="362"/>
      <point x="109" y="401" type="curve" smooth="yes"/>
      <point x="109" y="428"/>
      <point x="120" y="449"/>
      <point x="140" y="463" type="curve"/>
      <point x="172" y="428"/>
      <point x="188" y="413"/>
      <point x="253" y="376" type="curve" smooth="yes"/>
      <point x="334" y="330"/>
      <point x="353" y="304"/>
      <point x="353" y="273" type="curve" smooth="yes"/>
      <point x="353" y="249"/>
      <point x="344" y="226"/>
    </contour>
  </outline>
</glyph>
<glyph name="dieresis" format="2">
  <advance width="471"/>
  <unicode hex="00A8"/>
  <outline>
    <contour>
      <point x="407" y="613" type="curve" smooth="yes"/>
      <point x="436" y="613"/>
      <point x="468" y="634"/>
      <point x="468" y="696" type="curve" smooth="yes"/>
      <point x="468" y="735"/>
      <point x="448" y="753"/>
      <point x="417" y="753" type="curve" smooth="yes"/>
      <point x="379" y="753"/>
      <point x="355" y="719"/>
      <point x="355" y="670" type="curve" smooth="yes"/>
      <point x="355" y="631"/>
      <point x="375" y="613"/>
    </contour>
    <contour>
      <point x="231" y="613" type="curve" smooth="yes"/>
      <point x="259" y="613"/>
      <point x="292" y="634"/>
      <point x="292" y="696" type="curve" smooth="yes"/>
      <point x="292" y="735"/>
      <point x="271" y="753"/>
      <point x="241" y="753" type="curve" smooth="yes"/>
      <point x="202" y="753"/>
      <point x="179" y="719"/>
      <point x="179" y="670" type="curve" smooth="yes"/>
      <point x="179" y="631"/>
      <point x="199" y="613"/>
    </contour>
  </outline>
</glyph>
<glyph name="copyright" format="2">
  <advance width="705"/>
  <unicode hex="00A9"/>
  <outline>
    <contour>
      <point x="373" y="-10" type="curve" smooth="yes"/>
      <point x="558" y="-10"/>
      <point x="671" y="130"/>
      <point x="671" y="358" type="curve" smooth="yes"/>
      <point x="671" y="586"/>
      <point x="558" y="725"/>
      <point x="374" y="725" type="curve" smooth="yes"/>
      <point x="187" y="725"/>
      <point x="73" y="586"/>
      <point x="73" y="358" type="curve" smooth="yes"/>
      <point x="73" y="130"/>
      <point x="187" y="-10"/>
    </contour>
    <contour>
      <point x="380" y="103" type="curve" smooth="yes"/>
      <point x="467" y="103"/>
      <point x="511" y="160"/>
      <point x="511" y="199" type="curve" smooth="yes"/>
      <point x="511" y="218"/>
      <point x="500" y="230"/>
      <point x="482" y="235" type="curve"/>
      <point x="470" y="149"/>
      <point x="440" y="113"/>
      <point x="386" y="113" type="curve" smooth="yes"/>
      <point x="301" y="113"/>
      <point x="265" y="202"/>
      <point x="265" y="359" type="curve" smooth="yes"/>
      <point x="265" y="520"/>
      <point x="307" y="601"/>
      <point x="382" y="601" type="curve" smooth="yes"/>
      <point x="442" y="601"/>
      <point x="475" y="550"/>
      <point x="475" y="458" type="curve"/>
      <point x="500" y="458"/>
      <point x="518" y="477"/>
      <point x="518" y="509" type="curve" smooth="yes"/>
      <point x="518" y="558"/>
      <point x="475" y="611"/>
      <point x="382" y="611" type="curve" smooth="yes"/>
      <point x="257" y="611"/>
      <point x="201" y="517"/>
      <point x="201" y="363" type="curve" smooth="yes"/>
      <point x="201" y="191"/>
      <point x="271" y="103"/>
    </contour>
    <contour>
      <point x="376" y="0" type="curve" smooth="yes"/>
      <point x="195" y="0"/>
      <point x="84" y="136"/>
      <point x="84" y="359" type="curve" smooth="yes"/>
      <point x="84" y="580"/>
      <point x="194" y="715"/>
      <point x="374" y="715" type="curve" smooth="yes"/>
      <point x="551" y="715"/>
      <point x="659" y="579"/>
      <point x="659" y="358" type="curve" smooth="yes"/>
      <point x="659" y="136"/>
      <point x="551" y="0"/>
    </contour>
  </outline>
</glyph>
<glyph name="logicalnot" format="2">
  <advance width="425"/>
  <unicode hex="00AC"/>
  <outline>
    <contour>
      <point x="346" y="99" type="line"/>
      <point x="366" y="99" type="line"/>
      <point x="366" y="376" type="line"/>
      <point x="46" y="376" type="line"/>
      <point x="46" y="356" type="line"/>
      <point x="346" y="356" type="line"/>
    </contour>
  </outline>
</glyph>
<glyph name="registered" format="2">
  <advance width="705"/>
  <unicode hex="00AE"/>
  <outline>
    <contour>
      <point x="375" y="-10" type="curve" smooth="yes"/>
      <point x="535" y="-10"/>
      <point x="652" y="144"/>
      <point x="652" y="357" type="curve" smooth="yes"/>
      <point x="652" y="571"/>
      <point x="535" y="725"/>
      <point x="375" y="725" type="curve" smooth="yes"/>
      <point x="210" y="725"/>
      <point x="91" y="570"/>
      <point x="91" y="358" type="curve" smooth="yes"/>
      <point x="91" y="144"/>
      <point x="210" y="-10"/>
    </contour>
    <contour>
      <point x="377" y="0" type="curve" smooth="yes"/>
      <point x="223" y="0"/>
      <point x="102" y="146"/>
      <point x="102" y="358" type="curve" smooth="yes"/>
      <point x="102" y="565"/>
      <point x="217" y="715"/>
      <point x="375" y="715" type="curve" smooth="yes"/>
      <point x="528" y="715"/>
      <point x="641" y="564"/>
      <point x="641" y="358" type="curve" smooth="yes"/>
      <point x="641" y="151"/>
      <point x="528" y="0"/>
    </contour>
    <contour>
      <point x="214" y="141" type="line"/>
      <point x="375" y="141" type="line"/>
      <point x="375" y="151" type="line"/>
      <point x="364" y="151" type="line" smooth="yes"/>
      <point x="343" y="151"/>
      <point x="324" y="155"/>
      <point x="324" y="186" type="curve" smooth="yes"/>
      <point x="324" y="341" type="line"/>
      <point x="361" y="341" type="line"/>
      <point x="460" y="141" type="line"/>
      <point x="545" y="141" type="line"/>
      <point x="545" y="151" type="line"/>
      <point x="537" y="151"/>
      <point x="528" y="153"/>
      <point x="522" y="166" type="curve" smooth="yes"/>
      <point x="429" y="352" type="line"/>
      <point x="468" y="368"/>
      <point x="503" y="405"/>
      <point x="503" y="468" type="curve" smooth="yes"/>
      <point x="503" y="531"/>
      <point x="457" y="579"/>
      <point x="361" y="579" type="curve" smooth="yes"/>
      <point x="214" y="579" type="line"/>
      <point x="214" y="569" type="line"/>
      <point x="225" y="569" type="line" smooth="yes"/>
      <point x="243" y="569"/>
      <point x="260" y="565"/>
      <point x="260" y="534" type="curve" smooth="yes"/>
      <point x="260" y="186" type="line" smooth="yes"/>
      <point x="260" y="155"/>
      <point x="243" y="151"/>
      <point x="225" y="151" type="curve" smooth="yes"/>
      <point x="214" y="151" type="line"/>
    </contour>
    <contour>
      <point x="324" y="351" type="line"/>
      <point x="324" y="569" type="line"/>
      <point x="357" y="569" type="line" smooth="yes"/>
      <point x="411" y="569"/>
      <point x="436" y="526"/>
      <point x="436" y="470" type="curve" smooth="yes"/>
      <point x="436" y="398"/>
      <point x="415" y="351"/>
      <point x="360" y="351" type="curve" smooth="yes"/>
    </contour>
  </outline>
</glyph>
<glyph name="overscore" format="2">
  <advance width="374"/>
  <unicode hex="00AF"/>
  <outline>
    <contour>
      <point x="108" y="773" type="line"/>
      <point x="480" y="773" type="line"/>
      <point x="484" y="793" type="line"/>
      <point x="113" y="793" type="line"/>
    </contour>
  </outline>
</glyph>
<glyph name="degree" format="2">
  <advance width="334"/>
  <unicode hex="00B0"/>
  <outline>
    <contour>
      <point x="233" y="441" type="curve" smooth="yes"/>
      <point x="302" y="441"/>
      <point x="345" y="495"/>
      <point x="345" y="582" type="curve" smooth="yes"/>
      <point x="345" y="670"/>
      <point x="302" y="724"/>
      <point x="233" y="724" type="curve" smooth="yes"/>
      <point x="164" y="724"/>
      <point x="122" y="670"/>
      <point x="122" y="582" type="curve" smooth="yes"/>
      <point x="122" y="495"/>
      <point x="164" y="441"/>
    </contour>
    <contour>
      <point x="235" y="461" type="curve" smooth="yes"/>
      <point x="177" y="461"/>
      <point x="142" y="508"/>
      <point x="142" y="584" type="curve" smooth="yes"/>
      <point x="142" y="658"/>
      <point x="177" y="704"/>
      <point x="235" y="704" type="curve" smooth="yes"/>
      <point x="291" y="704"/>
      <point x="325" y="658"/>
      <point x="325" y="584" type="curve" smooth="yes"/>
      <point x="325" y="508"/>
      <point x="291" y="461"/>
    </contour>
  </outline>
</glyph>
<glyph name="plusminus" format="2">
  <advance width="425"/>
  <unicode hex="00B1"/>
  <outline>
    <contour>
      <point x="33" y="16" type="line"/>
      <point x="358" y="16" type="line"/>
      <point x="358" y="36" type="line"/>
      <point x="33" y="36" type="line"/>
    </contour>
    <component base="plus" xOffset="-36"/>
  </outline>
</glyph>
<glyph name="twosuperior" format="2">
  <advance width="343"/>
  <unicode hex="00B2"/>
  <outline>
    <contour>
      <point x="64" y="386" type="line"/>
      <point x="336" y="386" type="line"/>
      <point x="365" y="541" type="line"/>
      <point x="357" y="541" type="line"/>
      <point x="350" y="511" type="line" smooth="yes"/>
      <point x="345" y="488"/>
      <point x="331" y="479"/>
      <point x="304" y="479" type="curve" smooth="yes"/>
      <point x="111" y="479" type="line"/>
      <point x="250" y="570" type="line" smooth="yes"/>
      <point x="360" y="642"/>
      <point x="394" y="671"/>
      <point x="394" y="736" type="curve" smooth="yes"/>
      <point x="394" y="787"/>
      <point x="350" y="824"/>
      <point x="280" y="824" type="curve" smooth="yes"/>
      <point x="199" y="824"/>
      <point x="148" y="784"/>
      <point x="148" y="727" type="curve" smooth="yes"/>
      <point x="148" y="695"/>
      <point x="177" y="673"/>
      <point x="222" y="673" type="curve"/>
      <point x="229" y="786"/>
      <point x="248" y="814"/>
      <point x="271" y="814" type="curve" smooth="yes"/>
      <point x="294" y="814"/>
      <point x="298" y="790"/>
      <point x="298" y="752" type="curve" smooth="yes"/>
      <point x="298" y="667"/>
      <point x="263" y="611"/>
      <point x="195" y="557" type="curve" smooth="yes"/>
      <point x="78" y="464" type="line"/>
    </contour>
  </outline>
</glyph>
<glyph name="threesuperior" format="2">
  <advance width="343"/>
  <unicode hex="00B3"/>
  <outline>
    <contour>
      <point x="198" y="380" type="curve" smooth="yes"/>
      <point x="299" y="380"/>
      <point x="373" y="428"/>
      <point x="373" y="515" type="curve" smooth="yes"/>
      <point x="373" y="578"/>
      <point x="334" y="604"/>
      <point x="255" y="607" type="curve"/>
      <point x="255" y="612" type="line"/>
      <point x="344" y="628"/>
      <point x="399" y="656"/>
      <point x="399" y="730" type="curve" smooth="yes"/>
      <point x="399" y="791"/>
      <point x="361" y="824"/>
      <point x="284" y="824" type="curve" smooth="yes"/>
      <point x="198" y="824"/>
      <point x="153" y="783"/>
      <point x="153" y="740" type="curve" smooth="yes"/>
      <point x="153" y="704"/>
      <point x="183" y="688"/>
      <point x="230" y="688" type="curve"/>
      <point x="244" y="787"/>
      <point x="252" y="814"/>
      <point x="275" y="814" type="curve" smooth="yes"/>
      <point x="297" y="814"/>
      <point x="301" y="788"/>
      <point x="301" y="755" type="curve" smooth="yes"/>
      <point x="301" y="648"/>
      <point x="258" y="613"/>
      <point x="209" y="613" type="curve" smooth="yes"/>
      <point x="185" y="613" type="line"/>
      <point x="184" y="603" type="line"/>
      <point x="205" y="603" type="line" smooth="yes"/>
      <point x="257" y="603"/>
      <point x="278" y="567"/>
      <point x="278" y="502" type="curve" smooth="yes"/>
      <point x="278" y="416"/>
      <point x="242" y="390"/>
      <point x="205" y="390" type="curve" smooth="yes"/>
      <point x="154" y="390"/>
      <point x="142" y="441"/>
      <point x="142" y="523" type="curve"/>
      <point x="100" y="523"/>
      <point x="69" y="501"/>
      <point x="69" y="461" type="curve" smooth="yes"/>
      <point x="69" y="413"/>
      <point x="115" y="380"/>
    </contour>
  </outline>
</glyph>
<glyph name="acute" format="2">
  <advance width="325"/>
  <unicode hex="00B4"/>
  <outline>
    <contour>
      <point x="112" y="606" type="line"/>
      <point x="123" y="606" type="line"/>
      <point x="209" y="638"/>
      <point x="356" y="726"/>
      <point x="388" y="756" type="curve"/>
      <point x="391" y="766" type="line"/>
      <point x="230" y="766" type="line"/>
      <point x="201" y="719"/>
      <point x="152" y="651"/>
      <point x="114" y="614" type="curve"/>
    </contour>
  </outline>
</glyph>
<glyph name="micro" format="2">
  <advance width="607"/>
  <unicode hex="00B5"/>
  <outline>
    <contour>
      <point x="73" y="-240" type="curve" smooth="yes"/>
      <point x="114" y="-240"/>
      <point x="160" y="-212"/>
      <point x="170" y="-153" type="curve"/>
      <point x="69" y="-153"/>
      <point x="34" y="-130"/>
      <point x="34" y="-56" type="curve" smooth="yes"/>
      <point x="34" y="2"/>
      <point x="58" y="80"/>
      <point x="70" y="132" type="curve"/>
      <point x="82" y="76"/>
      <point x="91" y="-10"/>
      <point x="214" y="-10" type="curve" smooth="yes"/>
      <point x="273" y="-10"/>
      <point x="319" y="25"/>
      <point x="343" y="140" type="curve"/>
      <point x="347" y="140" type="line"/>
      <point x="347" y="33"/>
      <point x="373" y="-10"/>
      <point x="471" y="-10" type="curve" smooth="yes"/>
      <point x="545" y="-10"/>
      <point x="584" y="22"/>
      <point x="614" y="68" type="curve"/>
      <point x="609" y="75" type="line"/>
      <point x="581" y="35"/>
      <point x="555" y="16"/>
      <point x="531" y="16" type="curve" smooth="yes"/>
      <point x="509" y="16"/>
      <point x="498" y="31"/>
      <point x="498" y="69" type="curve" smooth="yes"/>
      <point x="498" y="99"/>
      <point x="502" y="136"/>
      <point x="511" y="179" type="curve" smooth="yes"/>
      <point x="584" y="536" type="line"/>
      <point x="418" y="536" type="line"/>
      <point x="351" y="217" type="line" smooth="yes"/>
      <point x="320" y="68"/>
      <point x="297" y="15"/>
      <point x="249" y="15" type="curve" smooth="yes"/>
      <point x="227" y="15"/>
      <point x="217" y="34"/>
      <point x="217" y="64" type="curve" smooth="yes"/>
      <point x="217" y="90"/>
      <point x="223" y="115"/>
      <point x="230" y="148" type="curve" smooth="yes"/>
      <point x="315" y="536" type="line"/>
      <point x="147" y="536" type="line"/>
      <point x="80" y="225" type="line" smooth="yes"/>
      <point x="37" y="25"/>
      <point x="-6" y="-74"/>
      <point x="-6" y="-153" type="curve" smooth="yes"/>
      <point x="-6" y="-218"/>
      <point x="32" y="-240"/>
    </contour>
  </outline>
</glyph>
<glyph name="paragraph" format="2">
  <advance width="634"/>
  <unicode hex="00B6"/>
  <outline>
    <contour>
      <point x="210" y="-111" type="line"/>
      <point x="385" y="-111" type="line"/>
      <point x="385" y="750" type="line"/>
      <point x="461" y="750" type="line"/>
      <point x="461" y="-111" type="line"/>
      <point x="636" y="-111" type="line"/>
      <point x="636" y="-101" type="line"/>
      <point x="623" y="-101" type="line" smooth="yes"/>
      <point x="578" y="-101"/>
      <point x="541" y="-94"/>
      <point x="541" y="-31" type="curve" smooth="yes"/>
      <point x="541" y="678" type="line" smooth="yes"/>
      <point x="541" y="741"/>
      <point x="578" y="750"/>
      <point x="623" y="750" type="curve" smooth="yes"/>
      <point x="636" y="750" type="line"/>
      <point x="636" y="760" type="line"/>
      <point x="236" y="760" type="line" smooth="yes"/>
      <point x="123" y="760"/>
      <point x="81" y="678"/>
      <point x="81" y="571" type="curve" smooth="yes"/>
      <point x="81" y="467"/>
      <point x="117" y="386"/>
      <point x="234" y="386" type="curve" smooth="yes"/>
      <point x="305" y="386" type="line"/>
      <point x="305" y="-31" type="line" smooth="yes"/>
      <point x="305" y="-94"/>
      <point x="268" y="-101"/>
      <point x="223" y="-101" type="curve" smooth="yes"/>
      <point x="210" y="-101" type="line"/>
    </contour>
  </outline>
</glyph>
<glyph name="periodcentered" format="2">
  <advance width="261"/>
  <unicode hex="00B7"/>
  <outline>
    <contour>
      <point x="143" y="270" type="curve" smooth="yes"/>
      <point x="185" y="270"/>
      <point x="233" y="295"/>
      <point x="233" y="368" type="curve" smooth="yes"/>
      <point x="233" y="417"/>
      <point x="201" y="441"/>
      <point x="155" y="441" type="curve" smooth="yes"/>
      <point x="101" y="441"/>
      <point x="65" y="401"/>
      <point x="65" y="342" type="curve" smooth="yes"/>
      <point x="65" y="293"/>
      <point x="97" y="270"/>
    </contour>
  </outline>
</glyph>
<glyph name="cedilla" format="2">
  <advance width="272"/>
  <unicode hex="00B8"/>
  <outline>
    <contour>
      <point x="90" y="-240" type="curve" smooth="yes"/>
      <point x="164" y="-240"/>
      <point x="229" y="-203"/>
      <point x="229" y="-125" type="curve" smooth="yes"/>
      <point x="229" y="-74"/>
      <point x="207" y="-34"/>
      <point x="108" y="-34" type="curve"/>
      <point x="126" y="9" type="line"/>
      <point x="116" y="9" type="line"/>
      <point x="96" y="-41" type="line"/>
      <point x="125" y="-46"/>
      <point x="132" y="-79"/>
      <point x="132" y="-114" type="curve" smooth="yes"/>
      <point x="132" y="-203"/>
      <point x="102" y="-224"/>
      <point x="60" y="-224" type="curve" smooth="yes"/>
      <point x="46" y="-224"/>
      <point x="26" y="-221"/>
      <point x="7" y="-216" type="curve"/>
      <point x="5" y="-226" type="line"/>
      <point x="27" y="-234"/>
      <point x="50" y="-240"/>
    </contour>
  </outline>
</glyph>
<glyph name="onesuperior" format="2">
  <advance width="343"/>
  <unicode hex="00B9"/>
  <outline>
    <contour>
      <point x="75" y="387" type="line"/>
      <point x="318" y="387" type="line"/>
      <point x="320" y="397" type="line"/>
      <point x="299" y="397" type="line" smooth="yes"/>
      <point x="276" y="397"/>
      <point x="257" y="400"/>
      <point x="257" y="424" type="curve" smooth="yes"/>
      <point x="257" y="430"/>
      <point x="259" y="437"/>
      <point x="261" y="447" type="curve" smooth="yes"/>
      <point x="338" y="819" type="line"/>
      <point x="305" y="819" type="line"/>
      <point x="265" y="777"/>
      <point x="196" y="737"/>
      <point x="140" y="737" type="curve"/>
      <point x="141" y="712"/>
      <point x="150" y="689"/>
      <point x="175" y="689" type="curve" smooth="yes"/>
      <point x="197" y="689"/>
      <point x="214" y="713"/>
      <point x="236" y="757" type="curve"/>
      <point x="238" y="757" type="line"/>
      <point x="171" y="435" type="line" smooth="yes"/>
      <point x="164" y="401"/>
      <point x="142" y="397"/>
      <point x="115" y="397" type="curve" smooth="yes"/>
      <point x="77" y="397" type="line"/>
    </contour>
  </outline>
</glyph>
<glyph name="ordmasculine" format="2">
  <advance width="377"/>
  <unicode hex="00BA"/>
  <anchor x="212" y="388" name="bottom"/>
  <anchor x="288" y="724" name="top"/>
  <outline>
    <contour>
      <point x="216" y="381" type="curve" smooth="yes"/>
      <point x="359" y="381"/>
      <point x="423" y="512"/>
      <point x="423" y="596" type="curve" smooth="yes"/>
      <point x="423" y="682"/>
      <point x="360" y="720"/>
      <point x="284" y="720" type="curve" smooth="yes"/>
      <point x="147" y="720"/>
      <point x="76" y="598"/>
      <point x="76" y="508" type="curve" smooth="yes"/>
      <point x="76" y="425"/>
      <point x="132" y="381"/>
    </contour>
    <contour>
      <point x="229" y="391" type="curve" smooth="yes"/>
      <point x="201" y="391"/>
      <point x="188" y="416"/>
      <point x="188" y="483" type="curve" smooth="yes"/>
      <point x="188" y="637"/>
      <point x="236" y="710"/>
      <point x="278" y="710" type="curve" smooth="yes"/>
      <point x="309" y="710"/>
      <point x="316" y="671"/>
      <point x="316" y="617" type="curve" smooth="yes"/>
      <point x="316" y="488"/>
      <point x="282" y="391"/>
    </contour>
  </outline>
</glyph>
<glyph name="Aring" format="2">
  <advance width="650"/>
  <unicode hex="00C5"/>
  <anchor x="268" y="0" name="bottom"/>
  <anchor x="447" y="862" name="top"/>
  <anchor x="725" y="714" name="topright"/>
  <outline>
    <contour>
      <point x="-35" y="0" type="line" smooth="yes"/>
      <point x="187" y="0" type="line"/>
      <point x="189" y="10" type="line"/>
      <point x="176" y="10" type="line" smooth="yes"/>
      <point x="99" y="10"/>
      <point x="66" y="20"/>
      <point x="66" y="44" type="curve" smooth="yes"/>
      <point x="66" y="58"/>
      <point x="76" y="77"/>
      <point x="88" y="102" type="curve" smooth="yes"/>
      <point x="255" y="446" type="line" smooth="yes"/>
      <point x="299" y="537"/>
      <point x="344" y="624"/>
      <point x="367" y="672" type="curve"/>
      <point x="367" y="624"/>
      <point x="371" y="523"/>
      <point x="373" y="464" type="curve" smooth="yes"/>
      <point x="387" y="89" type="line" smooth="yes"/>
      <point x="387" y="78"/>
      <point x="388" y="65"/>
      <point x="388" y="58" type="curve" smooth="yes"/>
      <point x="388" y="22"/>
      <point x="354" y="10"/>
      <point x="318" y="10" type="curve" smooth="yes"/>
      <point x="299" y="10" type="line"/>
      <point x="297" y="0" type="line"/>
      <point x="609" y="0" type="line"/>
      <point x="612" y="10" type="line"/>
      <point x="599" y="10" type="line" smooth="yes"/>
      <point x="565" y="10"/>
      <point x="562" y="39"/>
      <point x="558" y="101" type="curve" smooth="yes"/>
      <point x="519" y="720" type="line"/>
      <point x="491" y="695" type="line"/>
      <point x="434" y="687" type="line"/>
      <point x="377" y="714" type="line"/>
      <point x="68" y="88" type="line" smooth="yes"/>
      <point x="37" y="25"/>
      <point x="16" y="10"/>
      <point x="-16" y="10" type="curve" smooth="yes"/>
      <point x="-32" y="10" type="line"/>
    </contour>
    <contour>
      <point x="157" y="260" type="line" smooth="yes"/>
      <point x="475" y="260" type="line"/>
      <point x="475" y="271" type="line"/>
      <point x="162" y="271" type="line"/>
    </contour>
    <component base="ring" xOffset="220" yOffset="88"/>
  </outline>
</glyph>
<glyph name="AE" format="2">
  <advance width="810"/>
  <unicode hex="00C6"/>
  <anchor x="398" y="0" name="bottom"/>
  <anchor x="633" y="714" name="top"/>
  <outline>
    <contour>
      <point x="-57" y="0" type="line"/>
      <point x="153" y="0" type="line"/>
      <point x="155" y="10" type="line"/>
      <point x="99" y="10" type="line" smooth="yes"/>
      <point x="64" y="10"/>
      <point x="41" y="22"/>
      <point x="41" y="42" type="curve" smooth="yes"/>
      <point x="41" y="58"/>
      <point x="44" y="69"/>
      <point x="65" y="102" type="curve" smooth="yes"/>
      <point x="172" y="265" type="line"/>
      <point x="375" y="265" type="line"/>
      <point x="333" y="66" type="line" smooth="yes"/>
      <point x="323" y="20"/>
      <point x="294" y="10"/>
      <point x="260" y="10" type="curve" smooth="yes"/>
      <point x="247" y="10" type="line"/>
      <point x="245" y="0" type="line"/>
      <point x="741" y="0" type="line"/>
      <point x="789" y="194" type="line"/>
      <point x="779" y="194" type="line"/>
      <point x="762" y="145" type="line" smooth="yes"/>
      <point x="738" y="77"/>
      <point x="681" y="10"/>
      <point x="569" y="10" type="curve" smooth="yes"/>
      <point x="490" y="10" type="line"/>
      <point x="568" y="372" type="line"/>
      <point x="744" y="372" type="line"/>
      <point x="746" y="382" type="line"/>
      <point x="570" y="382" type="line"/>
      <point x="638" y="704" type="line"/>
      <point x="717" y="704" type="line" smooth="yes"/>
      <point x="769" y="704"/>
      <point x="828" y="673"/>
      <point x="828" y="595" type="curve" smooth="yes"/>
      <point x="828" y="563"/>
      <point x="822" y="529"/>
      <point x="820" y="520" type="curve"/>
      <point x="830" y="520" type="line"/>
      <point x="867" y="714" type="line"/>
      <point x="353" y="714" type="line"/>
      <point x="351" y="704" type="line"/>
      <point x="444" y="704" type="line"/>
      <point x="43" y="86" type="line" smooth="yes"/>
      <point x="10" y="36"/>
      <point x="-14" y="10"/>
      <point x="-48" y="10" type="curve" smooth="yes"/>
      <point x="-55" y="10" type="line"/>
    </contour>
    <contour>
      <point x="179" y="275" type="line"/>
      <point x="345" y="536" type="line" smooth="yes"/>
      <point x="384" y="597"/>
      <point x="401" y="618"/>
      <point x="456" y="704" type="curve"/>
      <point x="469" y="704" type="line"/>
      <point x="377" y="275" type="line"/>
    </contour>
  </outline>
</glyph>
<glyph name="Eth" format="2">
  <advance width="659"/>
  <unicode hex="00D0"/>
  <anchor x="273" y="0" name="bottom"/>
  <anchor x="425" y="714" name="top"/>
  <anchor x="344" y="357" name="center"/>
  <anchor x="710" y="714" name="topright"/>
  <outline>
    <contour>
      <point x="76" y="376" type="line"/>
      <point x="394" y="376" type="line"/>
      <point x="396" y="386" type="line"/>
      <point x="78" y="386" type="line"/>
    </contour>
    <component base="D"/>
  </outline>
</glyph>
<glyph name="multiply" format="2">
  <advance width="425"/>
  <unicode hex="00D7"/>
  <outline>
    <contour>
      <point x="86" y="153" type="line"/>
      <point x="232" y="347" type="line"/>
      <point x="378" y="153" type="line"/>
      <point x="394" y="165" type="line"/>
      <point x="245" y="364" type="line"/>
      <point x="394" y="562" type="line"/>
      <point x="378" y="574" type="line"/>
      <point x="232" y="380" type="line"/>
      <point x="86" y="574" type="line"/>
      <point x="70" y="562" type="line"/>
      <point x="219" y="364" type="line"/>
      <point x="70" y="165" type="line"/>
    </contour>
  </outline>
</glyph>
<glyph name="Oslash" format="2">
  <advance width="685"/>
  <unicode hex="00D8"/>
  <anchor x="285" y="0" name="bottom"/>
  <anchor x="437" y="714" name="top"/>
  <anchor x="364" y="357" name="center"/>
  <anchor x="743" y="714" name="topright"/>
  <outline>
    <contour>
      <point x="104" y="-50" type="line"/>
      <point x="116" y="-50" type="line"/>
      <point x="649" y="765" type="line"/>
      <point x="637" y="765" type="line"/>
    </contour>
    <component base="O"/>
  </outline>
</glyph>
<glyph name="Thorn" format="2">
  <advance width="560"/>
  <unicode hex="00DE"/>
  <anchor x="216" y="0" name="bottom"/>
  <anchor x="368" y="714" name="top"/>
  <outline>
    <contour>
      <point x="-21" y="0" type="line"/>
      <point x="292" y="0" type="line"/>
      <point x="294" y="10" type="line"/>
      <point x="289" y="10" type="line" smooth="yes"/>
      <point x="256" y="10"/>
      <point x="232" y="14"/>
      <point x="232" y="40" type="curve" smooth="yes"/>
      <point x="232" y="49"/>
      <point x="233" y="56"/>
      <point x="235" y="64" type="curve" smooth="yes"/>
      <point x="255" y="158" type="line"/>
      <point x="311" y="158" type="line" smooth="yes"/>
      <point x="524" y="158"/>
      <point x="573" y="290"/>
      <point x="573" y="396" type="curve" smooth="yes"/>
      <point x="573" y="517"/>
      <point x="489" y="562"/>
      <point x="360" y="562" type="curve" smooth="yes"/>
      <point x="341" y="562" type="line"/>
      <point x="360" y="651" type="line" smooth="yes"/>
      <point x="370" y="696"/>
      <point x="401" y="704"/>
      <point x="438" y="704" type="curve" smooth="yes"/>
      <point x="441" y="704" type="line"/>
      <point x="443" y="714" type="line"/>
      <point x="128" y="714" type="line"/>
      <point x="126" y="704" type="line"/>
      <point x="131" y="704" type="line" smooth="yes"/>
      <point x="167" y="704"/>
      <point x="192" y="700"/>
      <point x="192" y="674" type="curve" smooth="yes"/>
      <point x="192" y="664"/>
      <point x="189" y="651"/>
      <point x="185" y="634" type="curve" smooth="yes"/>
      <point x="65" y="61" type="line" smooth="yes"/>
      <point x="56" y="17"/>
      <point x="22" y="10"/>
      <point x="-14" y="10" type="curve" smooth="yes"/>
      <point x="-19" y="10" type="line"/>
    </contour>
    <contour>
      <point x="276" y="168" type="curve" smooth="yes"/>
      <point x="257" y="168" type="line"/>
      <point x="338" y="552" type="line"/>
      <point x="344" y="552" type="line" smooth="yes"/>
      <point x="384" y="552"/>
      <point x="406" y="516"/>
      <point x="406" y="441" type="curve" smooth="yes"/>
      <point x="406" y="320"/>
      <point x="363" y="168"/>
    </contour>
  </outline>
</glyph>
<glyph name="germandbls" format="2">
  <advance width="617"/>
  <unicode hex="00DF"/>
  <anchor x="387" y="-10" name="bottom"/>
  <anchor x="416" y="773" name="top"/>
  <outline>
    <contour>
      <point x="-77" y="-240" type="curve" smooth="yes"/>
      <point x="2" y="-240"/>
      <point x="147" y="-196"/>
      <point x="186" y="-8" type="curve" smooth="yes"/>
      <point x="307" y="570" type="line" smooth="yes"/>
      <point x="338" y="718"/>
      <point x="345" y="765"/>
      <point x="396" y="765" type="curve" smooth="yes"/>
      <point x="432" y="765"/>
      <point x="452" y="742"/>
      <point x="452" y="646" type="curve" smooth="yes"/>
      <point x="452" y="609"/>
      <point x="449" y="590"/>
      <point x="443" y="546" type="curve"/>
      <point x="378" y="546"/>
      <point x="305" y="501"/>
      <point x="305" y="392" type="curve" smooth="yes"/>
      <point x="305" y="313"/>
      <point x="343" y="276"/>
      <point x="385" y="238" type="curve" smooth="yes"/>
      <point x="425" y="201"/>
      <point x="467" y="176"/>
      <point x="467" y="89" type="curve" smooth="yes"/>
      <point x="467" y="25"/>
      <point x="444" y="0"/>
      <point x="410" y="0" type="curve" smooth="yes"/>
      <point x="371" y="0"/>
      <point x="349" y="32"/>
      <point x="349" y="199" type="curve"/>
      <point x="284" y="199"/>
      <point x="245" y="163"/>
      <point x="245" y="103" type="curve" smooth="yes"/>
      <point x="245" y="31"/>
      <point x="300" y="-10"/>
      <point x="388" y="-10" type="curve" smooth="yes"/>
      <point x="506" y="-10"/>
      <point x="595" y="65"/>
      <point x="595" y="175" type="curve" smooth="yes"/>
      <point x="595" y="248"/>
      <point x="556" y="286"/>
      <point x="519" y="319" type="curve" smooth="yes"/>
      <point x="471" y="362"/>
      <point x="441" y="384"/>
      <point x="441" y="440" type="curve" smooth="yes"/>
      <point x="441" y="508"/>
      <point x="486" y="536"/>
      <point x="555" y="536" type="curve" smooth="yes"/>
      <point x="596" y="536" type="line"/>
      <point x="602" y="563"/>
      <point x="607" y="590"/>
      <point x="607" y="617" type="curve" smooth="yes"/>
      <point x="607" y="722"/>
      <point x="532" y="775"/>
      <point x="401" y="775" type="curve" smooth="yes"/>
      <point x="270" y="775"/>
      <point x="174" y="722"/>
      <point x="140" y="568" type="curve" smooth="yes"/>
      <point x="133" y="536" type="line"/>
      <point x="61" y="536" type="line"/>
      <point x="59" y="526" type="line"/>
      <point x="130" y="526" type="line"/>
      <point x="9" y="-61" type="line" smooth="yes"/>
      <point x="-19" y="-196"/>
      <point x="-40" y="-224"/>
      <point x="-94" y="-224" type="curve" smooth="yes"/>
      <point x="-108" y="-224"/>
      <point x="-124" y="-222"/>
      <point x="-133" y="-219" type="curve"/>
      <point x="-136" y="-229" type="line"/>
      <point x="-125" y="-234"/>
      <point x="-106" y="-240"/>
    </contour>
  </outline>
</glyph>
<glyph name="ae" format="2">
  <advance width="768"/>
  <unicode hex="00E6"/>
  <anchor x="327" y="0" name="bottom"/>
  <anchor x="471" y="536" name="top"/>
  <anchor x="793" y="536" name="topright"/>
  <outline>
    <contour>
      <point x="148" y="-10" type="curve" smooth="yes"/>
      <point x="230" y="-10"/>
      <point x="273" y="47"/>
      <point x="320" y="147" type="curve"/>
      <point x="323" y="147" type="line"/>
      <point x="343" y="40"/>
      <point x="423" y="-10"/>
      <point x="531" y="-10" type="curve" smooth="yes"/>
      <point x="645" y="-10"/>
      <point x="698" y="58"/>
      <point x="698" y="115" type="curve" smooth="yes"/>
      <point x="698" y="147"/>
      <point x="689" y="159"/>
      <point x="678" y="163" type="curve"/>
      <point x="654" y="68"/>
      <point x="621" y="2"/>
      <point x="559" y="2" type="curve" smooth="yes"/>
      <point x="509" y="2"/>
      <point x="479" y="46"/>
      <point x="479" y="186" type="curve" smooth="yes"/>
      <point x="479" y="208"/>
      <point x="480" y="233"/>
      <point x="482" y="248" type="curve"/>
      <point x="515" y="248" type="line" smooth="yes"/>
      <point x="664" y="248"/>
      <point x="772" y="316"/>
      <point x="772" y="426" type="curve" smooth="yes"/>
      <point x="772" y="501"/>
      <point x="722" y="546"/>
      <point x="622" y="546" type="curve" smooth="yes"/>
      <point x="548" y="546"/>
      <point x="489" y="528"/>
      <point x="445" y="492" type="curve"/>
      <point x="411" y="528"/>
      <point x="371" y="546"/>
      <point x="298" y="546" type="curve" smooth="yes"/>
      <point x="100" y="546"/>
      <point x="21" y="326"/>
      <point x="21" y="180" type="curve" smooth="yes"/>
      <point x="21" y="70"/>
      <point x="48" y="-10"/>
    </contour>
    <contour>
      <point x="222" y="43" type="curve" smooth="yes"/>
      <point x="193" y="43"/>
      <point x="180" y="81"/>
      <point x="180" y="168" type="curve" smooth="yes"/>
      <point x="180" y="368"/>
      <point x="253" y="527"/>
      <point x="350" y="527" type="curve" smooth="yes"/>
      <point x="381" y="527"/>
      <point x="415" y="510"/>
      <point x="437" y="485" type="curve"/>
      <point x="362" y="433"/>
      <point x="318" y="310"/>
      <point x="318" y="207" type="curve" smooth="yes"/>
      <point x="318" y="191"/>
      <point x="319" y="180"/>
      <point x="320" y="167" type="curve"/>
      <point x="287" y="93"/>
      <point x="255" y="43"/>
    </contour>
    <contour>
      <point x="482" y="258" type="line"/>
      <point x="502" y="436"/>
      <point x="548" y="532"/>
      <point x="589" y="532" type="curve" smooth="yes"/>
      <point x="617" y="532"/>
      <point x="624" y="507"/>
      <point x="624" y="469" type="curve" smooth="yes"/>
      <point x="624" y="336"/>
      <point x="563" y="258"/>
      <point x="495" y="258" type="curve" smooth="yes"/>
    </contour>
  </outline>
</glyph>
<glyph name="eth" format="2">
  <advance width="532"/>
  <unicode hex="00F0"/>
  <anchor x="209" y="0" name="bottom"/>
  <anchor x="373" y="769" name="top"/>
  <outline>
    <contour>
      <point x="244" y="-10" type="curve" smooth="yes"/>
      <point x="434" y="-10"/>
      <point x="520" y="180"/>
      <point x="520" y="349" type="curve" smooth="yes"/>
      <point x="520" y="587"/>
      <point x="362" y="729"/>
      <point x="198" y="771" type="curve"/>
      <point x="196" y="761" type="line"/>
      <point x="294" y="727"/>
      <point x="362" y="589"/>
      <point x="362" y="434" type="curve"/>
      <point x="345" y="496"/>
      <point x="314" y="517"/>
      <point x="269" y="517" type="curve" smooth="yes"/>
      <point x="111" y="517"/>
      <point x="38" y="357"/>
      <point x="38" y="215" type="curve" smooth="yes"/>
      <point x="38" y="59"/>
      <point x="124" y="-10"/>
    </contour>
    <contour>
      <point x="259" y="0" type="curve" smooth="yes"/>
      <point x="212" y="0"/>
      <point x="196" y="53"/>
      <point x="196" y="202" type="curve" smooth="yes"/>
      <point x="196" y="385"/>
      <point x="223" y="502"/>
      <point x="284" y="502" type="curve" smooth="yes"/>
      <point x="339" y="502"/>
      <point x="360" y="441"/>
      <point x="360" y="357" type="curve" smooth="yes"/>
      <point x="360" y="98"/>
      <point x="321" y="0"/>
    </contour>
    <contour>
      <point x="191" y="580" type="line"/>
      <point x="475" y="724" type="line"/>
      <point x="479" y="739" type="line"/>
      <point x="194" y="594" type="line"/>
    </contour>
  </outline>
</glyph>
<glyph name="oslash" format="2">
  <advance width="537"/>
  <unicode hex="00F8"/>
  <anchor x="212" y="0" name="bottom"/>
  <anchor x="326" y="536" name="top"/>
  <anchor x="313" y="268" name="center"/>
  <anchor x="561" y="536" name="topright"/>
  <outline>
    <contour>
      <point x="47" y="-50" type="line"/>
      <point x="58" y="-50" type="line"/>
      <point x="493" y="586" type="line"/>
      <point x="482" y="586" type="line"/>
    </contour>
    <component base="o"/>
  </outline>
</glyph>
<glyph name="thorn" format="2">
  <advance width="554"/>
  <unicode hex="00FE"/>
  <anchor x="169" y="-240" name="bottom"/>
  <anchor x="382" y="760" name="top"/>
  <outline>
    <contour>
      <point x="-39" y="-240" type="line"/>
      <point x="218" y="-240" type="line"/>
      <point x="220" y="-230" type="line"/>
      <point x="189" y="-230" type="line" smooth="yes"/>
      <point x="150" y="-230"/>
      <point x="139" y="-224"/>
      <point x="139" y="-197" type="curve" smooth="yes"/>
      <point x="139" y="-189"/>
      <point x="140" y="-179"/>
      <point x="144" y="-157" type="curve" smooth="yes"/>
      <point x="165" y="-38" type="line" smooth="yes"/>
      <point x="169" y="-16"/>
      <point x="172" y="0"/>
      <point x="174" y="15" type="curve"/>
      <point x="195" y="-3"/>
      <point x="223" y="-10"/>
      <point x="257" y="-10" type="curve" smooth="yes"/>
      <point x="448" y="-10"/>
      <point x="537" y="204"/>
      <point x="537" y="368" type="curve" smooth="yes"/>
      <point x="537" y="491"/>
      <point x="487" y="546"/>
      <point x="411" y="546" type="curve" smooth="yes"/>
      <point x="328" y="546"/>
      <point x="270" y="480"/>
      <point x="239" y="362" type="curve"/>
      <point x="233" y="362" type="line"/>
      <point x="270" y="478"/>
      <point x="298" y="566"/>
      <point x="314" y="634" type="curve" smooth="yes"/>
      <point x="344" y="760" type="line"/>
      <point x="96" y="760" type="line"/>
      <point x="94" y="750" type="line"/>
      <point x="121" y="750" type="line" smooth="yes"/>
      <point x="157" y="750"/>
      <point x="161" y="739"/>
      <point x="161" y="719" type="curve" smooth="yes"/>
      <point x="161" y="705"/>
      <point x="159" y="692"/>
      <point x="156" y="676" type="curve" smooth="yes"/>
    </contour>
    <contour>
      <point x="231" y="4" type="curve" smooth="yes"/>
      <point x="211" y="4"/>
      <point x="190" y="14"/>
      <point x="178" y="29" type="curve"/>
      <point x="246" y="347" type="line" smooth="yes"/>
      <point x="262" y="422"/>
      <point x="304" y="504"/>
      <point x="344" y="504" type="curve" smooth="yes"/>
      <point x="369" y="504"/>
      <point x="380" y="472"/>
      <point x="380" y="393" type="curve" smooth="yes"/>
      <point x="380" y="206"/>
      <point x="319" y="4"/>
    </contour>
  </outline>
</glyph>
<glyph name="dcroat" format="2">
  <advance width="568"/>
  <unicode hex="0111"/>
  <anchor x="246" y="0" name="bottom"/>
  <anchor x="408" y="760" name="top"/>
  <anchor x="343" y="268" name="center"/>
  <anchor x="645" y="760" name="topright"/>
  <outline>
    <contour>
      <point x="299" y="630" type="line"/>
      <point x="648" y="630" type="line"/>
      <point x="650" y="640" type="line"/>
      <point x="301" y="640" type="line"/>
    </contour>
    <component base="d"/>
  </outline>
</glyph>
<glyph name="Hbar" format="2">
  <advance width="688"/>
  <unicode hex="0126"/>
  <anchor x="287" y="0" name="bottom"/>
  <anchor x="439" y="714" name="top"/>
  <anchor x="336" y="357" name="center"/>
  <anchor x="736" y="714" name="topright"/>
  <outline>
    <contour>
      <point x="72" y="522" type="line"/>
      <point x="761" y="522" type="line"/>
      <point x="763" y="532" type="line"/>
      <point x="74" y="532" type="line"/>
    </contour>
    <component base="H"/>
  </outline>
</glyph>
<glyph name="hbar" format="2">
  <advance width="578"/>
  <unicode hex="0127"/>
  <anchor x="232" y="0" name="bottom"/>
  <anchor x="394" y="760" name="top"/>
  <anchor x="344" y="268" name="center"/>
  <anchor x="581" y="760" name="topright"/>
  <outline>
    <contour>
      <point x="64" y="614" type="line"/>
      <point x="415" y="614" type="line"/>
      <point x="417" y="624" type="line"/>
      <point x="66" y="624" type="line"/>
    </contour>
    <component base="h" xOffset="-23"/>
  </outline>
</glyph>
<glyph name="idotless" format="2">
  <advance width="327"/>
  <unicode hex="0131"/>
  <anchor x="109" y="0" name="bottom"/>
  <anchor x="203" y="536" name="top"/>
  <anchor x="392" y="714" name="topright"/>
  <outline>
    <contour>
      <point x="167" y="-10" type="curve" smooth="yes"/>
      <point x="238" y="-10"/>
      <point x="274" y="23"/>
      <point x="308" y="63" type="curve"/>
      <point x="301" y="72" type="line"/>
      <point x="280" y="48"/>
      <point x="251" y="18"/>
      <point x="228" y="18" type="curve" smooth="yes"/>
      <point x="208" y="18"/>
      <point x="205" y="35"/>
      <point x="205" y="55" type="curve" smooth="yes"/>
      <point x="205" y="79"/>
      <point x="209" y="105"/>
      <point x="218" y="145" type="curve" smooth="yes"/>
      <point x="302" y="536" type="line"/>
      <point x="65" y="536" type="line"/>
      <point x="63" y="526" type="line"/>
      <point x="72" y="526" type="line" smooth="yes"/>
      <point x="110" y="526"/>
      <point x="118" y="517"/>
      <point x="118" y="493" type="curve" smooth="yes"/>
      <point x="118" y="473"/>
      <point x="114" y="451"/>
      <point x="109" y="428" type="curve" smooth="yes"/>
      <point x="65" y="210" type="line" smooth="yes"/>
      <point x="52" y="147"/>
      <point x="49" y="117"/>
      <point x="49" y="99" type="curve" smooth="yes"/>
      <point x="49" y="26"/>
      <point x="92" y="-10"/>
    </contour>
  </outline>
</glyph>
<glyph name="kgreenlandic" format="2">
  <advance width="545"/>
  <unicode hex="0138"/>
  <anchor x="238" y="0" name="bottom"/>
  <anchor x="337" y="536" name="top"/>
  <outline>
    <contour>
      <point x="462" y="-5" type="curve" smooth="yes"/>
      <point x="507" y="-5" type="line"/>
      <point x="509" y="5" type="line"/>
      <point x="483" y="5"/>
      <point x="467" y="58"/>
      <point x="452" y="109" type="curve" smooth="yes"/>
      <point x="371" y="388" type="line"/>
      <point x="342" y="348" type="line"/>
      <point x="442" y="460" type="line" smooth="yes"/>
      <point x="496" y="520"/>
      <point x="547" y="526"/>
      <point x="587" y="526" type="curve"/>
      <point x="589" y="536" type="line"/>
      <point x="361" y="536" type="line"/>
      <point x="359" y="526" type="line"/>
      <point x="431" y="526"/>
      <point x="459" y="521"/>
      <point x="459" y="503" type="curve" smooth="yes"/>
      <point x="459" y="491"/>
      <point x="445" y="475"/>
      <point x="427" y="455" type="curve" smooth="yes"/>
      <point x="242" y="243" type="line"/>
      <point x="253" y="281"/>
      <point x="291" y="453"/>
      <point x="302" y="506" type="curve" smooth="yes"/>
      <point x="308" y="536" type="line"/>
      <point x="76" y="536" type="line"/>
      <point x="74" y="526" type="line"/>
      <point x="80" y="526" type="line" smooth="yes"/>
      <point x="121" y="526"/>
      <point x="125" y="513"/>
      <point x="125" y="497" type="curve" smooth="yes"/>
      <point x="125" y="483"/>
      <point x="120" y="462"/>
      <point x="118" y="452" type="curve" smooth="yes"/>
      <point x="23" y="0" type="line"/>
      <point x="189" y="0" type="line"/>
      <point x="239" y="229" type="line"/>
      <point x="260" y="252" type="line"/>
      <point x="246" y="246" type="line"/>
      <point x="290" y="94" type="line" smooth="yes"/>
      <point x="314" y="11"/>
      <point x="354" y="-5"/>
    </contour>
  </outline>
</glyph>
<glyph name="Lslash" format="2">
  <advance width="556"/>
  <unicode hex="0141"/>
  <anchor x="221" y="0" name="bottom"/>
  <anchor x="373" y="714" name="top"/>
  <anchor x="292" y="357" name="center"/>
  <anchor x="533" y="714" name="topright"/>
  <outline>
    <contour>
      <point x="38" y="273" type="line"/>
      <point x="421" y="470" type="line"/>
      <point x="422" y="482" type="line"/>
      <point x="39" y="284" type="line"/>
    </contour>
    <component base="L"/>
  </outline>
</glyph>
<glyph name="lslash" format="2">
  <advance width="326"/>
  <unicode hex="0142"/>
  <anchor x="106" y="0" name="bottom"/>
  <anchor x="268" y="760" name="top"/>
  <anchor x="224" y="268" name="center"/>
  <anchor x="415" y="760" name="topright"/>
  <outline>
    <contour>
      <point x="6" y="252" type="line"/>
      <point x="332" y="412" type="line"/>
      <point x="334" y="426" type="line"/>
      <point x="8" y="265" type="line"/>
    </contour>
    <component base="l"/>
  </outline>
</glyph>
<glyph name="Eng" format="2">
  <advance width="661"/>
  <unicode hex="014A"/>
  <anchor x="203" y="-240" name="bottom"/>
  <anchor x="406" y="714" name="top"/>
  <outline>
    <contour>
      <point x="374" y="-240" type="curve" smooth="yes"/>
      <point x="448" y="-240"/>
      <point x="481" y="-171"/>
      <point x="516" y="0" type="curve" smooth="yes"/>
      <point x="653" y="653" type="line" smooth="yes"/>
      <point x="663" y="699"/>
      <point x="701" y="704"/>
      <point x="741" y="704" type="curve" smooth="yes"/>
      <point x="766" y="704" type="line"/>
      <point x="768" y="714" type="line"/>
      <point x="560" y="714" type="line"/>
      <point x="558" y="704" type="line"/>
      <point x="579" y="704" type="line" smooth="yes"/>
      <point x="625" y="704"/>
      <point x="642" y="694"/>
      <point x="642" y="667" type="curve" smooth="yes"/>
      <point x="642" y="660"/>
      <point x="641" y="651"/>
      <point x="639" y="641" type="curve" smooth="yes"/>
      <point x="554" y="235" type="line"/>
      <point x="382" y="714" type="line"/>
      <point x="129" y="714" type="line"/>
      <point x="127" y="704" type="line"/>
      <point x="153" y="704" type="line" smooth="yes"/>
      <point x="195" y="704"/>
      <point x="225" y="700"/>
      <point x="225" y="674" type="curve" smooth="yes"/>
      <point x="225" y="667"/>
      <point x="222" y="656"/>
      <point x="218" y="636" type="curve" smooth="yes"/>
      <point x="95" y="61" type="line" smooth="yes"/>
      <point x="86" y="17"/>
      <point x="47" y="10"/>
      <point x="6" y="10" type="curve" smooth="yes"/>
      <point x="-19" y="10" type="line"/>
      <point x="-20" y="0" type="line"/>
      <point x="188" y="0" type="line"/>
      <point x="190" y="10" type="line"/>
      <point x="184" y="10" type="line" smooth="yes"/>
      <point x="134" y="10"/>
      <point x="104" y="17"/>
      <point x="104" y="41" type="curve" smooth="yes"/>
      <point x="104" y="49"/>
      <point x="105" y="57"/>
      <point x="109" y="77" type="curve" smooth="yes"/>
      <point x="234" y="663" type="line"/>
      <point x="497" y="-28" type="line"/>
      <point x="466" y="-196"/>
      <point x="426" y="-230"/>
      <point x="373" y="-230" type="curve" smooth="yes"/>
      <point x="356" y="-230"/>
      <point x="333" y="-225"/>
      <point x="321" y="-219" type="curve"/>
      <point x="318" y="-229" type="line"/>
      <point x="335" y="-236"/>
      <point x="347" y="-240"/>
    </contour>
  </outline>
</glyph>
<glyph name="OE" format="2">
  <advance width="852"/>
  <unicode hex="0152"/>
  <anchor x="370" y="0" name="bottom"/>
  <anchor x="522" y="714" name="top"/>
  <outline>
    <contour>
      <point x="309" y="-11" type="curve" smooth="yes"/>
      <point x="347" y="-11"/>
      <point x="365" y="0"/>
      <point x="388" y="0" type="curve" smooth="yes"/>
      <point x="785" y="0" type="line"/>
      <point x="820" y="143" type="line"/>
      <point x="810" y="143" type="line"/>
      <point x="794" y="92" type="line" smooth="yes"/>
      <point x="780" y="48"/>
      <point x="750" y="10"/>
      <point x="699" y="10" type="curve" smooth="yes"/>
      <point x="535" y="10" type="line"/>
      <point x="609" y="364" type="line"/>
      <point x="784" y="364" type="line"/>
      <point x="787" y="375" type="line"/>
      <point x="612" y="375" type="line"/>
      <point x="681" y="704" type="line"/>
      <point x="825" y="704" type="line" smooth="yes"/>
      <point x="865" y="704"/>
      <point x="879" y="685"/>
      <point x="879" y="645" type="curve" smooth="yes"/>
      <point x="879" y="626"/>
      <point x="873" y="580"/>
      <point x="872" y="571" type="curve"/>
      <point x="882" y="571" type="line"/>
      <point x="910" y="714" type="line"/>
      <point x="532" y="714" type="line"/>
      <point x="507" y="721"/>
      <point x="480" y="725"/>
      <point x="447" y="725" type="curve" smooth="yes"/>
      <point x="195" y="725"/>
      <point x="52" y="489"/>
      <point x="52" y="250" type="curve" smooth="yes"/>
      <point x="52" y="80"/>
      <point x="159" y="-11"/>
    </contour>
    <contour>
      <point x="332" y="-1" type="curve" smooth="yes"/>
      <point x="257" y="-1"/>
      <point x="225" y="61"/>
      <point x="225" y="224" type="curve" smooth="yes"/>
      <point x="225" y="395"/>
      <point x="295" y="715"/>
      <point x="435" y="715" type="curve" smooth="yes"/>
      <point x="465" y="715"/>
      <point x="492" y="699"/>
      <point x="503" y="659" type="curve"/>
      <point x="377" y="67" type="line" smooth="yes"/>
      <point x="368" y="27"/>
      <point x="362" y="-1"/>
    </contour>
  </outline>
</glyph>
<glyph name="oe" format="2">
  <advance width="783"/>
  <unicode hex="0153"/>
  <anchor x="363" y="0" name="bottom"/>
  <anchor x="464" y="536" name="top"/>
  <outline>
    <contour>
      <point x="221" y="-10" type="curve" smooth="yes"/>
      <point x="289" y="-10"/>
      <point x="345" y="15"/>
      <point x="388" y="54" type="curve"/>
      <point x="427" y="11"/>
      <point x="486" y="-10"/>
      <point x="552" y="-10" type="curve" smooth="yes"/>
      <point x="666" y="-10"/>
      <point x="719" y="58"/>
      <point x="719" y="115" type="curve" smooth="yes"/>
      <point x="719" y="147"/>
      <point x="710" y="159"/>
      <point x="699" y="163" type="curve"/>
      <point x="675" y="68"/>
      <point x="642" y="2"/>
      <point x="580" y="2" type="curve" smooth="yes"/>
      <point x="530" y="2"/>
      <point x="500" y="46"/>
      <point x="500" y="186" type="curve" smooth="yes"/>
      <point x="500" y="195"/>
      <point x="501" y="236"/>
      <point x="503" y="248" type="curve"/>
      <point x="514" y="248"/>
      <point x="525" y="248"/>
      <point x="536" y="248" type="curve" smooth="yes"/>
      <point x="685" y="248"/>
      <point x="793" y="316"/>
      <point x="793" y="426" type="curve" smooth="yes"/>
      <point x="793" y="501"/>
      <point x="741" y="546"/>
      <point x="648" y="546" type="curve" smooth="yes"/>
      <point x="574" y="546"/>
      <point x="513" y="519"/>
      <point x="465" y="477" type="curve"/>
      <point x="431" y="525"/>
      <point x="377" y="546"/>
      <point x="318" y="546" type="curve" smooth="yes"/>
      <point x="117" y="546"/>
      <point x="25" y="354"/>
      <point x="25" y="202" type="curve" smooth="yes"/>
      <point x="25" y="60"/>
      <point x="103" y="-10"/>
    </contour>
    <contour>
      <point x="229" y="0" type="curve" smooth="yes"/>
      <point x="194" y="0"/>
      <point x="177" y="32"/>
      <point x="177" y="123" type="curve" smooth="yes"/>
      <point x="177" y="320"/>
      <point x="238" y="536"/>
      <point x="308" y="536" type="curve" smooth="yes"/>
      <point x="343" y="536"/>
      <point x="353" y="494"/>
      <point x="353" y="408" type="curve" smooth="yes"/>
      <point x="353" y="222"/>
      <point x="307" y="0"/>
    </contour>
    <contour>
      <point x="516" y="258" type="curve" smooth="yes"/>
      <point x="503" y="258" type="line"/>
      <point x="523" y="436"/>
      <point x="569" y="532"/>
      <point x="610" y="532" type="curve" smooth="yes"/>
      <point x="638" y="532"/>
      <point x="645" y="507"/>
      <point x="645" y="449" type="curve" smooth="yes"/>
      <point x="645" y="336"/>
      <point x="584" y="258"/>
    </contour>
  </outline>
</glyph>
<glyph name="Tbar" format="2">
  <advance width="562"/>
  <unicode hex="0166"/>
  <anchor x="224" y="0" name="bottom"/>
  <anchor x="376" y="714" name="top"/>
  <anchor x="302" y="357" name="center"/>
  <anchor x="620" y="714" name="topright"/>
  <outline>
    <contour>
      <point x="93" y="355" type="line"/>
      <point x="511" y="355" type="line"/>
      <point x="513" y="365" type="line"/>
      <point x="94" y="365" type="line"/>
    </contour>
    <component base="T"/>
  </outline>
</glyph>
<glyph name="tbar" format="2">
  <advance width="376"/>
  <unicode hex="0167"/>
  <anchor x="131" y="0" name="bottom"/>
  <anchor x="271" y="659" name="top"/>
  <anchor x="246" y="268" name="center"/>
  <anchor x="437" y="659" name="topright"/>
  <outline>
    <contour>
      <point x="16" y="299" type="line"/>
      <point x="348" y="299" type="line"/>
      <point x="350" y="309" type="line"/>
      <point x="18" y="309" type="line"/>
    </contour>
    <component base="t"/>
  </outline>
</glyph>
<glyph name="longs" format="2">
  <advance width="408"/>
  <unicode hex="017F"/>
  <anchor x="-70" y="-240" name="bottom"/>
  <anchor x="394" y="770" name="top"/>
  <outline>
    <contour>
      <point x="-70" y="-240" type="curve" smooth="yes"/>
      <point x="42" y="-240"/>
      <point x="170" y="-178"/>
      <point x="218" y="49" type="curve" smooth="yes"/>
      <point x="347" y="659" type="line" smooth="yes"/>
      <point x="364" y="739"/>
      <point x="373" y="760"/>
      <point x="396" y="760" type="curve" smooth="yes"/>
      <point x="427" y="760"/>
      <point x="422" y="709"/>
      <point x="423" y="607" type="curve"/>
      <point x="502" y="607"/>
      <point x="543" y="633"/>
      <point x="543" y="680" type="curve" smooth="yes"/>
      <point x="543" y="735"/>
      <point x="488" y="770"/>
      <point x="397" y="770" type="curve" smooth="yes"/>
      <point x="277" y="770"/>
      <point x="193" y="705"/>
      <point x="162" y="559" type="curve" smooth="yes"/>
      <point x="28" y="-65" type="line" smooth="yes"/>
      <point x="-1" y="-198"/>
      <point x="-27" y="-230"/>
      <point x="-82" y="-230" type="curve" smooth="yes"/>
      <point x="-100" y="-230"/>
      <point x="-112" y="-226"/>
      <point x="-120" y="-223" type="curve"/>
      <point x="-123" y="-232" type="line"/>
      <point x="-112" y="-236"/>
      <point x="-90" y="-240"/>
    </contour>
  </outline>
</glyph>
<glyph name="uni0191" format="2">
  <advance width="725"/>
  <unicode hex="0191"/>
  <anchor x="162" y="-10" name="bottom"/>
  <anchor x="522" y="714" name="top"/>
  <outline>
    <contour>
      <point x="162" y="-10" type="curve" smooth="yes"/>
      <point x="323" y="-10"/>
      <point x="403" y="89"/>
      <point x="425" y="191" type="curve" smooth="yes"/>
      <point x="463" y="368" type="line"/>
      <point x="653" y="368" type="line"/>
      <point x="655" y="378" type="line"/>
      <point x="465" y="378" type="line"/>
      <point x="533" y="704" type="line"/>
      <point x="685" y="704" type="line" smooth="yes"/>
      <point x="728" y="704"/>
      <point x="742" y="678"/>
      <point x="742" y="641" type="curve" smooth="yes"/>
      <point x="742" y="626"/>
      <point x="739" y="595"/>
      <point x="736" y="571" type="curve"/>
      <point x="746" y="571" type="line"/>
      <point x="774" y="714" type="line"/>
      <point x="291" y="714" type="line"/>
      <point x="289" y="704" type="line"/>
      <point x="299" y="704" type="line" smooth="yes"/>
      <point x="332" y="704"/>
      <point x="356" y="700"/>
      <point x="356" y="673" type="curve" smooth="yes"/>
      <point x="356" y="659"/>
      <point x="349" y="625"/>
      <point x="344" y="604" type="curve" smooth="yes"/>
      <point x="236" y="106" type="line" smooth="yes"/>
      <point x="223" y="48"/>
      <point x="205" y="0"/>
      <point x="154" y="0" type="curve" smooth="yes"/>
      <point x="108" y="0"/>
      <point x="76" y="36"/>
      <point x="76" y="155" type="curve" smooth="yes"/>
      <point x="76" y="168"/>
      <point x="76" y="182"/>
      <point x="77" y="197" type="curve"/>
      <point x="7" y="197"/>
      <point x="-43" y="165"/>
      <point x="-43" y="102" type="curve" smooth="yes"/>
      <point x="-43" y="30"/>
      <point x="27" y="-10"/>
    </contour>
  </outline>
</glyph>
<glyph name="florin" format="2">
  <advance width="474"/>
  <unicode hex="0192"/>
  <anchor x="89" y="-15" name="bottom"/>
  <anchor x="470" y="770" name="top"/>
  <anchor x="667" y="770" name="topright"/>
  <outline>
    <contour>
      <point x="89" y="-15" type="curve" smooth="yes"/>
      <point x="225" y="-15"/>
      <point x="296" y="55"/>
      <point x="323" y="185" type="curve" smooth="yes"/>
      <point x="394" y="526" type="line"/>
      <point x="515" y="526" type="line"/>
      <point x="517" y="536" type="line"/>
      <point x="396" y="536" type="line"/>
      <point x="421" y="656" type="line" smooth="yes"/>
      <point x="436" y="730"/>
      <point x="447" y="760"/>
      <point x="472" y="760" type="curve" smooth="yes"/>
      <point x="504" y="760"/>
      <point x="505" y="712"/>
      <point x="503" y="600" type="curve"/>
      <point x="579" y="600"/>
      <point x="619" y="629"/>
      <point x="619" y="673" type="curve" smooth="yes"/>
      <point x="619" y="734"/>
      <point x="566" y="770"/>
      <point x="470" y="770" type="curve" smooth="yes"/>
      <point x="334" y="770"/>
      <point x="266" y="702"/>
      <point x="235" y="567" type="curve" smooth="yes"/>
      <point x="228" y="536" type="line"/>
      <point x="145" y="532" type="line"/>
      <point x="144" y="526" type="line"/>
      <point x="225" y="526" type="line"/>
      <point x="138" y="99" type="line" smooth="yes"/>
      <point x="123" y="24"/>
      <point x="112" y="-5"/>
      <point x="87" y="-5" type="curve" smooth="yes"/>
      <point x="55" y="-5"/>
      <point x="49" y="43"/>
      <point x="51" y="155" type="curve"/>
      <point x="-16" y="155"/>
      <point x="-47" y="124"/>
      <point x="-47" y="77" type="curve" smooth="yes"/>
      <point x="-47" y="18"/>
      <point x="-1" y="-15"/>
    </contour>
  </outline>
</glyph>
<glyph name="uni019A" format="2">
  <advance width="314"/>
  <unicode hex="019A"/>
  <anchor x="93" y="0" name="bottom"/>
  <anchor x="255" y="760" name="top"/>
  <anchor x="211" y="268" name="center"/>
  <anchor x="402" y="760" name="topright"/>
  <outline>
    <contour>
      <point x="9" y="383" type="line"/>
      <point x="330" y="383" type="line"/>
      <point x="332" y="393" type="line"/>
      <point x="11" y="393" type="line"/>
    </contour>
    <component base="l" xOffset="-13"/>
  </outline>
</glyph>
<glyph name="Ohorn" format="2">
  <advance width="757"/>
  <unicode hex="01A0"/>
  <anchor x="303" y="0" name="bottom"/>
  <anchor x="455" y="714" name="top"/>
  <outline>
    <contour>
      <point x="298" y="-11" type="curve" smooth="yes"/>
      <point x="555" y="-11"/>
      <point x="678" y="238"/>
      <point x="678" y="466" type="curve" smooth="yes"/>
      <point x="678" y="479"/>
      <point x="677" y="492"/>
      <point x="676" y="505" type="curve"/>
      <point x="769" y="541"/>
      <point x="841" y="604"/>
      <point x="841" y="697" type="curve" smooth="yes"/>
      <point x="841" y="738"/>
      <point x="821" y="770"/>
      <point x="781" y="770" type="curve" smooth="yes"/>
      <point x="739" y="770"/>
      <point x="716" y="744"/>
      <point x="716" y="714" type="curve" smooth="yes"/>
      <point x="716" y="654"/>
      <point x="779" y="646"/>
      <point x="779" y="603" type="curve" smooth="yes"/>
      <point x="779" y="576"/>
      <point x="739" y="545"/>
      <point x="675" y="516" type="curve"/>
      <point x="658" y="664"/>
      <point x="562" y="725"/>
      <point x="440" y="725" type="curve" smooth="yes"/>
      <point x="193" y="725"/>
      <point x="61" y="499"/>
      <point x="61" y="250" type="curve" smooth="yes"/>
      <point x="61" y="80"/>
      <point x="156" y="-11"/>
    </contour>
    <contour>
      <point x="321" y="-1" type="curve" smooth="yes"/>
      <point x="272" y="-1"/>
      <point x="234" y="59"/>
      <point x="234" y="216" type="curve" smooth="yes"/>
      <point x="234" y="387"/>
      <point x="300" y="715"/>
      <point x="430" y="715" type="curve" smooth="yes"/>
      <point x="483" y="715"/>
      <point x="505" y="659"/>
      <point x="505" y="520" type="curve" smooth="yes"/>
      <point x="505" y="327"/>
      <point x="444" y="-1"/>
    </contour>
  </outline>
</glyph>
<glyph name="ohorn" format="2">
  <advance width="601"/>
  <unicode hex="01A1"/>
  <anchor x="241" y="0" name="bottom"/>
  <anchor x="355" y="536" name="top"/>
  <outline>
    <contour>
      <point x="235" y="-10" type="curve" smooth="yes"/>
      <point x="437" y="-10"/>
      <point x="518" y="188"/>
      <point x="518" y="334" type="curve" smooth="yes"/>
      <point x="518" y="347"/>
      <point x="517" y="359"/>
      <point x="516" y="371" type="curve"/>
      <point x="593" y="408"/>
      <point x="652" y="469"/>
      <point x="652" y="553" type="curve" smooth="yes"/>
      <point x="652" y="594"/>
      <point x="632" y="626"/>
      <point x="592" y="626" type="curve" smooth="yes"/>
      <point x="550" y="626"/>
      <point x="527" y="600"/>
      <point x="527" y="570" type="curve" smooth="yes"/>
      <point x="527" y="510"/>
      <point x="590" y="502"/>
      <point x="590" y="459" type="curve" smooth="yes"/>
      <point x="590" y="435"/>
      <point x="560" y="409"/>
      <point x="514" y="384" type="curve"/>
      <point x="497" y="498"/>
      <point x="421" y="546"/>
      <point x="332" y="546" type="curve" smooth="yes"/>
      <point x="120" y="546"/>
      <point x="39" y="354"/>
      <point x="39" y="202" type="curve" smooth="yes"/>
      <point x="39" y="60"/>
      <point x="117" y="-10"/>
    </contour>
    <contour>
      <point x="243" y="0" type="curve" smooth="yes"/>
      <point x="208" y="0"/>
      <point x="191" y="32"/>
      <point x="191" y="123" type="curve" smooth="yes"/>
      <point x="191" y="320"/>
      <point x="252" y="536"/>
      <point x="322" y="536" type="curve" smooth="yes"/>
      <point x="357" y="536"/>
      <point x="367" y="494"/>
      <point x="367" y="408" type="curve" smooth="yes"/>
      <point x="367" y="222"/>
      <point x="321" y="0"/>
    </contour>
  </outline>
</glyph>
<glyph name="Uhorn" format="2">
  <advance width="755"/>
  <unicode hex="01AF"/>
  <anchor x="308" y="0" name="bottom"/>
  <anchor x="460" y="714" name="top"/>
  <outline>
    <contour>
      <point x="276" y="-10" type="curve" smooth="yes"/>
      <point x="428" y="-10"/>
      <point x="483" y="86"/>
      <point x="515" y="239" type="curve" smooth="yes"/>
      <point x="564" y="476" type="line"/>
      <point x="752" y="496"/>
      <point x="834" y="587"/>
      <point x="834" y="687" type="curve" smooth="yes"/>
      <point x="834" y="743"/>
      <point x="809" y="770"/>
      <point x="768" y="770" type="curve" smooth="yes"/>
      <point x="725" y="770"/>
      <point x="704" y="741"/>
      <point x="704" y="706" type="curve" smooth="yes"/>
      <point x="704" y="644"/>
      <point x="770" y="633"/>
      <point x="770" y="588" type="curve" smooth="yes"/>
      <point x="770" y="530"/>
      <point x="661" y="494"/>
      <point x="567" y="486" type="curve"/>
      <point x="614" y="714" type="line"/>
      <point x="496" y="714" type="line"/>
      <point x="494" y="704" type="line"/>
      <point x="504" y="704" type="line" smooth="yes"/>
      <point x="557" y="704"/>
      <point x="595" y="700"/>
      <point x="595" y="673" type="curve" smooth="yes"/>
      <point x="595" y="667"/>
      <point x="593" y="655"/>
      <point x="590" y="642" type="curve" smooth="yes"/>
      <point x="508" y="255" type="line" smooth="yes"/>
      <point x="473" y="89"/>
      <point x="410" y="4"/>
      <point x="316" y="4" type="curve" smooth="yes"/>
      <point x="272" y="4"/>
      <point x="242" y="23"/>
      <point x="242" y="96" type="curve" smooth="yes"/>
      <point x="242" y="150"/>
      <point x="258" y="233"/>
      <point x="262" y="251" type="curve" smooth="yes"/>
      <point x="347" y="649" type="line" smooth="yes"/>
      <point x="357" y="697"/>
      <point x="389" y="704"/>
      <point x="425" y="704" type="curve" smooth="yes"/>
      <point x="438" y="704" type="line"/>
      <point x="440" y="714" type="line"/>
      <point x="116" y="714" type="line"/>
      <point x="113" y="704" type="line"/>
      <point x="123" y="704" type="line" smooth="yes"/>
      <point x="158" y="704"/>
      <point x="181" y="700"/>
      <point x="181" y="676" type="curve" smooth="yes"/>
      <point x="181" y="668"/>
      <point x="178" y="659"/>
      <point x="173" y="636" type="curve" smooth="yes"/>
      <point x="91" y="252" type="line" smooth="yes"/>
      <point x="86" y="228"/>
      <point x="79" y="182"/>
      <point x="79" y="151" type="curve" smooth="yes"/>
      <point x="79" y="50"/>
      <point x="155" y="-10"/>
    </contour>
  </outline>
</glyph>
<glyph name="uhorn" format="2">
  <advance width="718"/>
  <unicode hex="01B0"/>
  <anchor x="296" y="0" name="bottom"/>
  <anchor x="410" y="536" name="top"/>
  <outline>
    <contour>
      <point x="451" y="-10" type="curve" smooth="yes"/>
      <point x="526" y="-10"/>
      <point x="555" y="19"/>
      <point x="585" y="61" type="curve"/>
      <point x="580" y="68" type="line"/>
      <point x="560" y="39"/>
      <point x="536" y="16"/>
      <point x="511" y="16" type="curve" smooth="yes"/>
      <point x="491" y="16"/>
      <point x="480" y="30"/>
      <point x="480" y="64" type="curve" smooth="yes"/>
      <point x="480" y="81"/>
      <point x="483" y="107"/>
      <point x="489" y="138" type="curve" smooth="yes"/>
      <point x="530" y="346" type="line"/>
      <point x="660" y="362"/>
      <point x="762" y="448"/>
      <point x="762" y="553" type="curve" smooth="yes"/>
      <point x="762" y="594"/>
      <point x="742" y="626"/>
      <point x="702" y="626" type="curve" smooth="yes"/>
      <point x="660" y="626"/>
      <point x="637" y="600"/>
      <point x="637" y="570" type="curve" smooth="yes"/>
      <point x="637" y="510"/>
      <point x="700" y="502"/>
      <point x="700" y="459" type="curve" smooth="yes"/>
      <point x="700" y="421"/>
      <point x="632" y="372"/>
      <point x="532" y="357" type="curve"/>
      <point x="567" y="536" type="line"/>
      <point x="401" y="536" type="line"/>
      <point x="345" y="238" type="line" smooth="yes"/>
      <point x="324" y="127"/>
      <point x="281" y="35"/>
      <point x="234" y="35" type="curve" smooth="yes"/>
      <point x="218" y="35"/>
      <point x="208" y="46"/>
      <point x="208" y="76" type="curve" smooth="yes"/>
      <point x="208" y="93"/>
      <point x="211" y="131"/>
      <point x="219" y="168" type="curve" smooth="yes"/>
      <point x="294" y="536" type="line"/>
      <point x="60" y="536" type="line"/>
      <point x="59" y="526" type="line"/>
      <point x="80" y="526" type="line" smooth="yes"/>
      <point x="111" y="526"/>
      <point x="114" y="517"/>
      <point x="114" y="498" type="curve" smooth="yes"/>
      <point x="114" y="487"/>
      <point x="113" y="473"/>
      <point x="107" y="440" type="curve" smooth="yes"/>
      <point x="62" y="212" type="line" smooth="yes"/>
      <point x="55" y="178"/>
      <point x="49" y="134"/>
      <point x="49" y="104" type="curve" smooth="yes"/>
      <point x="49" y="43"/>
      <point x="74" y="-9"/>
      <point x="156" y="-9" type="curve" smooth="yes"/>
      <point x="233" y="-9"/>
      <point x="301" y="36"/>
      <point x="337" y="168" type="curve"/>
      <point x="343" y="168" type="line"/>
      <point x="341" y="158"/>
      <point x="334" y="99"/>
      <point x="334" y="77" type="curve" smooth="yes"/>
      <point x="334" y="35"/>
      <point x="358" y="-10"/>
    </contour>
  </outline>
</glyph>
<glyph name="uni01C0" format="2">
  <advance width="305"/>
  <unicode hex="01C0"/>
  <anchor x="96" y="0" name="bottom"/>
  <anchor x="257" y="760" name="top"/>
  <outline>
    <contour>
      <point x="56" y="0" type="line"/>
      <point x="136" y="0" type="line"/>
      <point x="297" y="760" type="line"/>
      <point x="217" y="760" type="line"/>
    </contour>
  </outline>
</glyph>
<glyph name="Aringacute" format="2">
  <advance width="650"/>
  <unicode hex="01FA"/>
  <anchor x="268" y="0" name="bottom"/>
  <anchor x="481" y="997" name="top"/>
  <outline>
    <contour>
      <point x="-33" y="0" type="line"/>
      <point x="187" y="0" type="line"/>
      <point x="189" y="10" type="line"/>
      <point x="143" y="10" type="line" smooth="yes"/>
      <point x="97" y="10"/>
      <point x="80" y="15"/>
      <point x="80" y="33" type="curve" smooth="yes"/>
      <point x="80" y="47"/>
      <point x="87" y="60"/>
      <point x="107" y="99" type="curve" smooth="yes"/>
      <point x="192" y="265" type="line"/>
      <point x="381" y="265" type="line"/>
      <point x="399" y="76" type="line" smooth="yes"/>
      <point x="400" y="65"/>
      <point x="401" y="56"/>
      <point x="401" y="45" type="curve" smooth="yes"/>
      <point x="401" y="19"/>
      <point x="375" y="10"/>
      <point x="332" y="10" type="curve" smooth="yes"/>
      <point x="300" y="10" type="line"/>
      <point x="298" y="0" type="line"/>
      <point x="609" y="0" type="line"/>
      <point x="612" y="10" type="line"/>
      <point x="606" y="10" type="line" smooth="yes"/>
      <point x="578" y="10"/>
      <point x="572" y="35"/>
      <point x="564" y="97" type="curve" smooth="yes"/>
      <point x="493" y="641" type="line"/>
      <point x="503" y="656"/>
      <point x="509" y="676"/>
      <point x="509" y="700" type="curve" smooth="yes"/>
      <point x="509" y="765"/>
      <point x="466" y="800"/>
      <point x="413" y="800" type="curve" smooth="yes"/>
      <point x="359" y="800"/>
      <point x="316" y="762"/>
      <point x="316" y="700" type="curve" smooth="yes"/>
      <point x="316" y="663"/>
      <point x="331" y="635"/>
      <point x="355" y="618" type="curve"/>
      <point x="87" y="88" type="line" smooth="yes"/>
      <point x="56" y="26"/>
      <point x="23" y="10"/>
      <point x="-13" y="10" type="curve" smooth="yes"/>
      <point x="-31" y="10" type="line"/>
    </contour>
    <contour>
      <point x="197" y="275" type="line"/>
      <point x="261" y="399" type="line" smooth="yes"/>
      <point x="292" y="460"/>
      <point x="332" y="544"/>
      <point x="353" y="583" type="curve"/>
      <point x="354" y="523"/>
      <point x="364" y="459"/>
      <point x="370" y="397" type="curve" smooth="yes"/>
      <point x="381" y="275" type="line"/>
    </contour>
    <contour>
      <point x="414" y="611" type="curve" smooth="yes"/>
      <point x="367" y="611"/>
      <point x="327" y="640"/>
      <point x="327" y="699" type="curve" smooth="yes"/>
      <point x="327" y="756"/>
      <point x="364" y="790"/>
      <point x="414" y="790" type="curve" smooth="yes"/>
      <point x="462" y="790"/>
      <point x="498" y="759"/>
      <point x="498" y="700" type="curve" smooth="yes"/>
      <point x="498" y="641"/>
      <point x="461" y="611"/>
    </contour>
    <contour>
      <point x="379" y="833" type="line"/>
      <point x="390" y="833" type="line"/>
      <point x="476" y="865"/>
      <point x="623" y="953"/>
      <point x="655" y="983" type="curve"/>
      <point x="658" y="993" type="line"/>
      <point x="497" y="993" type="line"/>
      <point x="468" y="946"/>
      <point x="419" y="878"/>
      <point x="381" y="841" type="curve"/>
    </contour>
  </outline>
</glyph>
